<?xml version="1.0" encoding="utf-8"?>
<!-- Generator: Adobe Illustrator 19.2.1, SVG Export Plug-In . SVG Version: 6.00 Build 0)  -->
<svg version="1.1" id="Layer_1" xmlns="http://www.w3.org/2000/svg" xmlns:xlink="http://www.w3.org/1999/xlink" x="0px" y="0px"
	 viewBox="0 0 280 150" style="enable-background:new 0 0 280 150;" xml:space="preserve">
<style type="text/css">
	.st0{fill:#242122;}
	.st1{fill:#262223;}
	.st2{fill:#F9BD17;}
	.st3{fill:#F8BE1A;}
	.st4{fill:#FFCF45;}
	.st5{fill:#D94638;}
	.st6{fill:#5C83C3;}
	.st7{fill:#625F5E;}
	.st8{fill:#EFEEEE;}
	.st9{fill:#FFFFFF;}
	.st10{fill:#0195C8;}
	.st11{fill:#0295C8;}
</style>
<g>
	<path class="st0" d="M139.5,68.9c0.8-1.7,1.9-2.8,3.6-3.4c3-0.9,7.5,0.3,7.5,5.5c0.1,5.1,0,10.2,0,15.4c0,0.8-0.4,1.1-1.2,1.1
		c-1,0-2,0-3.1,0c-1.1,0-1.3-0.2-1.3-1.3c0-4.4,0-8.7,0-13.1c0-1.8-0.7-2.7-2.1-2.8c-1.6-0.1-2.7,0.9-2.9,2.6
		c-0.3,2.6-0.1,5.2-0.2,7.8c0,1.9,0,3.8,0,5.7c0,0.8-0.3,1.1-1.1,1.1c-1.1,0-2.2,0-3.3,0c-0.8,0-1.1-0.3-1.1-1.1c0-4,0-8.1,0-12.1
		c0-0.7-0.1-1.3-0.2-2c-0.2-1.2-1-1.8-2.1-1.9c-1.2-0.1-2.1,0.5-2.5,1.6c-0.3,0.8-0.4,1.7-0.4,2.6c0,3.8,0,7.7,0,11.5
		c0,1.3-0.1,1.4-1.4,1.4c-1,0-2,0-3,0c-0.8,0-1.1-0.3-1.1-1.1c0-6.6,0-13.1,0-19.7c0-0.7,0.3-1.1,1.1-1.1c1,0,2,0,3.1,0
		c0.8,0,1.1,0.3,1.1,1.1c0,0.6,0,1.2,0.1,1.8c1.1-2.2,2.8-3.3,5.3-3.3C137,65.3,138.5,66.7,139.5,68.9z"/>
	<path class="st0" d="M171.4,76c0,1.2,0.1,2.4,0,3.6c-0.1,1.5,0.3,2.7,1.2,3.8c0.6,0.7,0.5,1.2-0.2,1.8c-0.8,0.6-1.6,1.4-2.4,2.1
		c-0.5,0.5-1,0.5-1.6,0c-0.6-0.5-1.1-1.1-1.5-1.7c-0.3-0.6-0.6-0.5-1-0.1c-2.2,2.2-4.8,2.7-7.8,2.1c-2-0.4-3.3-1.7-3.9-3.7
		c-1.1-4,0.4-8.1,5.6-9.3c1.6-0.4,3.3-0.6,5-0.7c0.6-0.1,0.7-0.3,0.7-0.8c0.2-2.8-1.4-4.2-3.8-3.5c-1,0.3-1.7,0.9-1.9,1.9
		c-0.2,0.9-0.7,1.1-1.4,0.9c-0.9-0.1-1.9-0.3-2.9-0.3c-0.9-0.1-1.1-0.5-0.9-1.3c0.5-1.9,1.5-3.4,3.2-4.4c3.3-1.8,6.8-1.9,10.2-0.3
		c1.8,0.8,2.8,2.3,3,4.3C171.5,72.3,171.4,74.2,171.4,76z M165.7,78.8c0-0.4,0-0.7,0-0.9c0.1-0.8-0.2-1-0.9-0.9
		c-1,0.1-1.9,0.2-2.8,0.6c-1.9,0.8-2.7,3.2-1.7,5c0.5,0.8,1.2,1.2,2.1,1.2c1.1-0.1,1.9-0.7,2.5-1.6
		C165.6,81.1,165.8,79.9,165.7,78.8z"/>
	<path class="st0" d="M114.5,85c-2.3,2.6-5.1,3.3-8.2,2.6c-2.1-0.4-3.3-1.8-3.9-3.8c-1.3-4.3,1.1-8.2,5.6-9.3
		c1.7-0.4,3.5-0.6,5.2-0.8c0.2,0,0.6,0.1,0.6-0.3c0-1.2,0.2-2.5-0.8-3.4c-1-0.9-2.2-0.8-3.3-0.4c-0.9,0.3-1.5,1-1.7,2
		c-0.1,0.6-0.5,0.9-1.2,0.8c-1-0.1-2-0.2-3-0.4c-1-0.1-1.2-0.4-0.9-1.4c0.5-2,1.7-3.6,3.6-4.5c3.2-1.5,6.5-1.6,9.8-0.1
		c1.8,0.8,2.8,2.4,3,4.4c0.3,3,0.1,6.1,0.1,9.1c0,1.4,0.3,2.7,1.2,3.8c0.6,0.7,0.5,1.3-0.2,1.8c-0.8,0.6-1.6,1.4-2.4,2.1
		c-0.5,0.5-1,0.4-1.5,0C115.7,86.7,115.2,85.8,114.5,85z M113.7,78.9c0-0.5,0.1-1,0.1-1.4c0-0.3,0-0.5-0.4-0.5
		c-1.6,0-3.2,0.2-4.5,1.3c-1,0.9-1.3,2.7-0.8,4c0.4,0.9,1,1.5,2,1.5c1.6,0,2.4-0.9,3.1-2.2C113.6,80.7,113.7,79.7,113.7,78.9z"/>
	<path class="st1" d="M219.2,69.2c0.4-0.7,0.6-1.2,0.9-1.6c1.3-2,3.3-2.5,5.4-2.2c2.1,0.3,3.6,1.5,4.3,3.6c0.3,1.1,0.4,2.2,0.4,3.3
		c0,4.6,0.1,9.3,0.1,13.9c0,1.2-0.2,1.3-1.3,1.3c-1,0-1.9,0-2.9,0c-1.2,0-1.3-0.2-1.3-1.3c0-4,0-8,0-12c0-0.7-0.1-1.3-0.2-2
		c-0.2-1-0.8-1.7-1.9-1.9c-0.9-0.1-2,0.4-2.5,1.3c-0.5,1-0.8,2.1-0.8,3.2c0,3.8,0,7.5,0,11.3c0,1.2-0.1,1.3-1.3,1.3
		c-1,0-1.9,0-2.9,0c-1.1,0-1.3-0.2-1.3-1.3c0-6,0-12.1,0-18.1c0-2.7-0.2-2.5,2.5-2.5c3.1,0,2.7-0.3,2.7,2.7
		C219.1,68.6,219.2,68.7,219.2,69.2z"/>
	<path class="st0" d="M211,76.4c0,3-0.5,5.5-2.1,7.8c-3.7,5.5-11.6,5-14.5-1c-2-4.2-2-8.6-0.2-12.9c1.3-3.1,3.7-4.9,7.2-5
		c3.8-0.2,6.5,1.5,8.2,4.9C210.7,72.2,211,74.5,211,76.4z M205.1,76.9c0-1.6-0.1-3-0.3-4.3c-0.1-0.4-0.2-0.9-0.4-1.3
		c-0.7-1.8-2.9-2.4-4.2-1.1c-0.5,0.5-0.8,1.2-1,1.9c-0.5,2.3-0.4,4.6-0.3,6.9c0.1,1.2,0.3,2.4,0.9,3.4c1,1.7,3.2,1.7,4.2,0.1
		c0.2-0.4,0.4-0.8,0.6-1.2C205.1,79.8,205.1,78.3,205.1,76.9z"/>
	<path class="st0" d="M183,80.4c2.3,0,4.3,0.2,6.3,1.1c1.7,0.7,1.8,0.9,1.8,2.7c0,0.6,0,1.2,0,1.8c0,1-0.4,1.3-1.3,0.8
		c-3.9-1.8-7.9-2-11.9-0.5c-0.4,0.2-0.9,0.4-1.3,0.6c-0.7,0.3-1.1,0.1-1.1-0.7c0-1.2,0-2.4,0-3.5c0-0.7,0.4-1.3,0.8-1.9
		c2.4-3.5,4.9-7,7.3-10.4c-0.2-0.3-0.5-0.2-0.7-0.2c-1.9,0-3.7,0-5.6,0c-0.7,0-1.1-0.3-1.1-1.1c0-0.8,0-1.6,0-2.4c0-0.7,0.3-1,1-1
		c4.2,0,8.4,0,12.7,0c0.7,0,0.9,0.4,1,1c0.1,1.7-0.2,3.2-1.3,4.6C187.2,74.2,185.2,77.2,183,80.4z"/>
	<path class="st2" d="M92.9,49.1c-0.1,3.9-0.1,7.9-0.1,11.8c0,0.8-0.2,0.9-1,0.7c-3.1-1.1-6.2-2.1-9.3-3.1c-0.6-0.2-0.7-0.5-0.7-1
		c0-4.8,0-9.6,0-14.4c0-0.7,0.1-0.9,0.9-0.7c3.1,1,6.2,2,9.3,3c0.7,0.2,1,0.5,0.9,1.3C92.8,47.4,92.9,48.3,92.9,49.1z"/>
	<path class="st2" d="M65.3,73.1c0,2.3,0,4.6,0,6.9c0,0.6-0.2,0.9-0.8,1.1c-3.2,1-6.4,2.1-9.6,3.2c-0.6,0.2-0.7,0-0.7-0.5
		c0-4.7,0-9.5,0-14.2c0-0.6,0.2-1,0.8-1.2c3.2-1,6.3-2,9.5-3c0.7-0.2,0.8-0.1,0.8,0.6C65.3,68.4,65.3,70.7,65.3,73.1
		C65.3,73.1,65.3,73.1,65.3,73.1z"/>
	<path class="st2" d="M68,99.1c0-2.3,0-4.6,0-6.9c0-0.7,0.2-1,0.9-1.2c2.9-0.8,5.8-1.8,8.7-2.8c0.3-0.1,0.5-0.2,0.8-0.2
		c0.5-0.1,0.7,0.1,0.7,0.6c0,4.7,0,9.5,0,14.2c0,0.6-0.4,0.8-0.8,0.9c-2.8,0.9-5.5,1.8-8.3,2.7c-0.1,0-0.2,0.1-0.4,0.1
		c-1.6,0.6-1.6,0.6-1.6-1.2C68,103.2,68,101.1,68,99.1z"/>
	<path class="st2" d="M40.7,73.1c0-2.3,0-4.7,0-7c0-0.7,0.1-0.9,0.9-0.7c3.2,1,6.3,2,9.5,3c0.5,0.2,0.8,0.4,0.8,1
		c0,4.7,0,9.4,0,14.1c0,0.7-0.3,0.9-0.9,0.7c-3-1.2-6.1-2.1-9.2-3.1c-0.7-0.2-1-0.5-0.9-1.3C40.8,77.6,40.7,75.3,40.7,73.1
		C40.7,73.1,40.7,73.1,40.7,73.1z"/>
	<path class="st2" d="M95.3,53.4c0-2,0-4,0-6c0-1.8,0-1.8,1.6-2.3c2.9-0.8,5.7-1.8,8.5-2.7c0.5-0.2,1-0.4,1,0.6c0,4.6,0,9.2,0,13.8
		c0,0.8-0.2,1.1-1,1.3c-3.1,1-6.1,2-9.2,3c-0.8,0.3-0.9,0.1-0.9-0.7C95.3,58.1,95.3,55.7,95.3,53.4C95.3,53.4,95.3,53.4,95.3,53.4z"
		/>
	<path class="st2" d="M65.5,99.2c0,2.3,0,4.7,0,7c0,0.8-0.2,0.9-0.9,0.6c-3-1-6.1-2.1-9.2-3.1c-0.8-0.2-1.1-0.6-1.1-1.4
		c0-4.5,0-9,0-13.5c0-1,0.2-1.1,1-0.8c2.9,0.9,5.7,1.8,8.6,2.8c1.5,0.5,1.5,0.5,1.5,2.1C65.5,95.1,65.5,97.1,65.5,99.2z"/>
	<path class="st2" d="M122.4,53.5c0-2.3,0-4.7,0-7c0-0.7,0.2-1,0.9-1.1c3.1-1,6.1-1.9,9.2-3c0.7-0.2,1.1-0.3,1.1,0.7
		c-0.1,4.6-0.1,9.1,0,13.7c0,0.7-0.2,1-0.9,1.2c-3.1,1-6.2,2-9.3,3.1c-0.7,0.3-1,0.1-1-0.7C122.4,58.1,122.3,55.8,122.4,53.5
		C122.4,53.5,122.4,53.5,122.4,53.5z"/>
	<path class="st2" d="M79.2,76.4c0,2.3,0,4.7,0,7c0,0.8-0.1,1-1,0.7c-3.1-1.1-6.2-2.1-9.3-3.1c-0.6-0.2-0.8-0.4-0.8-1.1
		c0-4.7,0-9.3,0-14c0-0.7,0.2-0.9,0.9-0.7c3.2,1,6.3,2,9.5,3c0.7,0.2,0.8,0.7,0.8,1.2C79.2,71.9,79.2,74.2,79.2,76.4z"/>
	<path class="st2" d="M81.7,76.6c0-2.3,0-4.6,0-6.9c0-0.8,0.2-1.1,1-1.3c3.1-0.9,6.1-1.9,9.1-2.9c0.8-0.3,1-0.1,1,0.7
		c0,4.7,0,9.3,0,14c0,0.5-0.2,0.7-0.6,0.9c-3.2,1.1-6.5,2.1-9.7,3.3c-0.8,0.3-0.6-0.2-0.6-0.6C81.8,81.3,81.8,78.9,81.7,76.6
		C81.7,76.6,81.7,76.6,81.7,76.6z"/>
	<path class="st2" d="M119.8,53.5c0,2.3,0,4.7,0,7c0,0.7-0.2,0.9-0.9,0.6c-3.1-1.1-6.2-2.1-9.3-3.1c-0.5-0.2-0.8-0.4-0.8-1
		c0-4.7,0-9.4-0.1-14.1c0-0.7,0.3-0.8,0.9-0.6c2.5,0.8,5,1.6,7.6,2.4c0.6,0.2,1.1,0.5,1.7,0.6c0.7,0.1,1,0.4,1,1.2
		C119.9,48.9,119.9,51.2,119.8,53.5C119.9,53.5,119.8,53.5,119.8,53.5z"/>
	<path class="st1" d="M108,103c0.6-2.4,1.2-4.7,1.7-7.1c0.2-0.9,0.6-1.2,1.5-1.2c0.8,0,1.2,0.3,1.3,1.1c0.6,2.3,1.1,4.5,1.7,6.8
		c0.1,0.2,0.2,0.5,0.3,0.9c0.7-2.7,1.3-5.1,2-7.6c0.1-0.5,0.3-0.9,0.9-1c1.4-0.3,1.9,0.2,1.6,1.6c-1,4-2,8-3,12
		c-0.2,0.8-0.5,1.2-1.4,1.2c-0.9,0-1.4-0.2-1.6-1.2c-0.6-2.4-1.2-4.8-1.9-7.5c-0.6,2.7-1.2,5.1-1.8,7.5c-0.2,0.8-0.5,1.2-1.4,1.1
		c-0.8,0-1.4-0.1-1.6-1.1c-1-4.1-2.1-8.2-3.1-12.2c-0.2-0.6-0.4-1.3,0.5-1.5c1.2-0.3,2,0.1,2.3,0.9c0.6,2.3,1.1,4.6,1.7,6.9
		C107.7,102.8,107.7,102.9,108,103z"/>
	<path class="st1" d="M134.9,95.7c2.4-2.3,6-1.4,7.3,1.2c1.8,3.6,1.7,7.2-0.3,10.7c-1.2,2.1-4.7,3.5-7.5,0.6c-0.2,0-0.2,0.2-0.2,0.4
		c-0.2,0.7-0.5,1.1-1.3,1c-0.8-0.1-0.8-0.7-0.8-1.3c0-5.7,0-11.4,0-17.1c0-1.3,0.1-1.3,1.6-1.3c1.1,0,1.3,0.2,1.3,1.4
		C134.9,92.7,134.9,94.1,134.9,95.7z M140.4,102.4c0-1.4-0.1-2.7-0.8-4c-0.9-1.7-2.3-1.8-3.5-0.5c-1.5,1.7-1.6,6.7-0.2,8.4
		c1.2,1.4,2.8,1.3,3.7-0.3C140.2,104.9,140.3,103.6,140.4,102.4z"/>
	<path class="st1" d="M126.2,102.5c-1.2,0-2.3,0-3.5,0c-0.5,0-0.7,0.2-0.7,0.7c0.1,0.6,0.1,1.3,0.4,1.9c0.5,1.1,1.3,1.8,2.5,1.9
		c1.2,0.1,2-0.6,2.5-1.7c0.4-0.9,0.9-1.1,1.8-0.8c1.2,0.3,1.4,0.6,0.9,1.8c-1.1,2.3-2.9,3.4-5.3,3.4c-2.5,0-4.3-1.3-5.2-3.7
		c-1.1-2.7-1.1-5.5,0.1-8.2c1.4-3.2,4.8-4.5,7.7-3.1c1.4,0.7,2.2,1.9,2.7,3.3c0.4,1.1,0.6,2.2,0.6,3.4c0,0.8-0.3,1.1-1.1,1.1
		C128.5,102.5,127.3,102.5,126.2,102.5C126.2,102.5,126.2,102.5,126.2,102.5z M122.1,100.1c1.5,0,2.9,0,4.3,0c1.4,0,1.4,0,1-1.3
		c-0.1-0.3-0.2-0.5-0.3-0.8c-0.9-1.6-2.7-1.8-4-0.4C122.5,98.3,122.3,99.1,122.1,100.1z"/>
	<path class="st1" d="M165.4,102.9c-1.2,0-2.4,0-3.5,0c-0.5,0-0.6,0.1-0.5,0.6c0.1,1.1,0.3,2.1,1,2.9c1.4,1.5,3.4,1.2,4.4-0.6
		c0.6-1,1.6-1.3,2.6-0.7c0.6,0.4,0.4,0.9,0.2,1.4c-0.9,2.1-2.5,3.3-4.9,3.5c-2.5,0.2-4.4-0.8-5.5-3.1c-1.6-3.3-1.5-6.6,0.4-9.8
		c1.1-1.8,2.9-2.7,5-2.6c2.3,0.1,3.8,1.3,4.7,3.4c0.5,1.2,0.7,2.5,0.8,3.8c0,0.8-0.3,1.2-1.1,1.2
		C167.8,102.9,166.6,102.9,165.4,102.9z M164.2,100.5c0.6,0,1.2,0,1.8,0c1.1,0,1.1,0,0.8-1.1c-0.1-0.2-0.1-0.5-0.3-0.7
		c-0.9-1.9-3-2.2-4.3-0.5c-0.4,0.5-0.6,1.1-0.8,1.7c-0.1,0.4,0,0.6,0.4,0.5C162.7,100.5,163.4,100.5,164.2,100.5z"/>
	<path class="st1" d="M214.2,102.9c-1.2,0-2.4,0-3.5,0c-0.5,0-0.7,0.2-0.6,0.7c0.1,0.7,0.2,1.4,0.5,2c0.5,1,1.3,1.7,2.4,1.8
		c1.2,0.1,2-0.6,2.5-1.6c0.6-1,1.7-1.3,2.6-0.6c0.5,0.4,0.4,0.9,0.2,1.4c-1.6,3.9-6.8,4.8-9.6,1.6c-2.6-3-2.3-9.3,0.5-12
		c2.6-2.5,6.7-1.9,8.5,1.2c0.8,1.4,1.1,3,1.2,4.7c0,0.7-0.4,1-1.1,1C216.6,102.9,215.4,102.9,214.2,102.9z M213,100.5
		c0.8,0,1.5,0,2.3,0c0.3,0,0.5-0.1,0.5-0.5c-0.2-1.5-1.1-2.8-2.4-2.9c-1.1-0.2-2.2,0.7-2.8,2.2c0,0.1-0.1,0.1-0.1,0.2
		c-0.4,1-0.3,1.1,0.7,1.1C211.7,100.5,212.4,100.5,213,100.5z"/>
	<path class="st1" d="M152.4,110c-2.9,0-5-1.3-5.7-3.4c-0.2-0.7-0.2-1.2,0.5-1.5c1.2-0.5,1.8-0.4,2.1,0.4c0.8,1.6,2.6,2.3,4.3,1.7
		c0.8-0.3,1.2-0.8,1.2-1.7c0-0.8-0.5-1.2-1.2-1.4c-1-0.3-2-0.5-3-0.7c-2.4-0.6-3.8-2.2-3.7-4.4c0.1-2.4,1.6-4,4.2-4.3
		c2.8-0.3,4.9,0.6,5.8,2.7c0.3,0.6,0.5,1.2-0.2,1.6c-1,0.6-1.9,0.4-2.3-0.3c-0.8-1.3-2.1-1.8-3.4-1.3c-0.7,0.3-1,0.8-1,1.6
		c0,0.8,0.5,1.2,1.1,1.3c1.1,0.3,2.2,0.5,3.3,0.7c2.3,0.6,3.5,2.2,3.5,4.4c0,2.2-1.4,3.9-3.7,4.4C153.5,110,152.9,110.1,152.4,110z"
		/>
	<path class="st1" d="M225.4,110.1c-2.3-0.1-4.3-0.8-5.4-3.1c-0.2-0.5-0.6-1.1,0-1.6c0.5-0.5,1.3-0.5,2-0.5c0.3,0,0.5,0.4,0.6,0.7
		c0.7,1.6,2.7,2.3,4.3,1.6c0.7-0.3,1.1-0.8,1.1-1.6c0-0.8-0.4-1.3-1.2-1.5c-1-0.3-2-0.5-3.1-0.7c-2.6-0.6-3.7-2.2-3.6-4.8
		c0.1-2.1,1.7-3.7,4.1-3.9c2.8-0.3,5,0.7,5.8,2.8c0.2,0.6,0.5,1.2-0.3,1.5c-1.1,0.5-1.8,0.4-2.3-0.3c-0.8-1.2-1.8-1.7-3-1.4
		c-0.8,0.2-1.4,0.6-1.4,1.6c0,0.9,0.5,1.3,1.3,1.5c1.1,0.2,2.2,0.4,3.3,0.7c2,0.6,3.2,2.1,3.3,4.1c0,2.3-1,3.9-3,4.6
		C227.1,109.9,226.3,110.1,225.4,110.1z"/>
	<path class="st1" d="M195,102.3c0-1.6,0.2-3.2,1-4.6c1.1-2.2,2.9-3.3,5-3.1c2.3,0.2,3.9,1.6,4.6,4c0,0.1,0.1,0.2,0.1,0.4
		c0.2,0.7,0.4,1.4-0.5,1.7c-1.2,0.4-1.9,0-2.2-1c0-0.1,0-0.3-0.1-0.4c-0.3-1.1-1.2-1.9-2.1-2c-0.9-0.1-1.8,0.6-2.2,1.8
		c-0.8,2.1-0.8,4.2-0.1,6.3c0.4,1.4,1.2,2.1,2.2,2.1c1,0,1.8-0.8,2.2-2.1c0.4-1.3,0.7-1.5,2.1-1.3c0.7,0.1,0.9,0.4,0.9,1.1
		c-0.2,2.4-2.1,4.5-4.3,4.9c-2.4,0.4-4.5-0.7-5.6-3.1C195.2,105.5,195,103.9,195,102.3z"/>
	<path class="st1" d="M184.6,104.8c0.6-2.2,1.2-4.2,1.8-6.2c0.3-0.9,0.5-1.8,0.8-2.8c0.3-1,1.5-1.4,2.4-0.9c0.4,0.2,0.5,0.5,0.3,1
		c-1.3,4.3-2.5,8.5-3.8,12.8c-0.2,0.6-0.5,0.9-1.2,0.9c-1.9,0-1.9,0-2.4-1.8c-1.2-3.9-2.4-7.7-3.6-11.6c-0.3-1.1-0.1-1.5,1.1-1.5
		c1.6,0,1.7,0,2.1,1.6C182.9,99.2,183.7,101.9,184.6,104.8z"/>
	<path class="st3" d="M63,63.5c-2,0.7-4,1.3-5.9,1.9c-1.1,0.3-2.2,0.6-3.2,1c-0.7,0.3-1.3,0.2-1.9,0c-2.8-0.9-5.7-1.8-8.5-2.7
		c-0.1,0-0.3-0.1-0.6-0.3c1.7-0.5,3.2-1,4.7-1.5c1.6-0.5,3.1-1,4.7-1.4c0.4-0.1,0.8-0.2,1.1-0.1c3.1,1,6.2,1.9,9.3,2.9
		C62.8,63.3,62.8,63.4,63,63.5z"/>
	<path class="st3" d="M76.7,86.1c-1.4,0.5-2.6,0.9-3.8,1.3c-1.7,0.5-3.3,1.1-5,1.6c-0.8,0.3-1.5,0.3-2.2,0c-2.8-0.9-5.6-1.8-8.4-2.7
		c-0.2-0.1-0.3-0.2-0.7-0.4c1.7-0.5,3.1-1,4.5-1.4c1.6-0.5,3.2-0.9,4.8-1.4c0.4-0.1,0.9-0.2,1.3-0.1c3,0.9,6,1.9,9.1,2.8
		C76.4,85.9,76.4,85.9,76.7,86.1z"/>
	<path class="st3" d="M90.6,63.5c-3.4,1.1-6.6,2.1-9.8,3.2c-0.4,0.1-0.7-0.1-1.1-0.2c-2.8-0.9-5.6-1.8-8.5-2.7
		c-0.2-0.1-0.4-0.1-0.5-0.3c0.2-0.3,0.5-0.3,0.8-0.4c2.8-0.9,5.6-1.7,8.4-2.6c0.4-0.1,0.8-0.1,1.1,0c2.9,0.9,5.7,1.8,8.6,2.7
		C89.9,63.2,90.2,63.3,90.6,63.5z"/>
	<path class="st3" d="M131.1,40.5c-2.6,0.9-5.2,1.6-7.7,2.6c-1.5,0.6-2.9,0.6-4.4,0c-2.5-0.9-5.1-1.7-7.7-2.5c0-0.4,0.2-0.4,0.4-0.4
		c3-0.8,5.9-1.6,8.9-2.3c0.3-0.1,0.7-0.1,0.9,0c3.1,0.8,6.2,1.6,9.3,2.5C130.9,40.2,130.9,40.3,131.1,40.5z"/>
	<path class="st3" d="M103.9,40.5c-1.8,0.6-3.6,1.2-5.4,1.8c-0.4,0.1-0.8,0.2-1.2,0.4c-2.3,1.2-4.5,0.8-6.8-0.1
		c-1.9-0.7-3.9-1.3-5.8-1.9c-0.2-0.1-0.3-0.2-0.6-0.3c0.7-0.4,1.4-0.5,2.1-0.7c2.3-0.6,4.6-1.2,6.8-1.8c0.6-0.2,1.2-0.2,1.9,0
		c2.8,0.8,5.6,1.5,8.4,2.2c0.2,0,0.4,0.1,0.5,0.2C103.9,40.3,103.9,40.4,103.9,40.5z"/>
	<path class="st1" d="M173.8,96.3c0.9-1.1,1.8-1.7,3.1-1.6c0.6,0,1.1,0.3,1,1c-0.1,0.7,0.4,1.7-0.8,2c-2.1,0.5-3.2,1.8-3.2,4
		c-0.1,2.3,0,4.6,0,6.9c0,0.5,0.1,1.1-0.4,1.3c-0.7,0.2-1.4,0.3-2.1,0c-0.3-0.1-0.3-0.5-0.3-0.8c0-4.2,0-8.5,0-12.7
		c0-0.6,0.2-1,0.9-1.1C173.2,95,173.5,95.1,173.8,96.3z"/>
	<path class="st0" d="M194.1,102.2c0,2.1,0,4.2,0,6.2c0,1-0.2,1.2-1.5,1.2c-1.2,0-1.5-0.2-1.5-1.2c0-4.1,0-8.2,0-12.4
		c0-1.1,0.2-1.3,1.5-1.3c1.2,0,1.4,0.2,1.4,1.3C194.1,98.1,194.1,100.1,194.1,102.2z"/>
	<path class="st1" d="M237.1,97.7c0.3-0.9,0.6-1.5,0.8-2.2c0.2-0.6,0.6-0.5,1-0.5c0.6,0,0.3,0.4,0.4,0.7c0,0.9,0,1.8,0,2.7
		c0,0.3,0,0.6-0.4,0.5c-0.4,0-0.3-0.3-0.3-0.5c0-0.6,0-1.2-0.1-1.9c-0.2,0.5-0.4,1.1-0.6,1.6c-0.1,0.3,0,0.7-0.6,0.8
		c-0.6,0-0.5-0.5-0.6-0.8c-0.2-0.5-0.4-1.1-0.8-1.6c0,0.6,0,1.2,0,1.8c0,0.3,0.1,0.6-0.4,0.6c-0.5,0-0.3-0.4-0.3-0.6
		c0-0.9,0-1.8,0-2.7c0-0.2-0.1-0.6,0.4-0.6c0.4,0,0.8-0.1,1,0.4C236.5,96.1,236.8,96.8,237.1,97.7z"/>
	<path class="st1" d="M194.3,91.5c0,0.9-0.8,1.6-1.7,1.6c-0.9,0-1.7-0.8-1.7-1.7c0-0.9,0.8-1.6,1.7-1.6
		C193.6,89.9,194.3,90.6,194.3,91.5z"/>
	<path class="st0" d="M232.7,95c0.4,0,0.8,0,1.2,0c0.2,0,0.5,0,0.5,0.3c0,0.3-0.2,0.3-0.4,0.3c-1-0.2-1,0.4-0.9,1.1c0,0.5,0,1,0,1.5
		c0,0.3,0.1,0.7-0.4,0.6c-0.6,0-0.4-0.4-0.4-0.7c0-0.6,0-1.2,0-1.8c0-0.5-0.1-0.9-0.7-0.8c-0.2,0-0.6,0.1-0.6-0.3
		c0-0.4,0.3-0.3,0.5-0.3C231.9,95,232.3,95,232.7,95z"/>
</g>
</svg>
