<?xml version="1.0" encoding="utf-8"?>
<!-- Generator: Adobe Illustrator 19.2.1, SVG Export Plug-In . SVG Version: 6.00 Build 0)  -->
<svg version="1.1" id="Layer_1" xmlns="http://www.w3.org/2000/svg" xmlns:xlink="http://www.w3.org/1999/xlink" x="0px" y="0px"
	 viewBox="0 0 280 150" style="enable-background:new 0 0 280 150;" xml:space="preserve">
<style type="text/css">
	.st0{fill:#242122;}
	.st1{fill:#262223;}
	.st2{fill:#F9BD17;}
	.st3{fill:#F8BE1A;}
	.st4{fill:#FFCF45;}
	.st5{fill:#D94638;}
	.st6{fill:#5C83C3;}
	.st7{fill:#625F5E;}
	.st8{fill:#EFEEEE;}
	.st9{fill:#FFFFFF;}
	.st10{fill:#0195C8;}
	.st11{fill:#0295C8;}
</style>
<path class="st4" d="M144.1,94.3c-0.2,0-0.5,0-0.7,0c-6.3,0-12.7,0-19,0c-2.5,0-4.2-1-5.4-3.2c-1-2-2.2-3.9-3.3-5.8
	c-4.1-7.2-8.2-14.3-12.3-21.5c-0.8-1.4-1.4-2.9-0.9-4.6c0.1-0.4,0.2-0.8,0.5-1.2c2-3.6,4.1-7.1,6.1-10.7c0.1-0.1,0.2-0.2,0.3-0.3
	c0.5,0.9,1.1,1.9,1.6,2.8c2,3.5,4,7,6.1,10.5c0,0.1,0.1,0.3,0.2,0.4c3.7,6.5,7.5,13,11.2,19.4c0.2,0.4,0.5,0.5,0.9,0.5
	c7.2,0,14.5,0,21.7,0c0.3,0,0.6,0,0.8,0c0,0.1-0.1,0.2-0.1,0.3c-1.8,3.2-3.7,6.4-5.5,9.5C145.4,91.9,144.6,93,144.1,94.3z"/>
<path class="st5" d="M144.1,94.3c0.5-1.3,1.3-2.4,2-3.6c1.8-3.2,3.6-6.4,5.5-9.5c0.1-0.1,0.1-0.2,0.1-0.3c0.2,0,0.3-0.2,0.4-0.4
	c3.7-6.5,7.5-13,11.2-19.5c0.2-0.3,0.2-0.5,0-0.8c-2.2-3.8-4.4-7.5-6.5-11.3c-1.6-2.8-3.2-5.6-4.8-8.4c0.2,0,0.5,0,0.7,0
	c4.9,0,9.8,0,14.6,0c1.7,3,3.5,6,5.2,9c1.6,2.8,3.2,5.6,4.8,8.3c1.1,2,1.1,3.9,0,5.8c-5.4,9.3-10.7,18.6-16,27.9
	c-1.1,1.8-2.6,2.9-4.7,2.9C152.3,94.3,148.2,94.3,144.1,94.3z"/>
<path class="st6" d="M167.2,40.3c-4.9,0-9.8,0-14.6,0c-0.2,0-0.5,0-0.7,0c-0.3-0.1-0.6-0.1-0.8-0.1c-7.3,0-14.5,0-21.8,0
	c-0.7,0-1,0.2-1.3,0.8c-1.9,3.3-3.8,6.5-5.6,9.8c-1.2,2.1-2.4,4.3-3.7,6.4c-0.6,1.1-1.3,2.1-1.9,3.2c-2-3.5-4-7-6.1-10.5
	c-0.5-0.9-1.1-1.9-1.6-2.8c0.6-1.4,1.4-2.6,2.1-3.9c2.6-4.6,5.3-9.2,7.9-13.8c1-1.8,2.6-2.7,4.7-2.7c10.9,0,21.7,0,32.6,0
	c2.1,0,3.6,0.9,4.6,2.7c1.9,3.4,3.9,6.7,5.8,10.1C167,39.9,167.1,40.1,167.2,40.3z"/>
<path class="st7" d="M63.5,113.5c1,0,2,0,3,0c0.3,0,0.5,0,0.5,0.4c0.2,2.8-0.5,5.6-3.8,7.1c-4.9,2.2-10.6-1.5-10.6-6.8
	c0-3.1,1.5-5.4,4.3-6.7c2.7-1.3,5.4-1,7.8,0.9c0.4,0.3,0.5,0.5,0.1,0.8c-0.4,0.3-0.6,0.8-1,0.9c-0.4,0.1-0.7-0.4-1.1-0.6
	c-1.9-1-4.3-0.8-5.9,0.5c-1.8,1.5-2.4,3.9-1.6,6c0.7,2,2.7,3.4,4.9,3.4c2.5,0,4.3-1.3,4.8-3.4c0.1-0.5,0-0.5-0.5-0.5
	c-1.2,0-2.5,0-3.7,0c-0.4,0-0.6-0.1-0.6-0.5c0-1.5,0-1.5,1.5-1.5C62.2,113.5,62.9,113.5,63.5,113.5z"/>
<path class="st7" d="M95.7,112.9c-0.1-0.6,0.2-0.7,0.6-0.6c1.4,0,1.4,0,1.4,1.4c0,2.5,0,5.1,0,7.6c0,2.3-1.2,3.9-3.2,4.4
	c-2.1,0.6-4.3-0.3-5.3-2.1c-0.2-0.4-0.3-0.7,0.2-0.8c0.1,0,0.2-0.1,0.3-0.1c0.6-0.4,1.1-0.4,1.5,0.3c0.7,1,2,1.2,3.1,0.7
	c1-0.5,1.5-1.7,1.2-2.9c-2.6,1.3-4.6,1-6.1-1c-1.4-1.8-1.3-4.5,0.2-6.1C91.4,111.8,93.4,111.6,95.7,112.9z M93.3,113.9
	c-1.2,0-2.2,0.9-2.5,2.2c-0.3,1.4,0.3,2.7,1.5,3.3c0.4,0.2,0.8,0.4,1.3,0.2c1.6-0.4,2.2-1.4,2.2-2.8C95.8,115.1,94.7,114,93.3,113.9
	z"/>
<path class="st7" d="M215.9,113.5c1.6-1.8,4.2-1.9,5.5,0.2c0.8-1,1.7-1.6,3-1.6c1.6,0,2.8,0.8,3.1,2.4c0.4,2.1,0.1,4.3,0.2,6.5
	c0,0.2-0.1,0.3-0.3,0.3c0,0-0.1,0-0.1,0c-1.3,0.1-1.3,0.1-1.3-1.2c0-1.3,0-2.6,0-3.9c0-1.7-0.5-2.4-1.8-2.5c-1.2,0-2.3,1.1-2.3,2.5
	c0,1.5,0,2.9,0,4.4c0,0.5-0.1,0.8-0.7,0.7c-0.2,0-0.4,0-0.6,0c-0.4,0.1-0.5-0.1-0.5-0.5c0-1.4,0-2.8,0-4.2c0-0.4,0-0.8-0.1-1.3
	c-0.1-0.7-0.4-1.3-1.1-1.5c-0.8-0.3-1.5-0.1-2.1,0.5c-0.6,0.6-0.9,1.3-0.9,2.2c0,1.4,0,2.8,0,4.2c0,0.5-0.1,0.7-0.6,0.6
	c-0.2,0-0.3,0-0.5,0c-0.5,0.1-0.6-0.1-0.6-0.6c0-2.6,0-5.1,0-7.7c0-0.5,0.1-0.6,0.6-0.6C215.8,112.4,215.8,112.4,215.9,113.5z"/>
<path class="st7" d="M157.7,120.2c-1.2,1.3-2.6,1.6-4.2,1.2c-1.9-0.6-3.1-2.6-3-4.8c0.1-2.2,1.5-4,3.5-4.4c1.4-0.3,2.6,0.1,3.7,1.2
	c0.2-0.4,0.1-0.8,0.1-1.2c0-1.1,0-2.2,0-3.4c0-0.4,0.1-0.6,0.5-0.6c1.2,0,1.2,0,1.2,1.1c0,3.7,0,7.3,0,11c0,0.4,0.2,0.9-0.6,0.8
	c-0.5-0.1-1.2,0.3-1.1-0.7C157.8,120.5,157.7,120.4,157.7,120.2z M157.8,116.9c0-0.2,0-0.5-0.1-0.8c-0.3-2-2.5-3.1-4.1-2
	c-1.7,1.1-1.8,4-0.3,5.3c0.9,0.7,1.8,0.8,2.8,0.4C157.3,119.2,157.7,118.2,157.8,116.9z"/>
<path class="st7" d="M121.2,121.6c-2.2,0-4.6-1.6-5.6-4c-1.1-2.6-0.5-5.7,1.4-7.6c1.9-1.9,4.8-2.4,7.4-1.4c0.7,0.3,1.3,0.7,1.8,1.2
	c0.3,0.3,0.4,0.5,0,0.8c-0.1,0.1-0.2,0.2-0.3,0.3c-0.3,0.4-0.6,0.5-1,0c-1.5-1.3-3.2-1.5-5-0.8c-1.9,0.7-2.8,2.2-3.1,4.1
	c-0.3,3.2,1.6,5.5,4.7,5.8c1.5,0.1,2.7-0.4,3.7-1.4c0.3-0.3,0.5-0.4,0.9,0c0.8,0.9,0.8,0.8-0.1,1.6
	C124.8,121.1,123.4,121.6,121.2,121.6z"/>
<path class="st7" d="M106.9,121.6c-2.5,0-4.5-1.8-4.7-4.3c-0.2-2.8,1.4-4.9,3.9-5.3c2-0.3,4.2,1.2,4.7,3.3c0.1,0.4-0.2,0.5-0.4,0.6
	c-1.7,0.7-3.4,1.5-5.2,2.1c-0.7,0.2-0.6,0.5-0.2,0.9c1,1.1,2.7,1,3.8-0.1c0.3-0.4,0.6-0.4,0.9-0.1c0,0,0,0,0.1,0
	c1.2,0.8,1.2,0.9,0.1,1.8C109,121.2,108.1,121.6,106.9,121.6z M104.3,116.6c1.2-0.5,2.4-1,3.6-1.5c0.2-0.1,0.5-0.1,0.5-0.3
	c0-0.2-0.2-0.4-0.4-0.5c-0.3-0.2-0.6-0.3-1-0.3C105.5,113.8,104.4,114.9,104.3,116.6z"/>
<path class="st7" d="M77.3,116.8c0,2.7-2.1,4.8-4.8,4.8c-2.7,0-4.8-2.1-4.8-4.7c0-2.8,2.1-4.9,4.8-4.9
	C75.3,112,77.3,114.1,77.3,116.8z M72.6,119.6c1.5,0,2.6-1.2,2.6-2.8c0-1.6-1.2-2.9-2.7-2.9c-1.5,0-2.7,1.3-2.7,2.9
	C69.9,118.4,71,119.6,72.6,119.6z"/>
<path class="st7" d="M87.7,116.8c0,2.7-2.1,4.8-4.8,4.8c-2.7,0-4.8-2.1-4.8-4.8c0-2.7,2-4.8,4.8-4.8C85.6,112,87.7,114.1,87.7,116.8
	z M82.9,119.6c1.5,0,2.7-1.3,2.7-2.8c0-1.6-1.2-2.8-2.6-2.8c-1.5,0-2.7,1.2-2.7,2.8C80.3,118.4,81.4,119.6,82.9,119.6z"/>
<path class="st7" d="M163.9,114.7c0-1.9,0-3.9,0-5.8c0-0.4,0.1-0.6,0.5-0.6c1.3,0,2.7,0,4,0c2.2,0,3.9,1.8,3.9,3.9
	c0,2.1-1.7,3.8-4,3.8c-0.7,0-1.5,0-2.2,0c-0.5,0-0.5,0.1-0.5,0.6c0,1.4,0,2.7,0,4.1c0,0.4-0.1,0.6-0.6,0.6c-1.1,0-1.1,0-1.1-1.1
	C163.9,118.3,163.9,116.5,163.9,114.7z M165.6,112.2c0,0.6,0,1.2,0,1.8c0,0.3,0,0.4,0.4,0.4c0.9,0,1.8,0,2.7,0c1.1-0.1,2-1.2,2-2.3
	c-0.1-1.1-1-2.1-2.1-2.1c-0.8,0-1.6,0-2.5,0c-0.4,0-0.5,0.2-0.4,0.5C165.6,111,165.6,111.6,165.6,112.2z"/>
<path class="st7" d="M182.7,120.2c-1.1,1.3-2.5,1.6-4,1.2c-1.3-0.3-2.2-1.4-2.2-2.6c-0.1-1.4,0.6-2.4,1.9-3c1.4-0.6,2.8-0.5,4.2,0
	c0.2-1.2-0.8-2.3-2.2-2.2c-0.7,0-1.3,0.2-1.7,0.8c-0.3,0.5-0.5,0.4-0.9,0.2c-1.1-0.5-1.1-0.6-0.3-1.4c1.1-1.2,3.1-1.5,4.7-0.8
	c1.4,0.6,2.2,1.8,2.2,3.6c0,1.5,0,3.1,0,4.6c0,0.5-0.1,0.7-0.6,0.6c-0.1,0-0.3,0-0.4,0c-0.5,0.1-0.7-0.1-0.6-0.6
	C182.8,120.5,182.8,120.4,182.7,120.2z M180.1,120c1.1,0,2.2-0.8,2.6-1.8c0.2-0.5,0.1-0.8-0.5-1c-0.8-0.3-1.6-0.4-2.5-0.1
	c-0.9,0.3-1.5,1-1.4,1.8C178.4,119.5,179.2,120,180.1,120z"/>
<path class="st7" d="M140.1,116.9c0,2.7-1.9,4.7-4.5,4.7c-2.7,0-4.6-2-4.6-4.8c0-2.7,2-4.7,4.6-4.7
	C138.3,112.1,140.1,114.1,140.1,116.9z M138.5,116.8c0-1.8-1.2-3.1-2.8-3.2c-1.6,0-2.9,1.4-2.9,3.2c0,1.8,1.3,3.2,2.9,3.2
	C137.2,120,138.5,118.6,138.5,116.8z"/>
<path class="st7" d="M202.1,121.6c-2.6,0-4.6-1.9-4.6-4.6c0-2.8,1.8-4.8,4.5-4.8c2.6,0,4.6,2,4.6,4.7
	C206.6,119.5,204.7,121.5,202.1,121.6z M199.2,116.8c0,1.8,1.2,3.2,2.8,3.2c1.6,0,2.9-1.3,2.9-3.1c0-1.8-1.2-3.2-2.9-3.2
	C200.5,113.7,199.2,115,199.2,116.8z"/>
<path class="st7" d="M147.6,120.1c-1,1.3-2.3,1.7-3.7,1.4c-1.4-0.3-2.4-1.4-2.5-2.9c-0.1-1.9,0-3.9-0.1-5.8c0-0.3,0.1-0.4,0.4-0.4
	c1.3-0.1,1.3-0.1,1.3,1.2c0,1.3,0,2.6,0,3.9c0,1.6,0.7,2.4,2,2.5c1.3,0.1,2.4-0.9,2.4-2.4c0.1-1.5,0.1-3,0-4.5
	c0-0.7,0.3-0.7,0.8-0.7c0.5,0,1-0.2,0.9,0.7c-0.1,2.5,0,5,0,7.5c0,0.5-0.1,0.8-0.6,0.7c-0.1,0-0.3,0-0.4,0c-0.4,0.1-0.7-0.1-0.6-0.6
	C147.6,120.6,147.6,120.4,147.6,120.1z"/>
<path class="st7" d="M193.1,117.7c0-1,0-2,0-3c0-0.6-0.2-0.8-0.7-0.7c0,0,0,0-0.1,0c-0.8,0-1.2-0.5-0.9-1.4c0.1-0.3,0.3-0.2,0.5-0.2
	c1.1,0,1.1,0,1.2-1.1c0-2.2,2-3.6,4.1-2.9c0.3,0.1,0.4,0.2,0.3,0.5c-0.1,0.3-0.2,0.5-0.3,0.8c-0.1,0.2-0.2,0.3-0.5,0.2
	c-1.5-0.1-2.3,0.8-1.9,2.3c0.1,0.2,0.2,0.2,0.4,0.2c0.3,0,0.6,0,0.9,0c1,0,1.3,0.4,1,1.3c0,0.1-0.1,0.2-0.2,0.2c-0.1,0-0.2,0-0.4,0
	c-0.5,0-1.2-0.2-1.6,0.1c-0.4,0.3-0.1,1.1-0.1,1.6c0,1.7,0,3.3,0,5c0,0.4-0.1,0.6-0.6,0.6c-1.1,0-1.1,0-1.1-1.1
	C193.1,119.3,193.1,118.5,193.1,117.7z"/>
<path class="st7" d="M101.2,114.3c0,2.1,0,4.3,0,6.4c0,0.5-0.1,0.6-0.6,0.6c-1.5,0-1.5,0-1.5-1.5c0-4,0-7.9,0-11.9
	c0-0.5,0.1-0.7,0.7-0.7c1.5,0,1.5,0,1.5,1.5C101.2,110.6,101.2,112.4,101.2,114.3z"/>
<path class="st7" d="M186.8,116.7c0-0.7,0-1.4,0-2.1c0-0.5-0.1-0.7-0.6-0.6c-0.9,0-1.2-0.5-0.9-1.3c0.1-0.4,0.4-0.2,0.6-0.2
	c0.7,0.1,1-0.2,0.9-0.9c0-0.3,0-0.7,0-1c-0.1-0.7,0.2-0.8,0.8-0.8c0.8,0,1,0.2,0.9,0.9c-0.1,0.6-0.2,1.3,0.1,1.6
	c0.3,0.4,1,0.1,1.6,0.1c0.4,0,0.5,0.1,0.5,0.5c0,1.1,0,1.1-1.1,1.1c-1.1,0-1.1,0-1.1,1.1c0,1.1,0,2.2,0,3.4c0,1.1,0.5,1.5,1.6,1.4
	c0.3-0.1,0.4,0.1,0.5,0.3c0.5,1.2,0.4,1.3-0.8,1.3c-1.9,0.1-2.9-0.9-3-2.8C186.8,118,186.8,117.3,186.8,116.7z"/>
<path class="st7" d="M128.2,114.8c0-1.9,0-3.7,0-5.6c0-0.8,0.2-1,0.9-0.8c0.1,0,0.1,0,0.2,0c0.5-0.1,0.6,0.1,0.6,0.6
	c0,3.9,0,7.8,0,11.7c0,0.4-0.1,0.7-0.6,0.6c-0.2,0-0.4,0-0.6,0c-0.5,0.1-0.6-0.1-0.6-0.6C128.2,118.7,128.2,116.8,128.2,114.8z"/>
<path class="st7" d="M173.5,114.8c0-1.9,0-3.9,0-5.8c0-0.5,0.1-0.7,0.6-0.6c1.1,0,1.1,0,1.1,1.2c0,3.7,0,7.4,0,11.1
	c0,0.5-0.1,0.8-0.7,0.7c-0.2,0-0.4,0-0.6,0c-0.4,0.1-0.5-0.1-0.5-0.5C173.5,118.8,173.5,116.8,173.5,114.8z"/>
<path class="st7" d="M209.7,113.5c0.8-1.1,1.9-1.5,3.2-1.3c0.4,0.1,0.6,0.2,0.3,0.6c-0.1,0.2-0.2,0.5-0.3,0.7
	c-0.1,0.3-0.3,0.4-0.6,0.4c-1.4-0.3-2.7,0.8-2.7,2.5c0,1.4,0,2.8,0,4.2c0,0.4-0.1,0.6-0.6,0.6c-1.1,0-1.1,0-1.1-1.1c0-2.3,0-4.7,0-7
	c0-0.4,0-0.8,0.6-0.7c0.5,0.1,1.2-0.3,1,0.7C209.5,113.2,209.5,113.4,209.7,113.5z"/>
<path class="st8" d="M116.8,60.4c0.6-1.1,1.3-2.1,1.9-3.2c1.2-2.1,2.4-4.3,3.7-6.4c1.9-3.3,3.8-6.5,5.6-9.8c0.3-0.5,0.6-0.8,1.3-0.8
	c7.3,0,14.5,0,21.8,0c0.3,0,0.6-0.1,0.8,0.1c1.6,2.8,3.2,5.6,4.8,8.4c2.2,3.8,4.3,7.6,6.5,11.3c0.2,0.3,0.1,0.5,0,0.8
	c-3.8,6.5-7.5,13-11.2,19.5c-0.1,0.2-0.2,0.4-0.4,0.4c-0.3,0-0.6,0-0.8,0c-7.2,0-14.5,0-21.7,0c-0.4,0-0.7-0.1-0.9-0.5
	c-3.7-6.5-7.5-13-11.2-19.4C116.9,60.7,116.9,60.6,116.8,60.4z M140,50.6c-5.5-0.1-9.8,4.4-10.1,9.6c-0.3,6.2,4.7,10.6,9.6,10.7
	c6.3,0.2,10.6-4.7,10.6-9.8C150.1,54.6,145.3,50.5,140,50.6z"/>
<path class="st9" d="M165.6,112.2c0-0.6,0-1.1,0-1.7c0-0.3,0-0.5,0.4-0.5c0.8,0,1.6,0,2.5,0c1.1,0,2.1,1,2.1,2.1
	c0.1,1.1-0.9,2.2-2,2.3c-0.9,0.1-1.8,0-2.7,0c-0.3,0-0.4-0.1-0.4-0.4C165.6,113.4,165.6,112.8,165.6,112.2z"/>
</svg>
