<?xml version="1.0" encoding="UTF-8"?>
<svg width="720px" height="200px" viewBox="0 0 720 200" version="1.1" xmlns="http://www.w3.org/2000/svg" xmlns:xlink="http://www.w3.org/1999/xlink">
    <!-- Generator: Sketch 43.2 (39069) - http://www.bohemiancoding.com/sketch -->
    <title>hayla-logo-white</title>
    <desc>Created with Sketch.</desc>
    <defs></defs>
    <g id="Page-1" stroke="none" stroke-width="1" fill="none" fill-rule="evenodd">
        <g id="hayla-logo-white" fill="#FFFFFF">
            <g id="google-cloud" transform="translate(7.000000, 9.000000)" fill-rule="nonzero">
                <path d="M109.919894,181.478607 L108.092753,181.478607 L58.4989282,181.478607 C51.973425,181.478607 47.5360828,178.868066 44.4038413,173.124875 C41.79364,167.903792 38.6613985,162.943763 35.7901771,157.983735 C25.0883518,139.187837 14.3865265,120.652993 3.68470124,101.857095 C1.59654021,98.2023372 0.0304194404,94.2865251 1.33552008,89.8486048 C1.59654021,88.8043882 1.85756034,87.7601717 2.64062073,86.7159551 C7.8610233,77.3180062 13.342446,68.1811114 18.5628486,58.7831624 C18.8238687,58.5221083 19.0848888,58.2610541 19.345909,58 C20.6510096,60.3494872 22.2171304,62.9600286 23.522231,65.3095158 C28.7426336,74.4464107 33.9630362,83.5833055 39.4444589,92.7202003 C39.4444589,92.9812544 39.705479,93.5033627 39.9664991,93.7644168 C49.6242439,110.732936 59.5430088,127.701455 69.2007535,144.408919 C69.7227938,145.453136 70.5058541,145.71419 71.5499347,145.71419 L128.191303,145.71419 L130.279464,145.71419 C130.279464,145.975244 130.018443,146.236298 130.018443,146.497353 C125.320081,154.851085 120.360699,163.204817 115.662336,171.297496 C113.313155,175.213308 111.224994,178.084903 109.919894,181.478607 Z" id="Shape"></path>
                <path d="M118,181.490578 C119.293211,178.127791 121.362349,175.282356 123.172844,172.178245 C127.828404,163.900616 132.483963,155.622987 137.398165,147.604034 C137.656808,147.345359 137.656808,147.086683 137.656808,146.828007 C138.174092,146.828007 138.432734,146.310655 138.691376,145.793303 C148.261138,128.979369 158.089542,112.165436 167.659303,95.3515018 C168.176588,94.5754741 168.176588,94.0581223 167.659303,93.2820946 C161.969175,83.4524102 156.279046,73.8814018 150.84756,64.0517174 C146.709285,56.8087921 142.571009,49.5658668 138.432734,42.3229415 L140.24323,42.3229415 L178.004992,42.3229415 C182.401909,50.0832186 187.057469,57.8434958 191.454386,65.6037729 C195.592661,72.8466982 199.730937,80.0896235 203.869212,87.0738729 C206.714276,92.247391 206.714276,97.1622331 203.869212,102.077075 C189.902533,126.133934 176.194496,150.190793 162.486459,174.247653 C159.641395,178.903819 155.761762,181.749254 150.330276,181.749254 C139.208661,181.490578 128.60433,181.490578 118,181.490578 Z" id="Shape"></path>
                <path d="M176.438703,36.0594022 L137.880957,36.0594022 L136.032298,36.0594022 C135.240015,35.7952736 134.447733,35.7952736 133.919544,35.7952736 L76.3470189,35.7952736 C74.4983599,35.7952736 73.7060774,36.3235307 72.913795,37.9083021 C67.896006,46.6245447 62.8782171,55.0766587 58.1245224,63.7929012 C54.9553925,69.339601 51.7862627,75.1504294 48.3530387,80.6971292 C46.7684738,83.6025434 44.9198147,86.243829 43.3352498,89.1492432 C38.0533667,79.9047435 32.7714837,70.6602439 27.2255065,61.4157442 C25.9050357,59.0385871 24.3204708,56.3973015 23,54.0201444 C24.5845649,50.3223445 26.6973181,47.1528018 28.5459772,43.7191305 C35.4124252,31.5692166 42.5429673,19.4193027 49.4094153,7.26938885 C52.0503569,2.51507473 56.2758633,0.137917664 61.8218405,0.137917664 L147.916534,0.137917664 C153.462512,0.137917664 157.423924,2.51507473 160.064866,7.26938885 C165.082654,16.24976 170.364537,24.9660025 175.382326,33.9463737 C175.910515,35.0028879 176.174609,35.531145 176.438703,36.0594022 Z" id="Shape"></path>
            </g>
            <path d="M94.72,77.04 C94.72,75.8133272 95.05333,74.86667 95.72,74.2 C96.38667,73.53333 97.253328,73.2 98.32,73.2 C99.386672,73.2 100.239997,73.53333 100.88,74.2 C101.520003,74.86667 101.84,75.8133272 101.84,77.04 L101.84,96.72 C101.84,97.0400016 101.999998,97.2 102.32,97.2 L125.92,97.2 C126.240002,97.2 126.4,97.0400016 126.4,96.72 L126.4,77.04 C126.4,75.8133272 126.73333,74.86667 127.4,74.2 C128.06667,73.53333 128.933328,73.2 130,73.2 C131.066672,73.2 131.919997,73.53333 132.56,74.2 C133.200003,74.86667 133.52,75.8133272 133.52,77.04 L133.52,124.56 C133.52,125.786673 133.200003,126.73333 132.56,127.4 C131.919997,128.06667 131.066672,128.4 130,128.4 C128.933328,128.4 128.06667,128.06667 127.4,127.4 C126.73333,126.73333 126.4,125.786673 126.4,124.56 L126.4,104.32 C126.4,103.999998 126.240002,103.84 125.92,103.84 L102.32,103.84 C101.999998,103.84 101.84,103.999998 101.84,104.32 L101.84,124.56 C101.84,125.786673 101.520003,126.73333 100.88,127.4 C100.239997,128.06667 99.386672,128.4 98.32,128.4 C97.253328,128.4 96.38667,128.06667 95.72,127.4 C95.05333,126.73333 94.72,125.786673 94.72,124.56 L94.72,77.04 Z" id="H"></path>
            <path d="M254.12,42.34 C254.12,39.5799862 254.869992,37.4500075 256.37,35.95 C257.870007,34.4499925 259.819988,33.7 262.22,33.7 C264.620012,33.7 266.539993,34.4499925 267.98,35.95 C269.420007,37.4500075 270.14,39.5799862 270.14,42.34 L270.14,86.62 C270.14,87.3400036 270.499996,87.7 271.22,87.7 L324.32,87.7 C325.040004,87.7 325.4,87.3400036 325.4,86.62 L325.4,42.34 C325.4,39.5799862 326.149992,37.4500075 327.65,35.95 C329.150008,34.4499925 331.099988,33.7 333.5,33.7 C335.900012,33.7 337.819993,34.4499925 339.26,35.95 C340.700007,37.4500075 341.42,39.5799862 341.42,42.34 L341.42,149.26 C341.42,152.020014 340.700007,154.149992 339.26,155.65 C337.819993,157.150008 335.900012,157.9 333.5,157.9 C331.099988,157.9 329.150008,157.150008 327.65,155.65 C326.149992,154.149992 325.4,152.020014 325.4,149.26 L325.4,103.72 C325.4,102.999996 325.040004,102.64 324.32,102.64 L271.22,102.64 C270.499996,102.64 270.14,102.999996 270.14,103.72 L270.14,149.26 C270.14,152.020014 269.420007,154.149992 267.98,155.65 C266.539993,157.150008 264.620012,157.9 262.22,157.9 C259.819988,157.9 257.870007,157.150008 256.37,155.65 C254.869992,154.149992 254.12,152.020014 254.12,149.26 L254.12,42.34 Z M444.6,146.38 C445.440005,147.820007 445.86,149.259993 445.86,150.7 C445.86,152.74001 445.140008,154.449993 443.7,155.83 C442.259993,157.210007 440.400012,157.9 438.12,157.9 C435.479987,157.9 433.260009,156.640013 431.46,154.12 L428.04,148.72 L427.86,148.72 C424.979986,151.960016 421.440021,154.479991 417.24,156.28 C413.039979,158.080009 407.760032,158.98 401.4,158.98 C391.679952,158.98 384.180027,156.730022 378.9,152.23 C373.619974,147.729978 370.98,141.340041 370.98,133.06 C370.98,124.059955 373.889971,117.370022 379.71,112.99 C385.53003,108.609978 393.839946,106.42 404.64,106.42 L424.26,106.42 C424.980004,106.42 425.34,106.060004 425.34,105.34 L425.34,101.2 C425.34,95.0799694 423.780016,90.4000162 420.66,87.16 C417.539985,83.9199838 412.200038,82.3 404.64,82.3 C401.279984,82.3 398.010016,82.7499955 394.83,83.65 C391.649985,84.5500045 389.040011,85.5399946 387,86.62 C385.319992,87.4600042 383.880006,87.88 382.68,87.88 C380.63999,87.88 379.050006,87.3100057 377.91,86.17 C376.769995,85.0299943 376.2,83.4400102 376.2,81.4 C376.2,80.199994 376.469998,79.0600054 377.01,77.98 C377.550003,76.8999946 378.479994,76.0000036 379.8,75.28 C382.560014,73.479991 386.129979,71.9500063 390.51,70.69 C394.890022,69.4299937 400.07997,68.8 406.08,68.8 C417.720059,68.8 426.269973,71.499973 431.73,76.9 C437.190028,82.300027 439.92,90.3399466 439.92,101.02 L439.92,131.98 C439.92,134.260011 440.039999,135.969994 440.28,137.11 C440.520002,138.250006 440.939997,139.479993 441.54,140.8 L444.6,146.38 Z M403.56,146.02 C410.280034,146.02 415.589981,144.550015 419.49,141.61 C423.39002,138.669985 425.34,134.500027 425.34,129.1 L425.34,119.56 C425.34,118.839996 424.980004,118.48 424.26,118.48 L406.98,118.48 C399.539963,118.48 394.110018,119.589989 390.69,121.81 C387.269983,124.030011 385.56,127.599975 385.56,132.52 C385.56,137.080023 387.119985,140.469989 390.24,142.69 C393.360016,144.910011 397.799972,146.02 403.56,146.02 Z M476.140001,189.4 C473.739989,189.4 471.910007,188.740007 470.650001,187.42 C469.389995,186.099993 468.760001,184.42001 468.760001,182.38 C468.760001,180.33999 469.389995,178.660007 470.650001,177.34 C471.910007,176.019993 473.739989,175.36 476.140001,175.36 C479.620018,175.36 482.49999,174.490009 484.780001,172.75 C487.060012,171.009991 489.159991,167.560026 491.080001,162.4 L493.960001,154.48 L464.620001,80.5 C464.38,79.899997 464.200002,79.300003 464.080001,78.7 C463.96,78.099997 463.900001,77.500003 463.900001,76.9 C463.900001,74.8599898 464.619994,73.1800066 466.060001,71.86 C467.500008,70.5399934 469.29999,69.88 471.460001,69.88 C474.940018,69.88 477.339994,71.679982 478.660001,75.28 L501.160001,134.86 L501.520001,134.86 L523.120001,75.28 C524.320007,71.679982 526.659984,69.88 530.140001,69.88 C532.420012,69.88 534.219994,70.5399934 535.540001,71.86 C536.860008,73.1800066 537.520001,74.8599898 537.520001,76.9 C537.520001,77.500003 537.460002,78.099997 537.340001,78.7 C537.22,79.300003 537.040002,79.899997 536.800001,80.5 L504.400001,165.46 C502.479991,170.380025 500.59001,174.369985 498.730001,177.43 C496.869992,180.490015 494.890011,182.919991 492.790001,184.72 C490.68999,186.520009 488.410013,187.749997 485.950001,188.41 C483.489989,189.070003 480.700017,189.4 477.580001,189.4 L476.140001,189.4 Z M583.100001,157.9 C575.299962,157.9 569.840017,156.010019 566.720001,152.23 C563.599986,148.449981 562.040001,142.660039 562.040001,134.86 L562.040001,41.8 C562.040001,39.2799874 562.759994,37.3000072 564.200001,35.86 C565.640009,34.4199928 567.439991,33.7 569.600001,33.7 C571.760012,33.7 573.559994,34.4199928 575.000001,35.86 C576.440009,37.3000072 577.160001,39.2799874 577.160001,41.8 L577.160001,133.96 C577.160001,137.560018 577.789995,140.109992 579.050001,141.61 C580.310008,143.110007 582.439986,143.86 585.440001,143.86 C587.600012,143.86 589.309995,144.519993 590.570001,145.84 C591.830008,147.160007 592.460001,148.83999 592.460001,150.88 C592.460001,152.92001 591.800008,154.599993 590.480001,155.92 C589.159995,157.240007 587.240014,157.9 584.720001,157.9 L583.100001,157.9 Z M685.920002,146.38 C686.760006,147.820007 687.180002,149.259993 687.180002,150.7 C687.180002,152.74001 686.460009,154.449993 685.020002,155.83 C683.579995,157.210007 681.720013,157.9 679.440002,157.9 C676.799989,157.9 674.580011,156.640013 672.780002,154.12 L669.360002,148.72 L669.180002,148.72 C666.299988,151.960016 662.760023,154.479991 658.560002,156.28 C654.359981,158.080009 649.080034,158.98 642.720002,158.98 C632.999953,158.98 625.500028,156.730022 620.220002,152.23 C614.939976,147.729978 612.300002,141.340041 612.300002,133.06 C612.300002,124.059955 615.209973,117.370022 621.030002,112.99 C626.850031,108.609978 635.159948,106.42 645.960002,106.42 L665.580002,106.42 C666.300006,106.42 666.660002,106.060004 666.660002,105.34 L666.660002,101.2 C666.660002,95.0799694 665.100018,90.4000162 661.980002,87.16 C658.859986,83.9199838 653.52004,82.3 645.960002,82.3 C642.599985,82.3 639.330018,82.7499955 636.150002,83.65 C632.969986,84.5500045 630.360012,85.5399946 628.320002,86.62 C626.639994,87.4600042 625.200008,87.88 624.000002,87.88 C621.959992,87.88 620.370008,87.3100057 619.230002,86.17 C618.089996,85.0299943 617.520002,83.4400102 617.520002,81.4 C617.520002,80.199994 617.789999,79.0600054 618.330002,77.98 C618.870005,76.8999946 619.799995,76.0000036 621.120002,75.28 C623.880016,73.479991 627.44998,71.9500063 631.830002,70.69 C636.210024,69.4299937 641.399972,68.8 647.400002,68.8 C659.04006,68.8 667.589975,71.499973 673.050002,76.9 C678.510029,82.300027 681.240002,90.3399466 681.240002,101.02 L681.240002,131.98 C681.240002,134.260011 681.360001,135.969994 681.600002,137.11 C681.840003,138.250006 682.259999,139.479993 682.860002,140.8 L685.920002,146.38 Z M644.880002,146.02 C651.600036,146.02 656.909982,144.550015 660.810002,141.61 C664.710021,138.669985 666.660002,134.500027 666.660002,129.1 L666.660002,119.56 C666.660002,118.839996 666.300006,118.48 665.580002,118.48 L648.300002,118.48 C640.859965,118.48 635.430019,119.589989 632.010002,121.81 C628.589985,124.030011 626.880002,127.599975 626.880002,132.52 C626.880002,137.080023 628.439986,140.469989 631.560002,142.69 C634.680018,144.910011 639.119973,146.02 644.880002,146.02 Z" id="Hayla"></path>
        </g>
    </g>
</svg>