<?xml version="1.0" encoding="UTF-8"?>
<svg width="720px" height="400px" viewBox="0 0 720 400" version="1.1" xmlns="http://www.w3.org/2000/svg" xmlns:xlink="http://www.w3.org/1999/xlink">
    <!-- Generator: Sketch 43.2 (39069) - http://www.bohemiancoding.com/sketch -->
    <title>partners-logo-1</title>
    <desc>Created with Sketch.</desc>
    <defs>
        <linearGradient x1="50%" y1="0%" x2="50%" y2="98.9237883%" id="linearGradient-1">
            <stop stop-color="#FA0202" offset="0%"></stop>
            <stop stop-color="#3D0303" offset="100%"></stop>
        </linearGradient>
        <linearGradient x1="50%" y1="0%" x2="50%" y2="100%" id="linearGradient-2">
            <stop stop-color="#FBDA61" offset="0%"></stop>
            <stop stop-color="#F76B1C" offset="100%"></stop>
        </linearGradient>
        <linearGradient x1="50%" y1="0%" x2="50%" y2="97.9711416%" id="linearGradient-3">
            <stop stop-color="#6C05F6" offset="0%"></stop>
            <stop stop-color="#100125" offset="100%"></stop>
        </linearGradient>
    </defs>
    <g id="Page-1" stroke="none" stroke-width="1" fill="none" fill-rule="evenodd">
        <g id="partners-logo-1">
            <g id="Group" transform="translate(208.000000, 22.000000)" fill-rule="nonzero">
                <g id="google-cloud">
                    <path d="M161.493952,268.22937 L158.791915,268.22937 L85.4509222,268.22937 C75.8007916,268.22937 69.2387028,264.370932 64.6066401,255.88237 C60.7465878,248.165495 56.1145251,240.834463 51.8684677,233.503432 C36.0422534,205.722682 20.2160392,178.327775 4.38982498,150.547025 C1.30178318,145.145213 -1.01424817,139.357556 0.915777953,132.798213 C1.30178318,131.254838 1.6877884,129.711463 2.84580408,128.168087 C10.5659086,114.277712 18.6720183,100.773181 26.3921228,86.882806 C26.778128,86.4969622 27.1641333,86.1111185 27.5501385,85.7252747 C29.4801646,89.1978685 31.796196,93.056306 33.7262221,96.5288998 C41.4463266,110.033431 49.1664311,123.537962 57.2725408,137.042494 C57.2725408,137.428338 57.658546,138.200025 58.0445513,138.585869 C72.3267446,163.665713 86.9949431,188.745557 101.277136,213.439557 C102.049147,214.982932 103.207163,215.368776 104.751183,215.368776 L188.514317,215.368776 L191.602359,215.368776 C191.602359,215.754619 191.216354,216.140463 191.216354,216.526307 C184.26826,228.873307 176.934161,241.220307 169.986067,253.181463 C166.512019,258.96912 163.423978,263.213401 161.493952,268.22937 Z" id="Shape" fill="url(#linearGradient-1)"></path>
                    <path d="M173.443081,268.247063 C175.355524,263.27679 178.415434,259.071175 181.092854,254.483231 C187.977651,242.248713 194.862447,230.014196 202.129731,218.162007 C202.51222,217.779678 202.51222,217.39735 202.51222,217.015021 C203.277197,217.015021 203.659686,216.250364 204.042175,215.485706 C218.194256,190.634343 232.728825,165.782979 246.880906,140.931615 C247.645884,139.784629 247.645884,139.019972 246.880906,137.872986 C238.466155,123.344496 230.051405,109.198336 222.019142,94.6698461 C215.899324,83.9646433 209.779505,73.2594405 203.659686,62.5542377 L206.337107,62.5542377 L262.180453,62.5542377 C268.682761,74.0240979 275.567557,85.493958 282.069864,96.9638181 C288.189683,107.669021 294.309502,118.374224 300.42932,128.697098 C304.636696,136.343671 304.636696,143.607916 300.42932,150.872161 C279.774932,186.428727 259.503032,221.985294 239.231133,257.54186 C235.023757,264.423776 229.286427,268.629392 221.254165,268.629392 C204.807152,268.247063 189.125117,268.247063 173.443081,268.247063 Z" id="Shape" fill="url(#linearGradient-2)"></path>
                    <path d="M259.864174,53.2965889 L202.843699,53.2965889 L200.109841,53.2965889 C198.938187,52.9062011 197.766534,52.9062011 196.985431,52.9062011 L111.845271,52.9062011 C109.111413,52.9062011 107.939759,53.6869767 106.768105,56.0293037 C99.3476326,68.9121017 91.9271599,81.404512 84.8972384,94.2873101 C80.2106241,102.485454 75.5240098,111.073986 70.4468442,119.272131 C68.1035371,123.566397 65.3696787,127.470275 63.0263715,131.764541 C55.2153476,118.100967 47.4043237,104.437393 39.2027487,90.7738197 C37.2499927,87.2603293 34.9066855,83.3564511 32.9539295,79.8429607 C35.2972367,74.3775312 38.4216463,69.6928774 41.1555046,64.6178357 C51.3098357,46.659996 61.8547179,28.7021562 72.009049,10.7443165 C75.914561,3.71733572 82.1633801,0.203845339 90.3649552,0.203845339 L217.684645,0.203845339 C225.88622,0.203845339 231.744488,3.71733572 235.65,10.7443165 C243.070472,24.0175024 250.881496,36.9003005 258.301969,50.1734864 C259.083071,51.7350376 259.473622,52.5158133 259.864174,53.2965889 Z" id="Shape" fill="url(#linearGradient-3)"></path>
                </g>
            </g>
            <path d="M383.65,118.45 C383.65,116.149989 384.274994,114.375006 385.525,113.125 C386.775006,111.874994 388.39999,111.25 390.4,111.25 C392.40001,111.25 393.999994,111.874994 395.2,113.125 C396.400006,114.375006 397,116.149989 397,118.45 L397,178.3 C397,184.500031 396.150009,189.949976 394.45,194.65 C392.749991,199.350024 390.325016,203.249985 387.175,206.35 C384.024984,209.450016 380.225022,211.774992 375.775,213.325 C371.324978,214.875008 366.350028,215.65 360.85,215.65 C355.449973,215.65 350.525022,214.875008 346.075,213.325 C341.624978,211.774992 337.825016,209.450016 334.675,206.35 C331.524984,203.249985 329.100009,199.350024 327.4,194.65 C325.699992,189.949976 324.85,184.500031 324.85,178.3 L324.85,118.45 C324.85,116.149989 325.474994,114.375006 326.725,113.125 C327.975006,111.874994 329.59999,111.25 331.6,111.25 C333.60001,111.25 335.199994,111.874994 336.4,113.125 C337.600006,114.375006 338.2,116.149989 338.2,118.45 L338.2,178.3 C338.2,186.600042 340.274979,192.824979 344.425,196.975 C348.575021,201.125021 354.099965,203.2 361,203.2 C367.800034,203.2 373.274979,201.125021 377.425,196.975 C381.575021,192.824979 383.65,186.600042 383.65,178.3 L383.65,118.45 Z" id="U" fill="#F6A623"></path>
            <path d="M61.23,382.77 C58.1499846,382.77 55.338346,382.315005 52.795,381.405 C50.251654,380.494995 48.1400084,379.456672 46.46,378.29 C45.4333282,377.54333 44.92,376.633339 44.92,375.56 C44.92,374.766663 45.1883306,374.078336 45.725,373.495 C46.2616693,372.911664 46.996662,372.62 47.93,372.62 C48.5833366,372.62 49.2366634,372.829998 49.89,373.25 C51.6166753,374.323339 53.4483236,375.209996 55.385,375.91 C57.3216764,376.610004 59.4333219,376.96 61.72,376.96 C65.0800168,376.96 67.693324,376.225007 69.56,374.755 C71.426676,373.284993 72.36,371.313346 72.36,368.84 C72.36,367.813328 72.2083348,366.891671 71.905,366.075 C71.6016652,365.258329 71.0650039,364.523337 70.295,363.87 C69.5249962,363.216663 68.4983398,362.656669 67.215,362.19 C65.9316602,361.723331 64.3333429,361.350001 62.42,361.07 L60.11,360.72 C55.3033093,359.97333 51.7566781,358.526677 49.47,356.38 C47.1833219,354.233323 46.04,351.270019 46.04,347.49 C46.04,345.38999 46.4016631,343.476675 47.125,341.75 C47.848337,340.023325 48.8866599,338.565006 50.24,337.375 C51.5933401,336.184994 53.2266571,335.263337 55.14,334.61 C57.0533429,333.956663 59.1999881,333.63 61.58,333.63 C64.1466795,333.63 66.5266557,333.944997 68.72,334.575 C70.9133443,335.205003 72.7333261,335.963329 74.18,336.85 C75.3000056,337.59667 75.86,338.506661 75.86,339.58 C75.86,340.373337 75.5916694,341.038331 75.055,341.575 C74.5183306,342.111669 73.8533373,342.38 73.06,342.38 C72.7333317,342.38 72.3950018,342.321667 72.045,342.205 C71.6949982,342.088333 71.3566683,341.960001 71.03,341.82 C69.5366592,341.166663 67.9966746,340.606669 66.41,340.14 C64.8233254,339.673331 63.1433422,339.44 61.37,339.44 C58.3366515,339.44 56.0733408,340.163326 54.58,341.61 C53.0866592,343.056674 52.34,344.899989 52.34,347.14 C52.34,348.120005 52.5033317,349.018329 52.83,349.835 C53.1566683,350.651671 53.7049961,351.374997 54.475,352.005 C55.2450039,352.635003 56.2599937,353.183331 57.52,353.65 C58.7800063,354.116669 60.343324,354.489999 62.21,354.77 L64.52,355.12 C69.3266907,355.86667 72.8849885,357.324989 75.195,359.495 C77.5050116,361.665011 78.66,364.663314 78.66,368.49 C78.66,370.543344 78.298337,372.444991 77.575,374.195 C76.851663,375.945009 75.7550073,377.449994 74.285,378.71 C72.8149927,379.970006 70.9950108,380.961663 68.825,381.685 C66.6549892,382.408337 64.1233478,382.77 61.23,382.77 Z M116.615555,377.87 C116.942224,378.430003 117.105555,378.989997 117.105555,379.55 C117.105555,380.343337 116.825558,381.008331 116.265555,381.545 C115.705553,382.081669 114.982227,382.35 114.095555,382.35 C113.068884,382.35 112.205559,381.860005 111.505555,380.88 L110.175555,378.78 L110.105555,378.78 C108.98555,380.040006 107.608897,381.019996 105.975555,381.72 C104.342214,382.420004 102.288901,382.77 99.8155555,382.77 C96.0355366,382.77 93.1188991,381.895009 91.0655555,380.145 C89.0122119,378.394991 87.9855555,375.910016 87.9855555,372.69 C87.9855555,369.189982 89.1172108,366.588342 91.3805555,364.885 C93.6439001,363.181658 96.8755345,362.33 101.075555,362.33 L108.705555,362.33 C108.985557,362.33 109.125555,362.190001 109.125555,361.91 L109.125555,360.3 C109.125555,357.919988 108.518895,356.100006 107.305555,354.84 C106.092216,353.579994 104.01557,352.95 101.075555,352.95 C99.7688823,352.95 98.4972283,353.124998 97.2605555,353.475 C96.0238826,353.825002 95.0088928,354.209998 94.2155555,354.63 C93.5622189,354.956668 93.0022245,355.12 92.5355555,355.12 C91.7422182,355.12 91.123891,354.898336 90.6805555,354.455 C90.2372199,354.011664 90.0155555,353.393337 90.0155555,352.6 C90.0155555,352.133331 90.1205544,351.690002 90.3305555,351.27 C90.5405565,350.849998 90.9022196,350.500001 91.4155555,350.22 C92.4888942,349.519996 93.8772136,348.925002 95.5805555,348.435 C97.2838973,347.944998 99.3022105,347.7 101.635555,347.7 C106.162245,347.7 109.487212,348.749989 111.610555,350.85 C113.733899,352.950011 114.795555,356.076646 114.795555,360.23 L114.795555,372.27 C114.795555,373.156671 114.842222,373.821664 114.935555,374.265 C115.028889,374.708336 115.192221,375.186664 115.425555,375.7 L116.615555,377.87 Z M100.655555,377.73 C103.268902,377.73 105.333881,377.158339 106.850555,376.015 C108.36723,374.871661 109.125555,373.250011 109.125555,371.15 L109.125555,367.44 C109.125555,367.159999 108.985557,367.02 108.705555,367.02 L101.985555,367.02 C99.0922077,367.02 96.9805621,367.451662 95.6505555,368.315 C94.3205488,369.178338 93.6555555,370.566657 93.6555555,372.48 C93.6555555,374.253342 94.2622161,375.571662 95.4755555,376.435 C96.6888949,377.298338 98.4155443,377.73 100.655555,377.73 Z M135.671111,382.35 C132.637762,382.35 130.51445,381.615007 129.301111,380.145 C128.087772,378.674993 127.481111,376.423348 127.481111,373.39 L127.481111,337.2 C127.481111,336.219995 127.761108,335.450003 128.321111,334.89 C128.881114,334.329997 129.581107,334.05 130.421111,334.05 C131.261115,334.05 131.961108,334.329997 132.521111,334.89 C133.081114,335.450003 133.361111,336.219995 133.361111,337.2 L133.361111,373.04 C133.361111,374.440007 133.606108,375.431664 134.096111,376.015 C134.586113,376.598336 135.414438,376.89 136.581111,376.89 C137.421115,376.89 138.086108,377.146664 138.576111,377.66 C139.066113,378.173336 139.311111,378.826663 139.311111,379.62 C139.311111,380.413337 139.054447,381.066664 138.541111,381.58 C138.027775,382.093336 137.281116,382.35 136.301111,382.35 L135.671111,382.35 Z M158.646666,382.35 C155.193316,382.35 152.766673,381.580008 151.366666,380.04 C149.966659,378.499992 149.266666,375.980018 149.266666,372.48 L149.266666,353.65 C149.266666,353.369999 149.126668,353.23 148.846666,353.23 L146.956666,353.23 C146.163329,353.23 145.545002,353.008336 145.101666,352.565 C144.658331,352.121664 144.436666,351.550004 144.436666,350.85 C144.436666,350.149996 144.658331,349.578336 145.101666,349.135 C145.545002,348.691664 146.163329,348.47 146.956666,348.47 L148.846666,348.47 C149.126668,348.47 149.266666,348.330001 149.266666,348.05 L149.266666,340.7 C149.266666,339.719995 149.546664,338.950003 150.106666,338.39 C150.666669,337.829997 151.366662,337.55 152.206666,337.55 C153.046671,337.55 153.746664,337.829997 154.306666,338.39 C154.866669,338.950003 155.146666,339.719995 155.146666,340.7 L155.146666,348.05 C155.146666,348.330001 155.286665,348.47 155.566666,348.47 L159.976666,348.47 C160.770004,348.47 161.388331,348.691664 161.831666,349.135 C162.275002,349.578336 162.496666,350.149996 162.496666,350.85 C162.496666,351.550004 162.275002,352.121664 161.831666,352.565 C161.388331,353.008336 160.770004,353.23 159.976666,353.23 L155.566666,353.23 C155.286665,353.23 155.146666,353.369999 155.146666,353.65 L155.146666,372.27 C155.146666,374.043342 155.449997,375.256663 156.056666,375.91 C156.663336,376.563337 157.853324,376.89 159.626666,376.89 C160.560004,376.89 161.271664,377.146664 161.761666,377.66 C162.251669,378.173336 162.496666,378.826663 162.496666,379.62 C162.496666,380.413337 162.240002,381.066664 161.726666,381.58 C161.21333,382.093336 160.420005,382.35 159.346666,382.35 L158.646666,382.35 Z M191.017777,337.41 C191.017777,336.336661 191.309441,335.508336 191.892777,334.925 C192.476114,334.341664 193.234439,334.05 194.167777,334.05 C195.101115,334.05 195.847775,334.341664 196.407777,334.925 C196.96778,335.508336 197.247777,336.336661 197.247777,337.41 L197.247777,354.63 C197.247777,354.910001 197.387776,355.05 197.667777,355.05 L218.317777,355.05 C218.597779,355.05 218.737777,354.910001 218.737777,354.63 L218.737777,337.41 C218.737777,336.336661 219.029441,335.508336 219.612777,334.925 C220.196114,334.341664 220.954439,334.05 221.887777,334.05 C222.821115,334.05 223.567775,334.341664 224.127777,334.925 C224.68778,335.508336 224.967777,336.336661 224.967777,337.41 L224.967777,378.99 C224.967777,380.063339 224.68778,380.891664 224.127777,381.475 C223.567775,382.058336 222.821115,382.35 221.887777,382.35 C220.954439,382.35 220.196114,382.058336 219.612777,381.475 C219.029441,380.891664 218.737777,380.063339 218.737777,378.99 L218.737777,361.28 C218.737777,360.999999 218.597779,360.86 218.317777,360.86 L197.667777,360.86 C197.387776,360.86 197.247777,360.999999 197.247777,361.28 L197.247777,378.99 C197.247777,380.063339 196.96778,380.891664 196.407777,381.475 C195.847775,382.058336 195.101115,382.35 194.167777,382.35 C193.234439,382.35 192.476114,382.058336 191.892777,381.475 C191.309441,380.891664 191.017777,380.063339 191.017777,378.99 L191.017777,337.41 Z M265.723333,334.4 C266.656671,334.4 267.40333,334.679997 267.963333,335.24 C268.523336,335.800003 268.803333,336.499996 268.803333,337.34 C268.803333,338.133337 268.523336,338.809997 267.963333,339.37 C267.40333,339.930003 266.656671,340.21 265.723333,340.21 L254.733333,340.21 C254.453331,340.21 254.313333,340.349999 254.313333,340.63 L254.313333,378.99 C254.313333,380.063339 254.033336,380.891664 253.473333,381.475 C252.91333,382.058336 252.166671,382.35 251.233333,382.35 C250.299995,382.35 249.541669,382.058336 248.958333,381.475 C248.374997,380.891664 248.083333,380.063339 248.083333,378.99 L248.083333,340.63 C248.083333,340.349999 247.943334,340.21 247.663333,340.21 L236.673333,340.21 C235.739995,340.21 234.993336,339.930003 234.433333,339.37 C233.87333,338.809997 233.593333,338.133337 233.593333,337.34 C233.593333,336.499996 233.87333,335.800003 234.433333,335.24 C234.993336,334.679997 235.739995,334.4 236.673333,334.4 L265.723333,334.4 Z M277.428888,337.9 C277.428888,336.686661 277.743885,335.74167 278.373888,335.065 C279.003891,334.38833 279.85555,334.05 280.928888,334.05 C281.862226,334.05 282.620552,334.329997 283.203888,334.89 C283.787224,335.450003 284.335552,336.289994 284.848888,337.41 L298.008888,367.16 L298.218888,367.16 L311.168888,337.41 C311.682224,336.289994 312.218885,335.450003 312.778888,334.89 C313.338891,334.329997 314.08555,334.05 315.018888,334.05 C316.092227,334.05 316.943885,334.38833 317.573888,335.065 C318.203891,335.74167 318.518888,336.686661 318.518888,337.9 L318.518888,379.2 C318.518888,380.180005 318.250558,380.949997 317.713888,381.51 C317.177219,382.070003 316.465559,382.35 315.578888,382.35 C314.692217,382.35 313.992224,382.070003 313.478888,381.51 C312.965552,380.949997 312.708888,380.180005 312.708888,379.2 L312.708888,348.19 L312.498888,348.19 L301.578888,372.34 C301.018885,373.553339 300.470558,374.369998 299.933888,374.79 C299.397219,375.210002 298.732226,375.42 297.938888,375.42 C297.145551,375.42 296.492224,375.210002 295.978888,374.79 C295.465552,374.369998 294.928891,373.553339 294.368888,372.34 L283.448888,348.19 L283.238888,348.19 L283.238888,379.2 C283.238888,380.180005 282.982224,380.949997 282.468888,381.51 C281.955552,382.070003 281.255559,382.35 280.368888,382.35 C279.482217,382.35 278.770558,382.070003 278.233888,381.51 C277.697219,380.949997 277.428888,380.180005 277.428888,379.2 L277.428888,337.9 Z M331.834444,337.41 C331.834444,336.336661 332.114441,335.508336 332.674444,334.925 C333.234447,334.341664 333.981106,334.05 334.914444,334.05 C335.847782,334.05 336.606107,334.341664 337.189444,334.925 C337.77278,335.508336 338.064444,336.336661 338.064444,337.41 L338.064444,375.77 C338.064444,376.050001 338.204442,376.19 338.484444,376.19 L359.134444,376.19 C360.067782,376.19 360.814441,376.469997 361.374444,377.03 C361.934447,377.590003 362.214444,378.266663 362.214444,379.06 C362.214444,379.900004 361.934447,380.599997 361.374444,381.16 C360.814441,381.720003 360.067782,382 359.134444,382 L334.844444,382 C333.911106,382 333.176113,381.720003 332.639444,381.16 C332.102774,380.599997 331.834444,379.853338 331.834444,378.92 L331.834444,337.41 Z M416.215555,334.4 C417.148893,334.4 417.895552,334.679997 418.455555,335.24 C419.015557,335.800003 419.295555,336.499996 419.295555,337.34 C419.295555,338.133337 419.015557,338.809997 418.455555,339.37 C417.895552,339.930003 417.148893,340.21 416.215555,340.21 L405.225555,340.21 C404.945553,340.21 404.805555,340.349999 404.805555,340.63 L404.805555,378.99 C404.805555,380.063339 404.525557,380.891664 403.965555,381.475 C403.405552,382.058336 402.658893,382.35 401.725555,382.35 C400.792217,382.35 400.033891,382.058336 399.450555,381.475 C398.867218,380.891664 398.575555,380.063339 398.575555,378.99 L398.575555,340.63 C398.575555,340.349999 398.435556,340.21 398.155555,340.21 L387.165555,340.21 C386.232217,340.21 385.485557,339.930003 384.925555,339.37 C384.365552,338.809997 384.085555,338.133337 384.085555,337.34 C384.085555,336.499996 384.365552,335.800003 384.925555,335.24 C385.485557,334.679997 386.232217,334.4 387.165555,334.4 L416.215555,334.4 Z M440.38111,382.77 C436.881093,382.77 433.987788,381.988341 431.70111,380.425 C429.414432,378.861659 427.804448,376.610015 426.87111,373.67 C426.497775,372.596661 426.217778,371.41834 426.03111,370.135 C425.844442,368.85166 425.75111,367.206677 425.75111,365.2 C425.75111,363.193323 425.832776,361.54834 425.99611,360.265 C426.159444,358.98166 426.427775,357.803339 426.80111,356.73 C427.734448,353.789985 429.344432,351.550008 431.63111,350.01 C433.917788,348.469992 436.671094,347.7 439.89111,347.7 C443.20446,347.7 445.992765,348.469992 448.25611,350.01 C450.519455,351.550008 452.117772,353.766652 453.05111,356.66 C453.79778,358.853344 454.17111,361.559984 454.17111,364.78 C454.17111,365.433337 453.961112,365.969998 453.54111,366.39 C453.121108,366.810002 452.561114,367.02 451.86111,367.02 L432.19111,367.02 C431.911109,367.02 431.77111,367.159999 431.77111,367.44 C431.77111,368.233337 431.80611,368.944997 431.87611,369.575 C431.94611,370.205003 432.097776,370.846663 432.33111,371.5 C432.984447,373.46001 434.034436,374.918329 435.48111,375.875 C436.927784,376.831671 438.7011,377.31 440.80111,377.31 C442.434452,377.31 443.869437,377.065002 445.10611,376.575 C446.342783,376.084998 447.591104,375.373338 448.85111,374.44 C449.551114,373.879997 450.227773,373.6 450.88111,373.6 C451.581114,373.6 452.164441,373.833331 452.63111,374.3 C453.097779,374.766669 453.33111,375.349996 453.33111,376.05 C453.33111,376.843337 453.02778,377.54333 452.42111,378.15 C450.974436,379.50334 449.259453,380.611662 447.27611,381.475 C445.292767,382.338338 442.994456,382.77 440.38111,382.77 Z M447.73111,362.33 C448.011111,362.33 448.15111,362.190001 448.15111,361.91 C448.15111,360.369992 447.987778,359.110005 447.66111,358.13 C447.101107,356.449992 446.156117,355.155005 444.82611,354.245 C443.496103,353.334995 441.874453,352.88 439.96111,352.88 C438.047767,352.88 436.426117,353.334995 435.09611,354.245 C433.766103,355.155005 432.821113,356.449992 432.26111,358.13 C431.934442,359.110005 431.77111,360.369992 431.77111,361.91 C431.77111,362.190001 431.911109,362.33 432.19111,362.33 L447.73111,362.33 Z M465.176666,351.27 C465.176666,350.289995 465.456663,349.520003 466.016666,348.96 C466.576668,348.399997 467.276661,348.12 468.116666,348.12 C468.95667,348.12 469.656663,348.399997 470.216666,348.96 C470.776668,349.520003 471.056666,350.289995 471.056666,351.27 L471.056666,352.25 L471.126666,352.25 C472.060004,350.89666 473.284991,349.800004 474.801666,348.96 C476.31834,348.119996 478.219987,347.7 480.506666,347.7 C482.840011,347.7 484.823324,348.166662 486.456666,349.1 C488.090007,350.033338 489.373328,351.316659 490.306666,352.95 L490.376666,352.95 C491.496671,351.363325 492.91999,350.091671 494.646666,349.135 C496.373341,348.178329 498.566652,347.7 501.226666,347.7 C505.006684,347.7 507.946655,348.808322 510.046666,351.025 C512.146676,353.241678 513.196666,356.333313 513.196666,360.3 L513.196666,379.2 C513.196666,380.180005 512.916668,380.949997 512.356666,381.51 C511.796663,382.070003 511.09667,382.35 510.256666,382.35 C509.416661,382.35 508.716668,382.070003 508.156666,381.51 C507.596663,380.949997 507.316666,380.180005 507.316666,379.2 L507.316666,361.7 C507.316666,358.99332 506.698338,356.893341 505.461666,355.4 C504.224993,353.906659 502.346678,353.16 499.826666,353.16 C497.539987,353.16 495.685006,353.894993 494.261666,355.365 C492.838325,356.835007 492.126666,358.829987 492.126666,361.35 L492.126666,379.2 C492.126666,380.180005 491.846668,380.949997 491.286666,381.51 C490.726663,382.070003 490.02667,382.35 489.186666,382.35 C488.346661,382.35 487.646668,382.070003 487.086666,381.51 C486.526663,380.949997 486.246666,380.180005 486.246666,379.2 L486.246666,361.7 C486.246666,358.99332 485.628338,356.893341 484.391666,355.4 C483.154993,353.906659 481.276678,353.16 478.756666,353.16 C476.469987,353.16 474.615006,353.894993 473.191666,355.365 C471.768325,356.835007 471.056666,358.829987 471.056666,361.35 L471.056666,379.2 C471.056666,380.180005 470.776668,380.949997 470.216666,381.51 C469.656663,382.070003 468.95667,382.35 468.116666,382.35 C467.276661,382.35 466.576668,382.070003 466.016666,381.51 C465.456663,380.949997 465.176666,380.180005 465.176666,379.2 L465.176666,351.27 Z M528.822221,394.95 C527.982217,394.95 527.282224,394.670003 526.722221,394.11 C526.162218,393.549997 525.882221,392.780005 525.882221,391.8 L525.882221,351.27 C525.882221,350.289995 526.162218,349.520003 526.722221,348.96 C527.282224,348.399997 527.982217,348.12 528.822221,348.12 C529.662225,348.12 530.362218,348.399997 530.922221,348.96 C531.482224,349.520003 531.762221,350.289995 531.762221,351.27 L531.762221,352.18 L531.832221,352.18 C532.625558,350.82666 533.780547,349.741671 535.297221,348.925 C536.813895,348.108329 538.832208,347.7 541.352221,347.7 C544.198902,347.7 546.613878,348.434993 548.597221,349.905 C550.580564,351.375007 552.01555,353.439987 552.902221,356.1 C553.322223,357.45334 553.625553,358.829993 553.812221,360.23 C553.998889,361.630007 554.092221,363.30999 554.092221,365.27 C554.092221,367.183343 553.998889,368.839993 553.812221,370.24 C553.625553,371.640007 553.322223,373.01666 552.902221,374.37 C552.01555,377.030013 550.580564,379.094993 548.597221,380.565 C546.613878,382.035007 544.198902,382.77 541.352221,382.77 C538.832208,382.77 536.813895,382.350004 535.297221,381.51 C533.780547,380.669996 532.625558,379.596673 531.832221,378.29 L531.762221,378.29 L531.762221,391.8 C531.762221,392.780005 531.482224,393.549997 530.922221,394.11 C530.362218,394.670003 529.662225,394.95 528.822221,394.95 Z M539.952221,377.31 C541.818897,377.31 543.370548,376.855005 544.607221,375.945 C545.843894,375.034995 546.742218,373.740008 547.302221,372.06 C547.628889,371.126662 547.838887,370.123339 547.932221,369.05 C548.025555,367.976661 548.072221,366.716674 548.072221,365.27 C548.072221,363.776659 548.025555,362.493339 547.932221,361.42 C547.838887,360.346661 547.628889,359.343338 547.302221,358.41 C546.742218,356.729992 545.843894,355.435005 544.607221,354.525 C543.370548,353.614995 541.818897,353.16 539.952221,353.16 C538.038878,353.16 536.463894,353.614995 535.227221,354.525 C533.990548,355.435005 533.092224,356.729992 532.532221,358.41 C532.205553,359.343338 531.995555,360.346661 531.902221,361.42 C531.808887,362.493339 531.762221,363.776659 531.762221,365.27 C531.762221,366.716674 531.808887,367.976661 531.902221,369.05 C531.995555,370.123339 532.205553,371.126662 532.532221,372.06 C533.092224,373.740008 533.990548,375.034995 535.227221,375.945 C536.463894,376.855005 538.038878,377.31 539.952221,377.31 Z M573.147776,382.35 C570.114428,382.35 567.991116,381.615007 566.777776,380.145 C565.564437,378.674993 564.957776,376.423348 564.957776,373.39 L564.957776,337.2 C564.957776,336.219995 565.237774,335.450003 565.797776,334.89 C566.357779,334.329997 567.057772,334.05 567.897776,334.05 C568.737781,334.05 569.437774,334.329997 569.997776,334.89 C570.557779,335.450003 570.837776,336.219995 570.837776,337.2 L570.837776,373.04 C570.837776,374.440007 571.082774,375.431664 571.572776,376.015 C572.062779,376.598336 572.891104,376.89 574.057776,376.89 C574.897781,376.89 575.562774,377.146664 576.052776,377.66 C576.542779,378.173336 576.787776,378.826663 576.787776,379.62 C576.787776,380.413337 576.531112,381.066664 576.017776,381.58 C575.504441,382.093336 574.757781,382.35 573.777776,382.35 L573.147776,382.35 Z M613.133332,377.87 C613.46,378.430003 613.623332,378.989997 613.623332,379.55 C613.623332,380.343337 613.343335,381.008331 612.783332,381.545 C612.223329,382.081669 611.500003,382.35 610.613332,382.35 C609.58666,382.35 608.723335,381.860005 608.023332,380.88 L606.693332,378.78 L606.623332,378.78 C605.503326,380.040006 604.126673,381.019996 602.493332,381.72 C600.85999,382.420004 598.806678,382.77 596.333332,382.77 C592.553313,382.77 589.636676,381.895009 587.583332,380.145 C585.529988,378.394991 584.503332,375.910016 584.503332,372.69 C584.503332,369.189982 585.634987,366.588342 587.898332,364.885 C590.161677,363.181658 593.393311,362.33 597.593332,362.33 L605.223332,362.33 C605.503333,362.33 605.643332,362.190001 605.643332,361.91 L605.643332,360.3 C605.643332,357.919988 605.036671,356.100006 603.823332,354.84 C602.609993,353.579994 600.533347,352.95 597.593332,352.95 C596.286659,352.95 595.015005,353.124998 593.778332,353.475 C592.541659,353.825002 591.526669,354.209998 590.733332,354.63 C590.079995,354.956668 589.520001,355.12 589.053332,355.12 C588.259995,355.12 587.641667,354.898336 587.198332,354.455 C586.754996,354.011664 586.533332,353.393337 586.533332,352.6 C586.533332,352.133331 586.638331,351.690002 586.848332,351.27 C587.058333,350.849998 587.419996,350.500001 587.933332,350.22 C589.006671,349.519996 590.39499,348.925002 592.098332,348.435 C593.801674,347.944998 595.819987,347.7 598.153332,347.7 C602.680021,347.7 606.004988,348.749989 608.128332,350.85 C610.251676,352.950011 611.313332,356.076646 611.313332,360.23 L611.313332,372.27 C611.313332,373.156671 611.359998,373.821664 611.453332,374.265 C611.546666,374.708336 611.709997,375.186664 611.943332,375.7 L613.133332,377.87 Z M597.173332,377.73 C599.786678,377.73 601.851658,377.158339 603.368332,376.015 C604.885006,374.871661 605.643332,373.250011 605.643332,371.15 L605.643332,367.44 C605.643332,367.159999 605.503333,367.02 605.223332,367.02 L598.503332,367.02 C595.609984,367.02 593.498339,367.451662 592.168332,368.315 C590.838325,369.178338 590.173332,370.566657 590.173332,372.48 C590.173332,374.253342 590.779993,375.571662 591.993332,376.435 C593.206671,377.298338 594.933321,377.73 597.173332,377.73 Z M634.218887,382.35 C630.765537,382.35 628.338894,381.580008 626.938887,380.04 C625.53888,378.499992 624.838887,375.980018 624.838887,372.48 L624.838887,353.65 C624.838887,353.369999 624.698889,353.23 624.418887,353.23 L622.528887,353.23 C621.73555,353.23 621.117223,353.008336 620.673887,352.565 C620.230552,352.121664 620.008887,351.550004 620.008887,350.85 C620.008887,350.149996 620.230552,349.578336 620.673887,349.135 C621.117223,348.691664 621.73555,348.47 622.528887,348.47 L624.418887,348.47 C624.698889,348.47 624.838887,348.330001 624.838887,348.05 L624.838887,340.7 C624.838887,339.719995 625.118885,338.950003 625.678887,338.39 C626.23889,337.829997 626.938883,337.55 627.778887,337.55 C628.618892,337.55 629.318885,337.829997 629.878887,338.39 C630.43889,338.950003 630.718887,339.719995 630.718887,340.7 L630.718887,348.05 C630.718887,348.330001 630.858886,348.47 631.138887,348.47 L635.548887,348.47 C636.342225,348.47 636.960552,348.691664 637.403887,349.135 C637.847223,349.578336 638.068887,350.149996 638.068887,350.85 C638.068887,351.550004 637.847223,352.121664 637.403887,352.565 C636.960552,353.008336 636.342225,353.23 635.548887,353.23 L631.138887,353.23 C630.858886,353.23 630.718887,353.369999 630.718887,353.65 L630.718887,372.27 C630.718887,374.043342 631.022218,375.256663 631.628887,375.91 C632.235557,376.563337 633.425545,376.89 635.198887,376.89 C636.132225,376.89 636.843885,377.146664 637.333887,377.66 C637.82389,378.173336 638.068887,378.826663 638.068887,379.62 C638.068887,380.413337 637.812223,381.066664 637.298887,381.58 C636.785552,382.093336 635.992226,382.35 634.918887,382.35 L634.218887,382.35 Z M660.554443,382.77 C657.054425,382.77 654.161121,381.988341 651.874443,380.425 C649.587765,378.861659 647.977781,376.610015 647.044443,373.67 C646.671108,372.596661 646.39111,371.41834 646.204443,370.135 C646.017775,368.85166 645.924443,367.206677 645.924443,365.2 C645.924443,363.193323 646.006109,361.54834 646.169443,360.265 C646.332777,358.98166 646.601108,357.803339 646.974443,356.73 C647.907781,353.789985 649.517765,351.550008 651.804443,350.01 C654.091121,348.469992 656.844427,347.7 660.064443,347.7 C663.377793,347.7 666.166098,348.469992 668.429443,350.01 C670.692788,351.550008 672.291105,353.766652 673.224443,356.66 C673.971113,358.853344 674.344443,361.559984 674.344443,364.78 C674.344443,365.433337 674.134445,365.969998 673.714443,366.39 C673.294441,366.810002 672.734446,367.02 672.034443,367.02 L652.364443,367.02 C652.084441,367.02 651.944443,367.159999 651.944443,367.44 C651.944443,368.233337 651.979443,368.944997 652.049443,369.575 C652.119443,370.205003 652.271108,370.846663 652.504443,371.5 C653.157779,373.46001 654.207769,374.918329 655.654443,375.875 C657.101117,376.831671 658.874432,377.31 660.974443,377.31 C662.607784,377.31 664.04277,377.065002 665.279443,376.575 C666.516116,376.084998 667.764437,375.373338 669.024443,374.44 C669.724446,373.879997 670.401106,373.6 671.054443,373.6 C671.754446,373.6 672.337774,373.833331 672.804443,374.3 C673.271112,374.766669 673.504443,375.349996 673.504443,376.05 C673.504443,376.843337 673.201113,377.54333 672.594443,378.15 C671.147769,379.50334 669.432786,380.611662 667.449443,381.475 C665.4661,382.338338 663.167789,382.77 660.554443,382.77 Z M667.904443,362.33 C668.184444,362.33 668.324443,362.190001 668.324443,361.91 C668.324443,360.369992 668.161111,359.110005 667.834443,358.13 C667.27444,356.449992 666.32945,355.155005 664.999443,354.245 C663.669436,353.334995 662.047786,352.88 660.134443,352.88 C658.2211,352.88 656.59945,353.334995 655.269443,354.245 C653.939436,355.155005 652.994446,356.449992 652.434443,358.13 C652.107775,359.110005 651.944443,360.369992 651.944443,361.91 C651.944443,362.190001 652.084441,362.33 652.364443,362.33 L667.904443,362.33 Z" id="Salt-HTML-Template" fill="#4A4A4A"></path>
        </g>
    </g>
</svg>