<?xml version="1.0" encoding="UTF-8"?>
<svg width="720px" height="271px" viewBox="0 0 720 271" version="1.1" xmlns="http://www.w3.org/2000/svg" xmlns:xlink="http://www.w3.org/1999/xlink">
    <!-- Generator: Sketch 43.2 (39069) - http://www.bohemiancoding.com/sketch -->
    <title>partners-logo-2</title>
    <desc>Created with Sketch.</desc>
    <defs></defs>
    <g id="Page-1" stroke="none" stroke-width="1" fill="none" fill-rule="evenodd">
        <g id="partners-logo-2">
            <g id="Group" transform="translate(75.000000, 25.000000)">
                <path d="M122.1965,35.2810811 C121.888,47.2972973 121.888,59.6216216 121.888,71.6378378 C121.888,74.1027027 121.271,74.4108108 118.803,73.7945946 C109.2395,70.4054054 99.676,67.3243243 90.1125,64.2432432 C88.2615,63.627027 87.953,62.7027027 87.953,61.1621622 L87.953,16.7945946 C87.953,14.6378378 88.2615,14.0216216 90.7295,14.6378378 C100.293,17.7189189 109.8565,20.8 119.42,23.8810811 C121.5795,24.4972973 122.505,25.4216216 122.1965,27.8864865 C121.888,30.0432432 122.1965,32.8162162 122.1965,35.2810811 Z" id="Shape" fill="#50E3C2" fill-rule="nonzero"></path>
                <path d="M76.2435,40.0046856 L76.2435,61.2641451 C76.2435,63.1127937 75.6265,64.037118 73.7755,64.6533342 C63.9035,67.7344153 54.0315,71.1236045 44.1595,74.5127937 C42.3085,75.1290099 42,74.5127937 42,72.9722532 L42,29.2209018 C42,27.3722532 42.617,26.1398207 44.468,25.5236045 C54.34,22.4425234 63.9035,19.3614424 73.7755,16.2803613 C75.935,15.6641451 76.2435,15.9722532 76.2435,18.1290099 L76.2435,40.0046856 L76.2435,40.0046856 Z" id="Shape" fill="#50E3C2" fill-rule="nonzero"></path>
                <path d="M45.38,189.335135 L45.38,168.075676 C45.38,165.918919 45.997,164.994595 48.1565,164.378378 C57.103,161.913514 66.0495,158.832432 74.996,155.751351 C75.9215,155.443243 76.5385,155.135135 77.464,155.135135 C79.0065,154.827027 79.6235,155.443243 79.6235,156.983784 L79.6235,200.735135 C79.6235,202.583784 78.3895,203.2 77.1555,203.508108 C68.5175,206.281081 60.188,209.054054 51.55,211.827027 C51.2415,211.827027 50.933,212.135135 50.316,212.135135 C45.38,213.983784 45.38,213.983784 45.38,208.437838 C45.38,201.967568 45.38,195.497297 45.38,189.335135 Z" id="Shape" fill="#50E3C2" fill-rule="nonzero"></path>
                <path d="M0,39.9508037 L0,18.3832362 C0,16.2264794 0.3085,15.6102632 2.7765,16.2264794 C12.6485,19.3075605 22.212,22.3886416 32.084,25.4697226 C33.6265,26.0859389 34.552,26.7021551 34.552,28.5508037 L34.552,71.994047 C34.552,74.1508037 33.6265,74.7670199 31.7755,74.1508037 C22.5205,70.4535064 12.957,67.6805335 3.3935,64.5994524 C1.234,63.9832362 0.3085,63.0589118 0.617,60.594047 C0.3085,53.8156686 0,46.7291821 0,39.9508037 L0,39.9508037 Z" id="Shape" fill="#50E3C2" fill-rule="nonzero"></path>
                <path d="M129.6005,48.5297297 L129.6005,30.0432432 C129.6005,24.4972973 129.6005,24.4972973 134.5365,22.9567568 C143.483,20.4918919 152.121,17.4108108 160.759,14.6378378 C162.3015,14.0216216 163.844,13.4054054 163.844,16.4864865 L163.844,59.0054054 C163.844,61.4702703 163.227,62.3945946 160.759,63.0108108 C151.1955,66.0918919 141.9405,69.172973 132.377,72.2540541 C129.909,73.1783784 129.6005,72.5621622 129.6005,70.0972973 C129.6005,63.0108108 129.6005,55.6162162 129.6005,48.5297297 L129.6005,48.5297297 Z" id="Shape" fill="#50E3C2" fill-rule="nonzero"></path>
                <path d="M37.6675,189.643243 L37.6675,211.210811 C37.6675,213.675676 37.0505,213.983784 34.891,213.059459 C25.636,209.978378 16.0725,206.589189 6.509,203.508108 C4.041,202.891892 3.1155,201.659459 3.1155,199.194595 L3.1155,157.6 C3.1155,154.518919 3.7325,154.210811 6.2005,155.135135 C15.147,157.908108 23.785,160.681081 32.7315,163.762162 C37.359,165.302703 37.359,165.302703 37.359,170.232432 C37.6675,177.010811 37.6675,183.172973 37.6675,189.643243 Z" id="Shape" fill="#50E3C2" fill-rule="nonzero"></path>
                <path d="M133.137111,189.601983 L133.137111,168.034415 C133.137111,165.877659 133.754111,164.953334 135.913611,164.645226 C145.477111,161.564145 154.732111,158.791172 164.295611,155.401983 C166.455111,154.785767 167.689111,154.477659 167.689111,157.55874 C167.380611,171.731713 167.380611,185.596578 167.689111,199.769551 C167.689111,201.926307 167.072111,202.850632 164.912611,203.466848 C155.349111,206.547929 145.785611,209.62901 136.222111,213.018199 C134.062611,213.942524 133.137111,213.326307 133.137111,210.861442 C133.137111,203.774956 132.828611,196.68847 133.137111,189.601983 L133.137111,189.601983 Z" id="Shape" fill="#50E3C2" fill-rule="nonzero"></path>
                <path d="M79.932,119.394595 L79.932,140.962162 C79.932,143.427027 79.6235,144.043243 76.847,143.118919 C67.2835,139.72973 57.72,136.648649 48.1565,133.567568 C46.3055,132.951351 45.6885,132.335135 45.6885,130.178378 L45.6885,87.0432432 C45.6885,84.8864865 46.3055,84.2702703 48.465,84.8864865 C58.337,87.9675676 67.9005,91.0486486 77.7725,94.1297297 C79.932,94.7459459 80.2405,96.2864865 80.2405,97.827027 C79.932,105.52973 79.932,112.616216 79.932,119.394595 Z" id="Shape" fill="#50E3C2" fill-rule="nonzero"></path>
                <path d="M87.6445,120.010811 L87.6445,98.7513514 C87.6445,96.2864865 88.2615,95.3621622 90.7295,94.7459459 C100.293,91.972973 109.548,88.8918919 118.803,85.8108108 C121.271,84.8864865 121.888,85.5027027 121.888,87.9675676 L121.888,131.102703 C121.888,132.643243 121.271,133.259459 120.037,133.875676 C110.165,137.264865 99.9845,140.345946 90.1125,144.043243 C87.6445,144.967568 88.2615,143.427027 88.2615,142.194595 C87.953,134.491892 87.953,127.097297 87.6445,120.010811 L87.6445,120.010811 Z" id="Shape" fill="#50E3C2" fill-rule="nonzero"></path>
                <path d="M125.2435,189.788469 L125.2435,211.356037 C125.2435,213.512794 124.6265,214.12901 122.467,213.204686 C112.9035,209.815496 103.34,206.734415 93.7765,203.653334 C92.234,203.037118 91.3085,202.420902 91.3085,200.572253 C91.3085,186.091172 91.3085,171.610091 91,157.12901 C91,154.972253 91.9255,154.664145 93.7765,155.280361 C101.489,157.745226 109.2015,160.210091 117.2225,162.674956 C119.0735,163.291172 120.616,164.215496 122.467,164.523605 C124.6265,164.831713 125.552,165.756037 125.552,168.220902 C125.552,175.615496 125.552,182.701983 125.2435,189.788469 L125.2435,189.788469 Z" id="Shape" fill="#50E3C2" fill-rule="nonzero"></path>
                <path d="M69.0085,9.67897391 C62.8385,11.8357307 56.6685,13.6843793 50.807,15.533028 C47.4135,16.4573523 44.02,17.3816766 40.935,18.614109 C38.7755,19.5384334 36.9245,19.2303253 35.0735,18.614109 C26.4355,15.8411361 17.489,13.0681631 8.851,10.2951901 C8.5425,10.2951901 7.9255,9.98708202 7,9.3708658 C12.2445,7.83032526 16.872,6.28978472 21.4995,4.74924418 C26.4355,3.20870364 31.063,1.6681631 35.999,0.435730665 C37.233,0.127622557 38.467,-0.180485551 39.3925,0.127622557 C48.956,3.20870364 58.5195,5.98167661 68.083,9.06275769 C68.3915,9.06275769 68.3915,9.3708658 69.0085,9.67897391 Z" id="Shape" fill="#50E3C2" fill-rule="nonzero"></path>
                <path d="M72.2195,149.281081 C67.9005,150.821622 64.1985,152.054054 60.4965,153.286486 C55.252,154.827027 50.316,156.675676 45.0715,158.216216 C42.6035,159.140541 40.444,159.140541 38.2845,158.216216 C29.6465,155.443243 21.0085,152.67027 12.3705,149.897297 C11.7535,149.589189 11.445,149.281081 10.211,148.664865 C15.4555,147.124324 19.7745,145.583784 24.0935,144.351351 C29.0295,142.810811 33.9655,141.578378 38.9015,140.037838 C40.1355,139.72973 41.678,139.421622 42.912,139.72973 C52.167,142.502703 61.422,145.583784 70.9855,148.356757 C71.294,148.664865 71.294,148.664865 72.2195,149.281081 Z" id="Shape" fill="#50E3C2" fill-rule="nonzero"></path>
                <path d="M115.101,79.6486486 C104.612,83.0378378 94.74,86.1189189 84.868,89.5081081 C83.634,89.8162162 82.7085,89.2 81.4745,88.8918919 C72.8365,86.1189189 64.1985,83.3459459 55.252,80.572973 C54.635,80.2648649 54.018,80.2648649 53.7095,79.6486486 C54.3265,78.7243243 55.252,78.7243243 56.1775,78.4162162 C64.8155,75.6432432 73.4535,73.1783784 82.0915,70.4054054 C83.3255,70.0972973 84.5595,70.0972973 85.485,70.4054054 C94.4315,73.1783784 103.0695,75.9513514 112.016,78.7243243 C112.9415,78.7243243 113.867,79.0324324 115.101,79.6486486 Z" id="Shape" fill="#50E3C2" fill-rule="nonzero"></path>
                <path d="M160.083,149.241892 C152.062,152.014865 144.041,154.171622 136.3285,157.252703 C131.701,159.101351 127.382,159.101351 122.7545,157.252703 C115.042,154.47973 107.021,152.014865 99,149.55 C99,148.317568 99.617,148.317568 100.234,148.317568 C109.489,145.852703 118.4355,143.387838 127.6905,141.231081 C128.616,140.922973 129.85,140.922973 130.467,141.231081 C140.0305,143.695946 149.594,146.160811 159.1575,148.933784 C159.466,148.317568 159.466,148.625676 160.083,149.241892 Z" id="Shape" fill="#50E3C2" fill-rule="nonzero"></path>
                <path d="M156.1315,8.78378378 C150.5785,10.6324324 145.0255,12.4810811 139.4725,14.3297297 C138.2385,14.6378378 137.0045,14.9459459 135.7705,15.5621622 C128.675,19.2594595 121.888,18.027027 114.7925,15.2540541 C108.931,13.0972973 102.761,11.2486486 96.8995,9.4 C96.2825,9.09189189 95.974,8.78378378 95.0485,8.47567568 C97.208,7.24324324 99.3675,6.93513514 101.527,6.31891892 C108.6225,4.47027027 115.718,2.62162162 122.505,0.772972973 C124.356,0.156756757 126.207,0.156756757 128.3665,0.772972973 C137.0045,3.23783784 145.6425,5.39459459 154.2805,7.55135135 C154.8975,7.55135135 155.5145,7.85945946 155.823,8.16756757 C156.1315,8.16756757 156.1315,8.47567568 156.1315,8.78378378 Z" id="Shape" fill="#50E3C2" fill-rule="nonzero"></path>
                <path d="M242.01,102.99 C238.04998,102.99 234.435016,102.405006 231.165,101.235 C227.894984,100.064994 225.180011,98.7300075 223.02,97.23 C221.699993,96.2699952 221.04,95.1000069 221.04,93.72 C221.04,92.6999949 221.384997,91.8150037 222.075,91.065 C222.765003,90.3149962 223.709994,89.94 224.91,89.94 C225.750004,89.94 226.589996,90.2099973 227.43,90.75 C229.650011,92.1300069 232.004988,93.2699955 234.495,94.17 C236.985012,95.0700045 239.699985,95.52 242.64,95.52 C246.960022,95.52 250.319988,94.5750094 252.72,92.685 C255.120012,90.7949905 256.32,88.2600159 256.32,85.08 C256.32,83.7599934 256.125002,82.5750052 255.735,81.525 C255.344998,80.4749947 254.655005,79.5300042 253.665,78.69 C252.674995,77.8499958 251.355008,77.130003 249.705,76.53 C248.054992,75.929997 246.000012,75.4500018 243.54,75.09 L240.57,74.64 C234.389969,73.6799952 229.830015,71.8200138 226.89,69.06 C223.949985,66.2999862 222.48,62.4900243 222.48,57.63 C222.48,54.9299865 222.944995,52.4700111 223.875,50.25 C224.805005,48.0299889 226.139991,46.1550076 227.88,44.625 C229.620009,43.0949923 231.719988,41.9100042 234.18,41.07 C236.640012,40.2299958 239.399985,39.81 242.46,39.81 C245.760016,39.81 248.819986,40.2149959 251.64,41.025 C254.460014,41.835004 256.799991,42.8099943 258.66,43.95 C260.100007,44.9100048 260.82,46.0799931 260.82,47.46 C260.82,48.4800051 260.475003,49.3349965 259.785,50.025 C259.094997,50.7150034 258.240005,51.06 257.22,51.06 C256.799998,51.06 256.365002,50.9850007 255.915,50.835 C255.464998,50.6849992 255.030002,50.5200009 254.61,50.34 C252.68999,49.4999958 250.71001,48.780003 248.67,48.18 C246.62999,47.579997 244.470011,47.28 242.19,47.28 C238.28998,47.28 235.38001,48.2099907 233.46,50.07 C231.53999,51.9300093 230.58,54.2999856 230.58,57.18 C230.58,58.4400063 230.789998,59.5949947 231.21,60.645 C231.630002,61.6950052 232.334995,62.6249959 233.325,63.435 C234.315005,64.245004 235.619992,64.949997 237.24,65.55 C238.860008,66.150003 240.869988,66.6299982 243.27,66.99 L246.24,67.44 C252.420031,68.4000048 256.994985,70.274986 259.965,73.065 C262.935015,75.8550139 264.42,79.7099754 264.42,84.63 C264.42,87.2700132 263.955005,89.7149887 263.025,91.965 C262.094995,94.2150112 260.685009,96.1499919 258.795,97.77 C256.904991,99.3900081 254.565014,100.664995 251.775,101.595 C248.984986,102.525005 245.730019,102.99 242.01,102.99 Z M294.409999,102.99 C290.209978,102.99 286.625014,101.97001 283.654999,99.93 C280.684984,97.8899898 278.600005,95.0400183 277.399999,91.38 C276.919997,89.8799925 276.56,88.3050082 276.319999,86.655 C276.079998,85.0049917 275.959999,82.9200126 275.959999,80.4 C275.959999,77.8799874 276.079998,75.8100081 276.319999,74.19 C276.56,72.5699919 276.919997,71.0100075 277.399999,69.51 C278.600005,65.7899814 280.684984,62.92501 283.654999,60.915 C286.625014,58.9049899 290.209978,57.9 294.409999,57.9 C298.61002,57.9 302.194984,58.9049899 305.164999,60.915 C308.135014,62.92501 310.219993,65.7899814 311.419999,69.51 C311.900002,71.0100075 312.259998,72.5699919 312.499999,74.19 C312.74,75.8100081 312.859999,77.8799874 312.859999,80.4 C312.859999,82.9200126 312.74,85.0049917 312.499999,86.655 C312.259998,88.3050082 311.900002,89.8799925 311.419999,91.38 C310.219993,95.0400183 308.135014,97.8899898 305.164999,99.93 C302.194984,101.97001 298.61002,102.99 294.409999,102.99 Z M294.409999,95.97 C296.810011,95.97 298.849991,95.3850058 300.529999,94.215 C302.210008,93.0449941 303.409996,91.3800108 304.129999,89.22 C304.490001,88.019994 304.744999,86.7750064 304.894999,85.485 C305.045,84.1949935 305.119999,82.5000105 305.119999,80.4 C305.119999,78.2999895 305.045,76.6200063 304.894999,75.36 C304.744999,74.0999937 304.490001,72.870006 304.129999,71.67 C303.409996,69.5099892 302.210008,67.8450058 300.529999,66.675 C298.849991,65.5049941 296.810011,64.92 294.409999,64.92 C292.009987,64.92 289.970008,65.5049941 288.289999,66.675 C286.609991,67.8450058 285.410003,69.5099892 284.689999,71.67 C284.329997,72.870006 284.075,74.0999937 283.924999,75.36 C283.774999,76.6200063 283.699999,78.2999895 283.699999,80.4 C283.699999,82.5000105 283.774999,84.1949935 283.924999,85.485 C284.075,86.7750064 284.329997,88.019994 284.689999,89.22 C285.410003,91.3800108 286.609991,93.0449941 288.289999,94.215 C289.970008,95.3850058 292.009987,95.97 294.409999,95.97 Z M342.939999,58.89 C343.960004,58.89 344.754996,59.1749971 345.324999,59.745 C345.895001,60.3150028 346.179999,61.0499955 346.179999,61.95 C346.179999,62.8500045 345.895001,63.5849971 345.324999,64.155 C344.754996,64.7250028 343.960004,65.01 342.939999,65.01 L336.549999,65.01 C336.189997,65.01 336.009999,65.1899982 336.009999,65.55 L336.009999,98.4 C336.009999,99.6600063 335.650002,100.649996 334.929999,101.37 C334.209995,102.090004 333.310004,102.45 332.229999,102.45 C331.149993,102.45 330.250002,102.090004 329.529999,101.37 C328.809995,100.649996 328.449999,99.6600063 328.449999,98.4 L328.449999,65.55 C328.449999,65.1899982 328.27,65.01 327.909999,65.01 L325.479999,65.01 C324.459993,65.01 323.665001,64.7250028 323.094999,64.155 C322.524996,63.5849971 322.239999,62.8500045 322.239999,61.95 C322.239999,61.0499955 322.524996,60.3150028 323.094999,59.745 C323.665001,59.1749971 324.459993,58.89 325.479999,58.89 L327.909999,58.89 C328.27,58.89 328.449999,58.7100018 328.449999,58.35 L328.449999,54.57 C328.449999,49.4099742 329.544988,45.82501 331.734999,43.815 C333.92501,41.8049899 337.269976,40.8 341.769999,40.8 L342.399999,40.8 C343.720005,40.8 344.709995,41.1299967 345.369999,41.79 C346.030002,42.4500033 346.359999,43.2899949 346.359999,44.31 C346.359999,45.3300051 346.045002,46.1699967 345.414999,46.83 C344.784995,47.4900033 343.870005,47.82 342.669999,47.82 C341.289992,47.82 340.165003,47.9099991 339.294999,48.09 C338.424994,48.2700009 337.750001,48.5849977 337.269999,49.035 C336.789996,49.4850022 336.459999,50.1149959 336.279999,50.925 C336.099998,51.735004 336.009999,52.7999934 336.009999,54.12 L336.009999,58.35 C336.009999,58.7100018 336.189997,58.89 336.549999,58.89 L342.939999,58.89 Z M370.679998,102.45 C366.239976,102.45 363.120007,101.46001 361.319998,99.48 C359.519989,97.4999901 358.619998,94.2600225 358.619998,89.76 L358.619998,65.55 C358.619998,65.1899982 358.44,65.01 358.079998,65.01 L355.649998,65.01 C354.629993,65.01 353.835001,64.7250028 353.264998,64.155 C352.694995,63.5849971 352.409998,62.8500045 352.409998,61.95 C352.409998,61.0499955 352.694995,60.3150028 353.264998,59.745 C353.835001,59.1749971 354.629993,58.89 355.649998,58.89 L358.079998,58.89 C358.44,58.89 358.619998,58.7100018 358.619998,58.35 L358.619998,48.9 C358.619998,47.6399937 358.979994,46.6500036 359.699998,45.93 C360.420001,45.2099964 361.319992,44.85 362.399998,44.85 C363.480003,44.85 364.379994,45.2099964 365.099998,45.93 C365.820001,46.6500036 366.179998,47.6399937 366.179998,48.9 L366.179998,58.35 C366.179998,58.7100018 366.359996,58.89 366.719998,58.89 L372.389998,58.89 C373.410003,58.89 374.204995,59.1749971 374.774998,59.745 C375.345001,60.3150028 375.629998,61.0499955 375.629998,61.95 C375.629998,62.8500045 375.345001,63.5849971 374.774998,64.155 C374.204995,64.7250028 373.410003,65.01 372.389998,65.01 L366.719998,65.01 C366.359996,65.01 366.179998,65.1899982 366.179998,65.55 L366.179998,89.49 C366.179998,91.7700114 366.569994,93.3299958 367.349998,94.17 C368.130002,95.0100042 369.659986,95.43 371.939998,95.43 C373.140004,95.43 374.054995,95.7599967 374.684998,96.42 C375.315001,97.0800033 375.629998,97.9199949 375.629998,98.94 C375.629998,99.9600051 375.300001,100.799997 374.639998,101.46 C373.979995,102.120003 372.960005,102.45 371.579998,102.45 L370.679998,102.45 Z M388.519997,44.4 C388.519997,43.3199946 388.834994,42.4500033 389.464997,41.79 C390.095,41.1299967 390.979991,40.8 392.119997,40.8 L423.619997,40.8 C424.820003,40.8 425.779994,41.1599964 426.499997,41.88 C427.220001,42.6000036 427.579997,43.4699949 427.579997,44.49 C427.579997,45.5700054 427.220001,46.4699964 426.499997,47.19 C425.779994,47.9100036 424.820003,48.27 423.619997,48.27 L397.069997,48.27 C396.709995,48.27 396.529997,48.4499982 396.529997,48.81 L396.529997,66.81 C396.529997,67.1700018 396.709995,67.35 397.069997,67.35 L419.209997,67.35 C420.410003,67.35 421.369994,67.7099964 422.089997,68.43 C422.810001,69.1500036 423.169997,70.0199949 423.169997,71.04 C423.169997,72.1200054 422.810001,73.0199964 422.089997,73.74 C421.369994,74.4600036 420.410003,74.82 419.209997,74.82 L397.069997,74.82 C396.709995,74.82 396.529997,74.9999982 396.529997,75.36 L396.529997,93.99 C396.529997,94.3500018 396.709995,94.53 397.069997,94.53 L423.619997,94.53 C424.820003,94.53 425.779994,94.8899964 426.499997,95.61 C427.220001,96.3300036 427.579997,97.1999949 427.579997,98.22 C427.579997,99.3000054 427.220001,100.199996 426.499997,100.92 C425.779994,101.640004 424.820003,102 423.619997,102 L392.119997,102 C390.979991,102 390.095,101.670003 389.464997,101.01 C388.834994,100.349997 388.519997,99.4800054 388.519997,98.4 L388.519997,44.4 Z M475.659996,96.69 C476.079999,97.4100036 476.289996,98.1299964 476.289996,98.85 C476.289996,99.8700051 475.93,100.724997 475.209996,101.415 C474.489993,102.105003 473.560002,102.45 472.419996,102.45 C471.09999,102.45 469.990001,101.820006 469.089996,100.56 L467.379996,97.86 L467.289996,97.86 C465.849989,99.4800081 464.080007,100.739995 461.979996,101.64 C459.879986,102.540004 457.240012,102.99 454.059996,102.99 C449.199972,102.99 445.45001,101.865011 442.809996,99.615 C440.169983,97.3649887 438.849996,94.1700207 438.849996,90.03 C438.849996,85.5299775 440.304982,82.1850109 443.214996,79.995 C446.125011,77.804989 450.279969,76.71 455.679996,76.71 L465.489996,76.71 C465.849998,76.71 466.029996,76.5300018 466.029996,76.17 L466.029996,74.1 C466.029996,71.0399847 465.250004,68.7000081 463.689996,67.08 C462.129989,65.4599919 459.460015,64.65 455.679996,64.65 C453.999988,64.65 452.365004,64.8749977 450.774996,65.325 C449.184988,65.7750022 447.880002,66.2699973 446.859996,66.81 C446.019992,67.2300021 445.299999,67.44 444.699996,67.44 C443.679991,67.44 442.884999,67.1550028 442.314996,66.585 C441.744994,66.0149971 441.459996,65.2200051 441.459996,64.2 C441.459996,63.599997 441.594995,63.0300027 441.864996,62.49 C442.134998,61.9499973 442.599993,61.5000018 443.259996,61.14 C444.640003,60.2399955 446.424985,59.4750031 448.614996,58.845 C450.805007,58.2149968 453.399981,57.9 456.399996,57.9 C462.220026,57.9 466.494983,59.2499865 469.224996,61.95 C471.95501,64.6500135 473.319996,68.6699733 473.319996,74.01 L473.319996,89.49 C473.319996,90.6300057 473.379996,91.4849971 473.499996,92.055 C473.619997,92.6250028 473.829995,93.2399967 474.129996,93.9 L475.659996,96.69 Z M455.139996,96.51 C458.500013,96.51 461.154987,95.7750073 463.104996,94.305 C465.055006,92.8349926 466.029996,90.7500135 466.029996,88.05 L466.029996,83.28 C466.029996,82.9199982 465.849998,82.74 465.489996,82.74 L456.849996,82.74 C453.129978,82.74 450.415005,83.2949944 448.704996,84.405 C446.994988,85.5150055 446.139996,87.2999877 446.139996,89.76 C446.139996,92.0400114 446.919989,93.7349944 448.479996,94.845 C450.040004,95.9550055 452.259982,96.51 455.139996,96.51 Z M504.389996,102.99 C501.089979,102.99 498.105009,102.510005 495.434996,101.55 C492.764982,100.589995 490.530005,99.4800063 488.729996,98.22 C487.52999,97.3799958 486.929996,96.3300063 486.929996,95.07 C486.929996,94.1699955 487.259992,93.3750034 487.919996,92.685 C488.579999,91.9949965 489.419991,91.65 490.439996,91.65 C490.799998,91.65 491.174994,91.7099994 491.564996,91.83 C491.954998,91.9500006 492.419993,92.1599985 492.959996,92.46 C494.700004,93.4800051 496.529986,94.3649962 498.449996,95.115 C500.370005,95.8650037 502.559983,96.24 505.019996,96.24 C508.140011,96.24 510.494988,95.640006 512.084996,94.44 C513.675004,93.239994 514.469996,91.6800096 514.469996,89.76 C514.469996,87.959991 513.915001,86.5800048 512.804996,85.62 C511.69499,84.6599952 509.430013,84.0000018 506.009996,83.64 L501.509996,83.19 C497.249974,82.7099976 494.040007,81.4350103 491.879996,79.365 C489.719985,77.2949896 488.639996,74.5200174 488.639996,71.04 C488.639996,66.8999793 490.019982,63.6750115 492.779996,61.365 C495.54001,59.0549884 499.46997,57.9 504.569996,57.9 C507.090008,57.9 509.444985,58.1849971 511.634996,58.755 C513.825007,59.3250028 515.759987,60.0899952 517.439996,61.05 C518.940003,61.8300039 519.689996,62.8799934 519.689996,64.2 C519.689996,65.1000045 519.374999,65.8649968 518.744996,66.495 C518.114993,67.1250031 517.35,67.44 516.449996,67.44 C515.669992,67.44 514.770001,67.2000024 513.749996,66.72 C512.309989,66.0599967 510.795004,65.5200021 509.204996,65.1 C507.614988,64.6799979 505.950004,64.47 504.209996,64.47 C501.509982,64.47 499.470003,65.0249944 498.089996,66.135 C496.709989,67.2450055 496.019996,68.6699913 496.019996,70.41 C496.019996,72.1500087 496.61999,73.4849953 497.819996,74.415 C499.020002,75.3450046 501.23998,75.9599985 504.479996,76.26 L508.979996,76.71 C513.480018,77.1900024 516.764985,78.4649896 518.834996,80.535 C520.905006,82.6050103 521.939996,85.4099823 521.939996,88.95 C521.939996,93.2100213 520.455011,96.6149872 517.484996,99.165 C514.514981,101.715013 510.150025,102.99 504.389996,102.99 Z M552.109995,102.99 C547.609972,102.99 543.89001,101.98501 540.949995,99.975 C538.00998,97.9649899 535.940001,95.0700189 534.739995,91.29 C534.259993,89.9099931 533.899996,88.3950082 533.659995,86.745 C533.419994,85.0949917 533.299995,82.9800129 533.299995,80.4 C533.299995,77.8199871 533.404994,75.7050082 533.614995,74.055 C533.824996,72.4049917 534.169993,70.8900069 534.649995,69.51 C535.850001,65.7299811 537.91998,62.8500099 540.859995,60.87 C543.80001,58.8899901 547.339974,57.9 551.479995,57.9 C555.740016,57.9 559.32498,58.8899901 562.234995,60.87 C565.14501,62.8500099 567.199989,65.6999814 568.399995,69.42 C569.36,72.2400141 569.839995,75.7199793 569.839995,79.86 C569.839995,80.7000042 569.569998,81.3899973 569.029995,81.93 C568.489992,82.4700027 567.769999,82.74 566.869995,82.74 L541.579995,82.74 C541.219993,82.74 541.039995,82.9199982 541.039995,83.28 C541.039995,84.3000051 541.084995,85.2149959 541.174995,86.025 C541.264995,86.835004 541.459993,87.6599958 541.759995,88.5 C542.599999,91.0200126 543.949986,92.8949938 545.809995,94.125 C547.670004,95.3550061 549.949981,95.97 552.649995,95.97 C554.750005,95.97 556.594987,95.6550031 558.184995,95.025 C559.775003,94.3949968 561.379987,93.480006 562.999995,92.28 C563.899999,91.5599964 564.769991,91.2 565.609995,91.2 C566.509999,91.2 567.259992,91.499997 567.859995,92.1 C568.459998,92.700003 568.759995,93.4499955 568.759995,94.35 C568.759995,95.3700051 568.369999,96.2699961 567.589995,97.05 C565.729986,98.7900087 563.525008,100.214994 560.974995,101.325 C558.424982,102.435006 555.470012,102.99 552.109995,102.99 Z M561.559995,76.71 C561.919997,76.71 562.099995,76.5300018 562.099995,76.17 C562.099995,74.1899901 561.889997,72.5700063 561.469995,71.31 C560.749991,69.1499892 559.535004,67.4850058 557.824995,66.315 C556.114986,65.1449941 554.030007,64.56 551.569995,64.56 C549.109983,64.56 547.025004,65.1449941 545.314995,66.315 C543.604986,67.4850058 542.389999,69.1499892 541.669995,71.31 C541.249993,72.5700063 541.039995,74.1899901 541.039995,76.17 C541.039995,76.5300018 541.219993,76.71 541.579995,76.71 L561.559995,76.71 Z" id="SoftEase" fill="#4A4A4A"></path>
                <path d="M240.45,167.55 C238.249989,167.55 236.241676,167.225003 234.425,166.575 C232.608324,165.924997 231.100006,165.183338 229.9,164.35 C229.166663,163.816664 228.8,163.166671 228.8,162.4 C228.8,161.833331 228.991665,161.341669 229.375,160.925 C229.758335,160.508331 230.28333,160.3 230.95,160.3 C231.416669,160.3 231.883331,160.449999 232.35,160.75 C233.583339,161.516671 234.89166,162.149998 236.275,162.65 C237.65834,163.150003 239.166658,163.4 240.8,163.4 C243.200012,163.4 245.06666,162.875005 246.4,161.825 C247.73334,160.774995 248.4,159.366676 248.4,157.6 C248.4,156.866663 248.291668,156.208336 248.075,155.625 C247.858332,155.041664 247.475003,154.516669 246.925,154.05 C246.374997,153.583331 245.641671,153.183335 244.725,152.85 C243.808329,152.516665 242.666673,152.250001 241.3,152.05 L239.65,151.8 C236.216649,151.266664 233.683341,150.233341 232.05,148.7 C230.416658,147.166659 229.6,145.050014 229.6,142.35 C229.6,140.849993 229.858331,139.48334 230.375,138.25 C230.891669,137.016661 231.633328,135.975004 232.6,135.125 C233.566671,134.274996 234.733326,133.616669 236.1,133.15 C237.466673,132.683331 238.999991,132.45 240.7,132.45 C242.533342,132.45 244.233325,132.674998 245.8,133.125 C247.366674,133.575002 248.666661,134.116664 249.7,134.75 C250.500004,135.283336 250.9,135.93333 250.9,136.7 C250.9,137.26667 250.708335,137.741665 250.325,138.125 C249.941665,138.508335 249.466669,138.7 248.9,138.7 C248.666665,138.7 248.425001,138.658334 248.175,138.575 C247.924999,138.491666 247.683334,138.400001 247.45,138.3 C246.383328,137.833331 245.283339,137.433335 244.15,137.1 C243.016661,136.766665 241.816673,136.6 240.55,136.6 C238.383322,136.6 236.766672,137.116662 235.7,138.15 C234.633328,139.183339 234.1,140.499992 234.1,142.1 C234.1,142.800004 234.216665,143.441664 234.45,144.025 C234.683334,144.608336 235.074997,145.124998 235.625,145.575 C236.175003,146.025002 236.899995,146.416665 237.8,146.75 C238.700004,147.083335 239.81666,147.349999 241.15,147.55 L242.8,147.8 C246.23335,148.333336 248.774992,149.374992 250.425,150.925 C252.075008,152.475008 252.9,154.616653 252.9,157.35 C252.9,158.816674 252.641669,160.174994 252.125,161.425 C251.608331,162.675006 250.825005,163.749996 249.775,164.65 C248.724995,165.550005 247.425008,166.258331 245.875,166.775 C244.324992,167.291669 242.516677,167.55 240.45,167.55 Z M280.011111,164.05 C280.244445,164.450002 280.361111,164.849998 280.361111,165.25 C280.361111,165.81667 280.161113,166.291665 279.761111,166.675 C279.361109,167.058335 278.844447,167.25 278.211111,167.25 C277.477774,167.25 276.861113,166.900004 276.361111,166.2 L275.411111,164.7 L275.361111,164.7 C274.561107,165.600005 273.577783,166.299998 272.411111,166.8 C271.244438,167.300003 269.777786,167.55 268.011111,167.55 C265.311097,167.55 263.227785,166.925006 261.761111,165.675 C260.294437,164.424994 259.561111,162.650012 259.561111,160.35 C259.561111,157.849988 260.369436,155.991673 261.986111,154.775 C263.602785,153.558327 265.911096,152.95 268.911111,152.95 L274.361111,152.95 C274.561112,152.95 274.661111,152.850001 274.661111,152.65 L274.661111,151.5 C274.661111,149.799992 274.227782,148.500005 273.361111,147.6 C272.49444,146.699996 271.011121,146.25 268.911111,146.25 C267.977773,146.25 267.069448,146.374999 266.186111,146.625 C265.302773,146.875001 264.57778,147.149999 264.011111,147.45 C263.544442,147.683335 263.144446,147.8 262.811111,147.8 C262.244441,147.8 261.802779,147.641668 261.486111,147.325 C261.169442,147.008332 261.011111,146.56667 261.011111,146 C261.011111,145.666665 261.08611,145.350002 261.236111,145.05 C261.386111,144.749999 261.644442,144.500001 262.011111,144.3 C262.777781,143.799998 263.769438,143.375002 264.986111,143.025 C266.202783,142.674998 267.644436,142.5 269.311111,142.5 C272.54446,142.5 274.919436,143.249993 276.436111,144.75 C277.952785,146.250008 278.711111,148.483319 278.711111,151.45 L278.711111,160.05 C278.711111,160.683337 278.744444,161.158332 278.811111,161.475 C278.877778,161.791668 278.994443,162.133332 279.161111,162.5 L280.011111,164.05 Z M268.611111,163.95 C270.477787,163.95 271.952772,163.541671 273.036111,162.725 C274.119449,161.908329 274.661111,160.750008 274.661111,159.25 L274.661111,156.6 C274.661111,156.399999 274.561112,156.3 274.361111,156.3 L269.561111,156.3 C267.494434,156.3 265.986115,156.60833 265.036111,157.225 C264.086106,157.84167 263.611111,158.833327 263.611111,160.2 C263.611111,161.466673 264.04444,162.40833 264.911111,163.025 C265.777782,163.64167 267.011103,163.95 268.611111,163.95 Z M307.122221,164.05 C307.355556,164.450002 307.472221,164.849998 307.472221,165.25 C307.472221,165.81667 307.272223,166.291665 306.872221,166.675 C306.472219,167.058335 305.955558,167.25 305.322221,167.25 C304.588884,167.25 303.972224,166.900004 303.472221,166.2 L302.522221,164.7 L302.472221,164.7 C301.672217,165.600005 300.688894,166.299998 299.522221,166.8 C298.355549,167.300003 296.888897,167.55 295.122221,167.55 C292.422208,167.55 290.338895,166.925006 288.872221,165.675 C287.405547,164.424994 286.672221,162.650012 286.672221,160.35 C286.672221,157.849988 287.480546,155.991673 289.097221,154.775 C290.713896,153.558327 293.022206,152.95 296.022221,152.95 L301.472221,152.95 C301.672222,152.95 301.772221,152.850001 301.772221,152.65 L301.772221,151.5 C301.772221,149.799992 301.338892,148.500005 300.472221,147.6 C299.60555,146.699996 298.122232,146.25 296.022221,146.25 C295.088883,146.25 294.180559,146.374999 293.297221,146.625 C292.413883,146.875001 291.688891,147.149999 291.122221,147.45 C290.655552,147.683335 290.255556,147.8 289.922221,147.8 C289.355552,147.8 288.913889,147.641668 288.597221,147.325 C288.280553,147.008332 288.122221,146.56667 288.122221,146 C288.122221,145.666665 288.19722,145.350002 288.347221,145.05 C288.497222,144.749999 288.755553,144.500001 289.122221,144.3 C289.888892,143.799998 290.880548,143.375002 292.097221,143.025 C293.313894,142.674998 294.755546,142.5 296.422221,142.5 C299.655571,142.5 302.030547,143.249993 303.547221,144.75 C305.063895,146.250008 305.822221,148.483319 305.822221,151.45 L305.822221,160.05 C305.822221,160.683337 305.855554,161.158332 305.922221,161.475 C305.988888,161.791668 306.105554,162.133332 306.272221,162.5 L307.122221,164.05 Z M295.722221,163.95 C297.588897,163.95 299.063882,163.541671 300.147221,162.725 C301.23056,161.908329 301.772221,160.750008 301.772221,159.25 L301.772221,156.6 C301.772221,156.399999 301.672222,156.3 301.472221,156.3 L296.672221,156.3 C294.605544,156.3 293.097226,156.60833 292.147221,157.225 C291.197216,157.84167 290.722221,158.833327 290.722221,160.2 C290.722221,161.466673 291.15555,162.40833 292.022221,163.025 C292.888892,163.64167 294.122213,163.95 295.722221,163.95 Z M325.333332,167.55 C323.133321,167.55 321.125007,167.225003 319.308332,166.575 C317.491656,165.924997 315.983338,165.183338 314.783332,164.35 C314.049995,163.816664 313.683332,163.166671 313.683332,162.4 C313.683332,161.833331 313.874996,161.341669 314.258332,160.925 C314.641667,160.508331 315.166662,160.3 315.833332,160.3 C316.300001,160.3 316.766663,160.449999 317.233332,160.75 C318.466671,161.516671 319.774991,162.149998 321.158332,162.65 C322.541672,163.150003 324.04999,163.4 325.683332,163.4 C328.083344,163.4 329.949992,162.875005 331.283332,161.825 C332.616672,160.774995 333.283332,159.366676 333.283332,157.6 C333.283332,156.866663 333.174999,156.208336 332.958332,155.625 C332.741664,155.041664 332.358334,154.516669 331.808332,154.05 C331.258329,153.583331 330.525003,153.183335 329.608332,152.85 C328.69166,152.516665 327.550005,152.250001 326.183332,152.05 L324.533332,151.8 C321.099981,151.266664 318.566673,150.233341 316.933332,148.7 C315.29999,147.166659 314.483332,145.050014 314.483332,142.35 C314.483332,140.849993 314.741662,139.48334 315.258332,138.25 C315.775001,137.016661 316.51666,135.975004 317.483332,135.125 C318.450003,134.274996 319.616658,133.616669 320.983332,133.15 C322.350005,132.683331 323.883323,132.45 325.583332,132.45 C327.416674,132.45 329.116657,132.674998 330.683332,133.125 C332.250006,133.575002 333.549993,134.116664 334.583332,134.75 C335.383336,135.283336 335.783332,135.93333 335.783332,136.7 C335.783332,137.26667 335.591667,137.741665 335.208332,138.125 C334.824996,138.508335 334.350001,138.7 333.783332,138.7 C333.549997,138.7 333.308333,138.658334 333.058332,138.575 C332.80833,138.491666 332.566666,138.400001 332.333332,138.3 C331.26666,137.833331 330.166671,137.433335 329.033332,137.1 C327.899993,136.766665 326.700005,136.6 325.433332,136.6 C323.266654,136.6 321.650004,137.116662 320.583332,138.15 C319.51666,139.183339 318.983332,140.499992 318.983332,142.1 C318.983332,142.800004 319.099997,143.441664 319.333332,144.025 C319.566666,144.608336 319.958329,145.124998 320.508332,145.575 C321.058334,146.025002 321.783327,146.416665 322.683332,146.75 C323.583336,147.083335 324.699992,147.349999 326.033332,147.55 L327.683332,147.8 C331.116682,148.333336 333.658323,149.374992 335.308332,150.925 C336.95834,152.475008 337.783332,154.616653 337.783332,157.35 C337.783332,158.816674 337.525001,160.174994 337.008332,161.425 C336.491662,162.675006 335.708337,163.749996 334.658332,164.65 C333.608326,165.550005 332.308339,166.258331 330.758332,166.775 C329.208324,167.291669 327.400009,167.55 325.333332,167.55 Z M378.005553,133 C378.672223,133 379.205551,133.199998 379.605553,133.6 C380.005555,134.000002 380.205553,134.499997 380.205553,135.1 C380.205553,135.66667 380.005555,136.149998 379.605553,136.55 C379.205551,136.950002 378.672223,137.15 378.005553,137.15 L370.155553,137.15 C369.955552,137.15 369.855553,137.249999 369.855553,137.45 L369.855553,164.85 C369.855553,165.616671 369.655555,166.208331 369.255553,166.625 C368.855551,167.041669 368.322223,167.25 367.655553,167.25 C366.988883,167.25 366.447222,167.041669 366.030553,166.625 C365.613884,166.208331 365.405553,165.616671 365.405553,164.85 L365.405553,137.45 C365.405553,137.249999 365.305554,137.15 365.105553,137.15 L357.255553,137.15 C356.588883,137.15 356.055555,136.950002 355.655553,136.55 C355.255551,136.149998 355.055553,135.66667 355.055553,135.1 C355.055553,134.499997 355.255551,134.000002 355.655553,133.6 C356.055555,133.199998 356.588883,133 357.255553,133 L378.005553,133 Z M395.266663,167.55 C392.766651,167.55 390.700005,166.991672 389.066663,165.875 C387.433322,164.758328 386.283333,163.150011 385.616663,161.05 C385.349995,160.28333 385.149997,159.441671 385.016663,158.525 C384.883329,157.608329 384.816663,156.433341 384.816663,155 C384.816663,153.56666 384.874996,152.391671 384.991663,151.475 C385.108331,150.558329 385.299995,149.716671 385.566663,148.95 C386.233333,146.84999 387.383322,145.250006 389.016663,144.15 C390.650005,143.049995 392.616652,142.5 394.916663,142.5 C397.283342,142.5 399.274989,143.049995 400.891663,144.15 C402.508338,145.250006 403.649993,146.833323 404.316663,148.9 C404.849999,150.466675 405.116663,152.399989 405.116663,154.7 C405.116663,155.166669 404.966665,155.549999 404.666663,155.85 C404.366662,156.150002 403.966666,156.3 403.466663,156.3 L389.416663,156.3 C389.216662,156.3 389.116663,156.399999 389.116663,156.6 C389.116663,157.16667 389.141663,157.674998 389.191663,158.125 C389.241664,158.575002 389.349996,159.033331 389.516663,159.5 C389.983332,160.900007 390.733325,161.941663 391.766663,162.625 C392.800002,163.308337 394.066656,163.65 395.566663,163.65 C396.733336,163.65 397.758326,163.475002 398.641663,163.125 C399.525001,162.774998 400.416659,162.26667 401.316663,161.6 C401.816666,161.199998 402.299994,161 402.766663,161 C403.266666,161 403.683328,161.166665 404.016663,161.5 C404.349998,161.833335 404.516663,162.249998 404.516663,162.75 C404.516663,163.31667 404.299999,163.816665 403.866663,164.25 C402.833325,165.216672 401.608337,166.00833 400.191663,166.625 C398.77499,167.24167 397.133339,167.55 395.266663,167.55 Z M400.516663,152.95 C400.716664,152.95 400.816663,152.850001 400.816663,152.65 C400.816663,151.549995 400.699998,150.650004 400.466663,149.95 C400.066661,148.749994 399.391668,147.825003 398.441663,147.175 C397.491659,146.524997 396.333337,146.2 394.966663,146.2 C393.59999,146.2 392.441668,146.524997 391.491663,147.175 C390.541659,147.825003 389.866665,148.749994 389.466663,149.95 C389.233329,150.650004 389.116663,151.549995 389.116663,152.65 C389.116663,152.850001 389.216662,152.95 389.416663,152.95 L400.516663,152.95 Z M412.977774,145.05 C412.977774,144.349997 413.177772,143.800002 413.577774,143.4 C413.977776,142.999998 414.477771,142.8 415.077774,142.8 C415.677777,142.8 416.177772,142.999998 416.577774,143.4 C416.977776,143.800002 417.177774,144.349997 417.177774,145.05 L417.177774,145.75 L417.227774,145.75 C417.894444,144.783329 418.769435,144.000003 419.852774,143.4 C420.936113,142.799997 422.294432,142.5 423.927774,142.5 C425.594449,142.5 427.011101,142.83333 428.177774,143.5 C429.344446,144.16667 430.261104,145.083328 430.927774,146.25 L430.977774,146.25 C431.777778,145.116661 432.794434,144.208337 434.027774,143.525 C435.261113,142.841663 436.827764,142.5 438.727774,142.5 C441.427787,142.5 443.527766,143.291659 445.027774,144.875 C446.527781,146.458341 447.277774,148.666653 447.277774,151.5 L447.277774,165 C447.277774,165.700004 447.077776,166.249998 446.677774,166.65 C446.277772,167.050002 445.777777,167.25 445.177774,167.25 C444.577771,167.25 444.077776,167.050002 443.677774,166.65 C443.277772,166.249998 443.077774,165.700004 443.077774,165 L443.077774,152.5 C443.077774,150.566657 442.636112,149.066672 441.752774,148 C440.869436,146.933328 439.527783,146.4 437.727774,146.4 C436.094432,146.4 434.769446,146.924995 433.752774,147.975 C432.736102,149.025005 432.227774,150.449991 432.227774,152.25 L432.227774,165 C432.227774,165.700004 432.027776,166.249998 431.627774,166.65 C431.227772,167.050002 430.727777,167.25 430.127774,167.25 C429.527771,167.25 429.027776,167.050002 428.627774,166.65 C428.227772,166.249998 428.027774,165.700004 428.027774,165 L428.027774,152.5 C428.027774,150.566657 427.586112,149.066672 426.702774,148 C425.819436,146.933328 424.477783,146.4 422.677774,146.4 C421.044432,146.4 419.719446,146.924995 418.702774,147.975 C417.686102,149.025005 417.177774,150.449991 417.177774,152.25 L417.177774,165 C417.177774,165.700004 416.977776,166.249998 416.577774,166.65 C416.177772,167.050002 415.677777,167.25 415.077774,167.25 C414.477771,167.25 413.977776,167.050002 413.577774,166.65 C413.177772,166.249998 412.977774,165.700004 412.977774,165 L412.977774,145.05 Z M458.438885,176.25 C457.838882,176.25 457.338887,176.050002 456.938885,175.65 C456.538883,175.249998 456.338885,174.700004 456.338885,174 L456.338885,145.05 C456.338885,144.349997 456.538883,143.800002 456.938885,143.4 C457.338887,142.999998 457.838882,142.8 458.438885,142.8 C459.038888,142.8 459.538883,142.999998 459.938885,143.4 C460.338887,143.800002 460.538885,144.349997 460.538885,145.05 L460.538885,145.7 L460.588885,145.7 C461.155554,144.733329 461.980546,143.958336 463.063885,143.375 C464.147223,142.791664 465.588876,142.5 467.388885,142.5 C469.422228,142.5 471.147211,143.024995 472.563885,144.075 C473.980558,145.125005 475.005548,146.599991 475.638885,148.5 C475.938886,149.466672 476.155551,150.449995 476.288885,151.45 C476.422219,152.450005 476.488885,153.649993 476.488885,155.05 C476.488885,156.416674 476.422219,157.599995 476.288885,158.6 C476.155551,159.600005 475.938886,160.583329 475.638885,161.55 C475.005548,163.45001 473.980558,164.924995 472.563885,165.975 C471.147211,167.025005 469.422228,167.55 467.388885,167.55 C465.588876,167.55 464.147223,167.250003 463.063885,166.65 C461.980546,166.049997 461.155554,165.283338 460.588885,164.35 L460.538885,164.35 L460.538885,174 C460.538885,174.700004 460.338887,175.249998 459.938885,175.65 C459.538883,176.050002 459.038888,176.25 458.438885,176.25 Z M466.388885,163.65 C467.722225,163.65 468.830547,163.325003 469.713885,162.675 C470.597222,162.024997 471.238883,161.100006 471.638885,159.9 C471.872219,159.23333 472.022218,158.516671 472.088885,157.75 C472.155552,156.98333 472.188885,156.083339 472.188885,155.05 C472.188885,153.983328 472.155552,153.066671 472.088885,152.3 C472.022218,151.53333 471.872219,150.81667 471.638885,150.15 C471.238883,148.949994 470.597222,148.025003 469.713885,147.375 C468.830547,146.724997 467.722225,146.4 466.388885,146.4 C465.022211,146.4 463.897222,146.724997 463.013885,147.375 C462.130547,148.025003 461.488887,148.949994 461.088885,150.15 C460.85555,150.81667 460.705552,151.53333 460.638885,152.3 C460.572218,153.066671 460.538885,153.983328 460.538885,155.05 C460.538885,156.083339 460.572218,156.98333 460.638885,157.75 C460.705552,158.516671 460.85555,159.23333 461.088885,159.9 C461.488887,161.100006 462.130547,162.024997 463.013885,162.675 C463.897222,163.325003 465.022211,163.65 466.388885,163.65 Z M490.099995,167.25 C487.933318,167.25 486.416666,166.725005 485.549995,165.675 C484.683324,164.624995 484.249995,163.016678 484.249995,160.85 L484.249995,135 C484.249995,134.299997 484.449993,133.750002 484.849995,133.35 C485.249997,132.949998 485.749992,132.75 486.349995,132.75 C486.949998,132.75 487.449993,132.949998 487.849995,133.35 C488.249997,133.750002 488.449995,134.299997 488.449995,135 L488.449995,160.6 C488.449995,161.600005 488.624993,162.308331 488.974995,162.725 C489.324997,163.141669 489.916658,163.35 490.749995,163.35 C491.349998,163.35 491.824993,163.533332 492.174995,163.9 C492.524997,164.266669 492.699995,164.733331 492.699995,165.3 C492.699995,165.86667 492.516664,166.333332 492.149995,166.7 C491.783327,167.066669 491.249999,167.25 490.549995,167.25 L490.099995,167.25 Z M518.661106,164.05 C518.89444,164.450002 519.011106,164.849998 519.011106,165.25 C519.011106,165.81667 518.811108,166.291665 518.411106,166.675 C518.011104,167.058335 517.494442,167.25 516.861106,167.25 C516.127769,167.25 515.511108,166.900004 515.011106,166.2 L514.061106,164.7 L514.011106,164.7 C513.211102,165.600005 512.227778,166.299998 511.061106,166.8 C509.894433,167.300003 508.427781,167.55 506.661106,167.55 C503.961092,167.55 501.87778,166.925006 500.411106,165.675 C498.944432,164.424994 498.211106,162.650012 498.211106,160.35 C498.211106,157.849988 499.019431,155.991673 500.636106,154.775 C502.25278,153.558327 504.561091,152.95 507.561106,152.95 L513.011106,152.95 C513.211107,152.95 513.311106,152.850001 513.311106,152.65 L513.311106,151.5 C513.311106,149.799992 512.877777,148.500005 512.011106,147.6 C511.144435,146.699996 509.661116,146.25 507.561106,146.25 C506.627768,146.25 505.719443,146.374999 504.836106,146.625 C503.952768,146.875001 503.227775,147.149999 502.661106,147.45 C502.194437,147.683335 501.794441,147.8 501.461106,147.8 C500.894436,147.8 500.452774,147.641668 500.136106,147.325 C499.819437,147.008332 499.661106,146.56667 499.661106,146 C499.661106,145.666665 499.736105,145.350002 499.886106,145.05 C500.036106,144.749999 500.294437,144.500001 500.661106,144.3 C501.427776,143.799998 502.419433,143.375002 503.636106,143.025 C504.852778,142.674998 506.294431,142.5 507.961106,142.5 C511.194455,142.5 513.569431,143.249993 515.086106,144.75 C516.60278,146.250008 517.361106,148.483319 517.361106,151.45 L517.361106,160.05 C517.361106,160.683337 517.394439,161.158332 517.461106,161.475 C517.527773,161.791668 517.644438,162.133332 517.811106,162.5 L518.661106,164.05 Z M507.261106,163.95 C509.127782,163.95 510.602767,163.541671 511.686106,162.725 C512.769444,161.908329 513.311106,160.750008 513.311106,159.25 L513.311106,156.6 C513.311106,156.399999 513.211107,156.3 513.011106,156.3 L508.211106,156.3 C506.144429,156.3 504.63611,156.60833 503.686106,157.225 C502.736101,157.84167 502.261106,158.833327 502.261106,160.2 C502.261106,161.466673 502.694435,162.40833 503.561106,163.025 C504.427777,163.64167 505.661098,163.95 507.261106,163.95 Z M533.722216,167.25 C531.255537,167.25 529.522221,166.700006 528.522216,165.6 C527.522211,164.499995 527.022216,162.700013 527.022216,160.2 L527.022216,146.75 C527.022216,146.549999 526.922217,146.45 526.722216,146.45 L525.372216,146.45 C524.805547,146.45 524.363884,146.291668 524.047216,145.975 C523.730548,145.658332 523.572216,145.250003 523.572216,144.75 C523.572216,144.249998 523.730548,143.841668 524.047216,143.525 C524.363884,143.208332 524.805547,143.05 525.372216,143.05 L526.722216,143.05 C526.922217,143.05 527.022216,142.950001 527.022216,142.75 L527.022216,137.5 C527.022216,136.799997 527.222214,136.250002 527.622216,135.85 C528.022218,135.449998 528.522213,135.25 529.122216,135.25 C529.722219,135.25 530.222214,135.449998 530.622216,135.85 C531.022218,136.250002 531.222216,136.799997 531.222216,137.5 L531.222216,142.75 C531.222216,142.950001 531.322215,143.05 531.522216,143.05 L534.672216,143.05 C535.238886,143.05 535.680548,143.208332 535.997216,143.525 C536.313884,143.841668 536.472216,144.249998 536.472216,144.75 C536.472216,145.250003 536.313884,145.658332 535.997216,145.975 C535.680548,146.291668 535.238886,146.45 534.672216,146.45 L531.522216,146.45 C531.322215,146.45 531.222216,146.549999 531.222216,146.75 L531.222216,160.05 C531.222216,161.316673 531.438881,162.183331 531.872216,162.65 C532.305552,163.116669 533.155543,163.35 534.422216,163.35 C535.088886,163.35 535.597214,163.533332 535.947216,163.9 C536.297218,164.266669 536.472216,164.733331 536.472216,165.3 C536.472216,165.86667 536.288885,166.333332 535.922216,166.7 C535.555548,167.066669 534.988887,167.25 534.222216,167.25 L533.722216,167.25 Z M552.533327,167.55 C550.033314,167.55 547.966668,166.991672 546.333327,165.875 C544.699985,164.758328 543.549997,163.150011 542.883327,161.05 C542.616659,160.28333 542.416661,159.441671 542.283327,158.525 C542.149993,157.608329 542.083327,156.433341 542.083327,155 C542.083327,153.56666 542.14166,152.391671 542.258327,151.475 C542.374994,150.558329 542.566659,149.716671 542.833327,148.95 C543.499997,146.84999 544.649985,145.250006 546.283327,144.15 C547.916668,143.049995 549.883315,142.5 552.183327,142.5 C554.550005,142.5 556.541652,143.049995 558.158327,144.15 C559.775002,145.250006 560.916657,146.833323 561.583327,148.9 C562.116663,150.466675 562.383327,152.399989 562.383327,154.7 C562.383327,155.166669 562.233328,155.549999 561.933327,155.85 C561.633325,156.150002 561.233329,156.3 560.733327,156.3 L546.683327,156.3 C546.483326,156.3 546.383327,156.399999 546.383327,156.6 C546.383327,157.16667 546.408327,157.674998 546.458327,158.125 C546.508327,158.575002 546.616659,159.033331 546.783327,159.5 C547.249996,160.900007 547.999988,161.941663 549.033327,162.625 C550.066665,163.308337 551.333319,163.65 552.833327,163.65 C553.999999,163.65 555.024989,163.475002 555.908327,163.125 C556.791665,162.774998 557.683322,162.26667 558.583327,161.6 C559.083329,161.199998 559.566658,161 560.033327,161 C560.533329,161 560.949992,161.166665 561.283327,161.5 C561.616662,161.833335 561.783327,162.249998 561.783327,162.75 C561.783327,163.31667 561.566662,163.816665 561.133327,164.25 C560.099988,165.216672 558.875001,166.00833 557.458327,166.625 C556.041653,167.24167 554.400003,167.55 552.533327,167.55 Z M557.783327,152.95 C557.983328,152.95 558.083327,152.850001 558.083327,152.65 C558.083327,151.549995 557.966661,150.650004 557.733327,149.95 C557.333325,148.749994 556.658332,147.825003 555.708327,147.175 C554.758322,146.524997 553.6,146.2 552.233327,146.2 C550.866653,146.2 549.708332,146.524997 548.758327,147.175 C547.808322,147.825003 547.133329,148.749994 546.733327,149.95 C546.499992,150.650004 546.383327,151.549995 546.383327,152.65 C546.383327,152.850001 546.483326,152.95 546.683327,152.95 L557.783327,152.95 Z" id="SaaS-Template" fill-opacity="0.661571558" fill="#4A4A4A"></path>
            </g>
        </g>
    </g>
</svg>