<?xml version="1.0" encoding="UTF-8"?>
<svg width="268px" height="124px" viewBox="0 0 268 124" version="1.1" xmlns="http://www.w3.org/2000/svg" xmlns:xlink="http://www.w3.org/1999/xlink">
    <!-- Generator: Sketch 44.1 (41455) - http://www.bohemiancoding.com/sketch -->
    <title>salt-logo</title>
    <desc>Created with Sketch.</desc>
    <defs></defs>
    <g id="Page-1" stroke="none" stroke-width="1" fill="none" fill-rule="evenodd">
        <g id="salt-logo">
            <g>
                <rect id="Rectangle-2" x="0" y="0" width="268" height="124"></rect>
                <path d="M92.176,26.4959459 C92.032,32.1351351 92.032,37.9189189 92.032,43.5581081 C92.032,44.7148649 91.744,44.8594595 90.592,44.5702703 C86.128,42.9797297 81.664,41.5337838 77.2,40.0878378 C76.336,39.7986486 76.192,39.3648649 76.192,38.6418919 C76.192,31.7013514 76.192,24.7608108 76.192,17.8202703 C76.192,16.8081081 76.336,16.5189189 77.488,16.8081081 C81.952,18.2540541 86.416,19.7 90.88,21.1459459 C91.888,21.4351351 92.32,21.8689189 92.176,23.0256757 C92.032,24.0378378 92.176,25.3391892 92.176,26.4959459 Z" id="Shape" fill="#FF9800" fill-rule="nonzero"></path>
                <path d="M52.432,61.1986486 C52.432,64.5243243 52.432,67.85 52.432,71.1756757 C52.432,72.0432432 52.144,72.477027 51.28,72.7662162 C46.672,74.2121622 42.064,75.8027027 37.456,77.3932432 C36.592,77.6824324 36.448,77.3932432 36.448,76.6702703 C36.448,69.8743243 36.448,62.9337838 36.448,56.1378378 C36.448,55.2702703 36.736,54.6918919 37.6,54.4027027 C42.208,52.9567568 46.672,51.5108108 51.28,50.0648649 C52.288,49.7756757 52.432,49.9202703 52.432,50.9324324 C52.432,54.4027027 52.432,57.7283784 52.432,61.1986486 C52.432,61.1986486 52.432,61.1986486 52.432,61.1986486 Z" id="Shape" fill="#FF9800" fill-rule="nonzero"></path>
                <path d="M56.32,98.7932432 C56.32,95.4675676 56.32,92.1418919 56.32,88.8162162 C56.32,87.8040541 56.608,87.3702703 57.616,87.0810811 C61.792,85.9243243 65.968,84.4783784 70.144,83.0324324 C70.576,82.8878378 70.864,82.7432432 71.296,82.7432432 C72.016,82.5986486 72.304,82.8878378 72.304,83.6108108 C72.304,90.4067568 72.304,97.3472973 72.304,104.143243 C72.304,105.010811 71.728,105.3 71.152,105.444595 C67.12,106.745946 63.232,108.047297 59.2,109.348649 C59.056,109.348649 58.912,109.493243 58.624,109.493243 C56.32,110.360811 56.32,110.360811 56.32,107.758108 C56.32,104.721622 56.32,101.685135 56.32,98.7932432 Z" id="Shape" fill="#FF9800" fill-rule="nonzero"></path>
                <path d="M17.008,61.1986486 C17.008,57.872973 17.008,54.4027027 17.008,51.077027 C17.008,50.0648649 17.152,49.7756757 18.304,50.0648649 C22.912,51.5108108 27.376,52.9567568 31.984,54.4027027 C32.704,54.6918919 33.136,54.9810811 33.136,55.8486486 C33.136,62.6445946 33.136,69.4405405 33.136,76.2364865 C33.136,77.2486486 32.704,77.5378378 31.84,77.2486486 C27.52,75.5135135 23.056,74.2121622 18.592,72.7662162 C17.584,72.477027 17.152,72.0432432 17.296,70.8864865 C17.152,67.7054054 17.008,64.3797297 17.008,61.1986486 C17.008,61.1986486 17.008,61.1986486 17.008,61.1986486 Z" id="Shape" fill="#FF9800" fill-rule="nonzero"></path>
                <path d="M95.632,32.7135135 C95.632,29.8216216 95.632,26.9297297 95.632,24.0378378 C95.632,21.4351351 95.632,21.4351351 97.936,20.7121622 C102.112,19.5554054 106.144,18.1094595 110.176,16.8081081 C110.896,16.5189189 111.616,16.2297297 111.616,17.6756757 C111.616,24.327027 111.616,30.9783784 111.616,37.6297297 C111.616,38.7864865 111.328,39.2202703 110.176,39.5094595 C105.712,40.9554054 101.392,42.4013514 96.928,43.8472973 C95.776,44.2810811 95.632,43.9918919 95.632,42.8351351 C95.632,39.5094595 95.632,36.0391892 95.632,32.7135135 C95.632,32.7135135 95.632,32.7135135 95.632,32.7135135 Z" id="Shape" fill="#FF9800" fill-rule="nonzero"></path>
                <path d="M52.72,98.9378378 C52.72,102.263514 52.72,105.733784 52.72,109.059459 C52.72,110.216216 52.432,110.360811 51.424,109.927027 C47.104,108.481081 42.64,106.890541 38.176,105.444595 C37.024,105.155405 36.592,104.577027 36.592,103.42027 C36.592,96.9135135 36.592,90.4067568 36.592,83.9 C36.592,82.4540541 36.88,82.3094595 38.032,82.7432432 C42.208,84.0445946 46.24,85.3459459 50.416,86.7918919 C52.576,87.5148649 52.576,87.5148649 52.576,89.8283784 C52.72,93.0094595 52.72,95.9013514 52.72,98.9378378 Z" id="Shape" fill="#FF9800" fill-rule="nonzero"></path>
                <path d="M134.656,32.8581081 C134.656,29.5324324 134.656,26.0621622 134.656,22.7364865 C134.656,21.7243243 134.944,21.2905405 135.952,21.1459459 C140.416,19.7 144.736,18.3986486 149.2,16.8081081 C150.208,16.5189189 150.784,16.3743243 150.784,17.8202703 C150.64,24.4716216 150.64,30.9783784 150.784,37.6297297 C150.784,38.6418919 150.496,39.0756757 149.488,39.3648649 C145.024,40.8108108 140.56,42.2567568 136.096,43.8472973 C135.088,44.2810811 134.656,43.9918919 134.656,42.8351351 C134.656,39.5094595 134.512,36.1837838 134.656,32.8581081 C134.656,32.8581081 134.656,32.8581081 134.656,32.8581081 Z" id="Shape" fill="#FF9800" fill-rule="nonzero"></path>
                <path d="M72.448,65.9702703 C72.448,69.2959459 72.448,72.7662162 72.448,76.0918919 C72.448,77.2486486 72.304,77.5378378 71.008,77.1040541 C66.544,75.5135135 62.08,74.0675676 57.616,72.6216216 C56.752,72.3324324 56.464,72.0432432 56.464,71.0310811 C56.464,64.2351351 56.464,57.5837838 56.464,50.7878378 C56.464,49.7756757 56.752,49.4864865 57.76,49.7756757 C62.368,51.2216216 66.832,52.6675676 71.44,54.1135135 C72.448,54.4027027 72.592,55.1256757 72.592,55.8486486 C72.448,59.4635135 72.448,62.7891892 72.448,65.9702703 Z" id="Shape" fill="#FF9800" fill-rule="nonzero"></path>
                <path d="M76.048,66.2594595 C76.048,62.9337838 76.048,59.6081081 76.048,56.2824324 C76.048,55.1256757 76.336,54.6918919 77.488,54.4027027 C81.952,53.1013514 86.272,51.6554054 90.592,50.2094595 C91.744,49.7756757 92.032,50.0648649 92.032,51.2216216 C92.032,58.0175676 92.032,64.6689189 92.032,71.4648649 C92.032,72.1878378 91.744,72.477027 91.168,72.7662162 C86.56,74.3567568 81.808,75.8027027 77.2,77.5378378 C76.048,77.9716216 76.336,77.2486486 76.336,76.6702703 C76.192,73.0554054 76.192,69.5851351 76.048,66.2594595 C76.048,66.2594595 76.048,66.2594595 76.048,66.2594595 Z" id="Shape" fill="#FF9800" fill-rule="nonzero"></path>
                <path d="M130.912,32.8581081 C130.912,36.1837838 130.912,39.6540541 130.912,42.9797297 C130.912,43.9918919 130.624,44.2810811 129.616,43.8472973 C125.152,42.2567568 120.688,40.8108108 116.224,39.3648649 C115.504,39.0756757 115.072,38.7864865 115.072,37.9189189 C115.072,31.122973 115.072,24.327027 114.928,17.5310811 C114.928,16.5189189 115.36,16.3743243 116.224,16.6635135 C119.824,17.8202703 123.424,18.977027 127.168,20.1337838 C128.032,20.422973 128.752,20.8567568 129.616,21.0013514 C130.624,21.1459459 131.056,21.5797297 131.056,22.7364865 C131.056,26.2067568 131.056,29.5324324 130.912,32.8581081 C131.056,32.8581081 130.912,32.8581081 130.912,32.8581081 Z" id="Shape" fill="#FF9800" fill-rule="nonzero"></path>
                <path d="M49.12,47.3175676 C46.24,48.3297297 43.36,49.1972973 40.624,50.0648649 C39.04,50.4986486 37.456,50.9324324 36.016,51.5108108 C35.008,51.9445946 34.144,51.8 33.28,51.5108108 C29.248,50.2094595 25.072,48.9081081 21.04,47.6067568 C20.896,47.6067568 20.608,47.4621622 20.176,47.172973 C22.624,46.45 24.784,45.727027 26.944,45.0040541 C29.248,44.2810811 31.408,43.5581081 33.712,42.9797297 C34.288,42.8351351 34.864,42.6905405 35.296,42.8351351 C39.76,44.2810811 44.224,45.5824324 48.688,47.0283784 C48.832,47.0283784 48.832,47.172973 49.12,47.3175676 Z" id="Shape" fill="#FF9800" fill-rule="nonzero"></path>
                <path d="M68.848,79.9959459 C66.832,80.7189189 65.104,81.2972973 63.376,81.8756757 C60.928,82.5986486 58.624,83.4662162 56.176,84.1891892 C55.024,84.622973 54.016,84.622973 53.008,84.1891892 C48.976,82.8878378 44.944,81.5864865 40.912,80.2851351 C40.624,80.1405405 40.48,79.9959459 39.904,79.7067568 C42.352,78.9837838 44.368,78.2608108 46.384,77.6824324 C48.688,76.9594595 50.992,76.3810811 53.296,75.6581081 C53.872,75.5135135 54.592,75.3689189 55.168,75.5135135 C59.488,76.8148649 63.808,78.2608108 68.272,79.5621622 C68.416,79.7067568 68.416,79.7067568 68.848,79.9959459 Z" id="Shape" fill="#FF9800" fill-rule="nonzero"></path>
                <path d="M88.864,47.3175676 C83.968,48.9081081 79.36,50.3540541 74.752,51.9445946 C74.176,52.0891892 73.744,51.8 73.168,51.6554054 C69.136,50.3540541 65.104,49.0527027 60.928,47.7513514 C60.64,47.6067568 60.352,47.6067568 60.208,47.3175676 C60.496,46.8837838 60.928,46.8837838 61.36,46.7391892 C65.392,45.4378378 69.424,44.2810811 73.456,42.9797297 C74.032,42.8351351 74.608,42.8351351 75.04,42.9797297 C79.216,44.2810811 83.248,45.5824324 87.424,46.8837838 C87.856,46.8837838 88.288,47.0283784 88.864,47.3175676 Z" id="Shape" fill="#FF9800" fill-rule="nonzero"></path>
                <path d="M147.184,14.0608108 C143.44,15.3621622 139.696,16.3743243 136.096,17.8202703 C133.936,18.6878378 131.92,18.6878378 129.76,17.8202703 C126.16,16.5189189 122.416,15.3621622 118.672,14.2054054 C118.672,13.627027 118.96,13.627027 119.248,13.627027 C123.568,12.4702703 127.744,11.3135135 132.064,10.3013514 C132.496,10.1567568 133.072,10.1567568 133.36,10.3013514 C137.824,11.4581081 142.288,12.6148649 146.752,13.9162162 C146.896,13.627027 146.896,13.7716216 147.184,14.0608108 Z" id="Shape" fill="#FF9800" fill-rule="nonzero"></path>
                <path d="M56.064,32.2386499 C56.064,28.9129743 56.064,25.442704 56.064,22.1170283 C56.064,21.1048662 56.352,20.6710824 57.36,20.5264878 C61.824,19.0805418 66.144,17.7791905 70.608,16.1886499 C71.616,15.8994607 72.192,15.7548662 72.192,17.2008121 C72.048,23.8521634 72.048,30.3589202 72.192,37.0102716 C72.192,38.0224337 71.904,38.4562175 70.896,38.7454067 C66.432,40.1913526 61.968,41.6372986 57.504,43.2278391 C56.496,43.6616229 56.064,43.3724337 56.064,42.215677 C56.064,38.8900013 55.92,35.5643256 56.064,32.2386499 C56.064,32.2386499 56.064,32.2386499 56.064,32.2386499 Z" id="Shape" fill="#FF9800" fill-rule="nonzero"></path>
                <path d="M52.984,32.3261676 C52.984,35.6518433 52.984,39.1221136 52.984,42.4477893 C52.984,43.4599514 52.696,43.7491406 51.688,43.3153568 C47.224,41.7248163 42.76,40.2788704 38.296,38.8329244 C37.576,38.5437352 37.144,38.254546 37.144,37.3869785 C37.144,30.5910325 37.144,23.7950866 37,16.9991406 C37,15.9869785 37.432,15.8423839 38.296,16.1315731 C41.896,17.2883298 45.496,18.4450866 49.24,19.6018433 C50.104,19.8910325 50.824,20.3248163 51.688,20.4694109 C52.696,20.6140055 53.128,21.0477893 53.128,22.204546 C53.128,25.6748163 53.128,29.000492 52.984,32.3261676 C53.128,32.3261676 52.984,32.3261676 52.984,32.3261676 Z" id="Shape" fill="#FF9800" fill-rule="nonzero"></path>
                <path d="M68.512,13.8679054 C64.768,15.1692568 61.024,16.1814189 57.424,17.6273649 C55.264,18.4949324 53.248,18.4949324 51.088,17.6273649 C47.488,16.3260135 43.744,15.1692568 40,14.0125 C40,13.4341216 40.288,13.4341216 40.576,13.4341216 C44.896,12.2773649 49.072,11.1206081 53.392,10.1084459 C53.824,9.96385135 54.4,9.96385135 54.688,10.1084459 C59.152,11.2652027 63.616,12.4219595 68.08,13.7233108 C68.224,13.4341216 68.224,13.5787162 68.512,13.8679054 Z" id="Shape" fill="#FF9800" fill-rule="nonzero"></path>
                <path d="M108.016,14.0608108 C105.424,14.9283784 102.832,15.7959459 100.24,16.6635135 C99.664,16.8081081 99.088,16.9527027 98.512,17.2418919 C95.2,18.977027 92.032,18.3986486 88.72,17.0972973 C85.984,16.0851351 83.104,15.2175676 80.368,14.35 C80.08,14.2054054 79.936,14.0608108 79.504,13.9162162 C80.512,13.3378378 81.52,13.1932432 82.528,12.9040541 C85.84,12.0364865 89.152,11.1689189 92.32,10.3013514 C93.184,10.0121622 94.048,10.0121622 95.056,10.3013514 C99.088,11.4581081 103.12,12.4702703 107.152,13.4824324 C107.44,13.4824324 107.728,13.627027 107.872,13.7716216 C108.016,13.7716216 108.016,13.9162162 108.016,14.0608108 Z" id="Shape" fill="#FF9800" fill-rule="nonzero"></path>
                <path d="M127.483065,52.4923238 C124.663981,49.098982 121.601272,47.4632172 117.877297,47.4632172 C112.830789,47.4632172 108.77618,51.1175853 108.77618,55.9552727 C108.77618,67.5622419 125.168632,68.3627225 125.168632,77.8988832 C125.168632,81.2574215 122.123325,83.5544529 118.886599,83.5544529 C114.884196,83.5544529 112.413147,81.7446706 110.533757,78.4557393 L107.053407,80.4569409 C109.263429,84.7377721 113.109217,87.5568561 118.79959,87.5568561 C125.44706,87.5568561 129.553873,83.2760249 129.553873,77.2724201 C129.553873,66.1526999 113.057012,64.2211053 113.057012,56.1988972 C113.057012,52.8055554 115.562864,51.3264064 118.225332,51.3264064 C120.38315,51.3264064 122.279941,52.5097256 124.489963,54.8937657 L127.483065,52.4923238 Z M166.008123,87 L163.223842,80.1959146 L144.012307,80.1959146 L140.967,87 L136.146715,87 L154.227136,46.9063611 L170.723998,87 L166.008123,87 Z M161.570676,76.2283149 L154.053118,57.7998585 L145.839491,76.2283149 L161.570676,76.2283149 Z M180.083712,48.0200733 L180.083712,87 L196.928609,87 L196.928609,83.0324003 L184.468954,83.0324003 L184.468954,48.0200733 L180.083712,48.0200733 Z M225.482466,51.987673 L225.482466,48.0200733 L201.624663,48.0200733 L201.624663,51.987673 L211.369644,51.987673 L211.369644,87 L215.754886,87 L215.754886,51.987673 L225.482466,51.987673 Z" id="SALT" fill="#4A4A4A"></path>
                <path d="M78.26,96.4 C78.26,96.2199991 78.3124995,96.0750005 78.4175,95.965 C78.5225005,95.8549994 78.6699991,95.8 78.86,95.8 L82.025,95.8 C83.0550051,95.8 83.8249974,96.0424976 84.335,96.5275 C84.8450026,97.0125024 85.1,97.6599959 85.1,98.47 C85.1,99.070003 84.9750012,99.5524982 84.725,99.9175 C84.4749987,100.282502 84.1400021,100.544999 83.72,100.705 L83.72,100.735 C83.9000009,100.785 84.0824991,100.872499 84.2675,100.9975 C84.4525009,101.122501 84.6199993,101.284999 84.77,101.485 C84.9200007,101.685001 85.0424995,101.919999 85.1375,102.19 C85.2325005,102.460001 85.28,102.759998 85.28,103.09 C85.28,104.060005 84.9900029,104.787498 84.41,105.2725 C83.8299971,105.757502 83.0200052,106 81.98,106 L78.86,106 C78.459998,106 78.26,105.800002 78.26,105.4 L78.26,96.4 Z M81.995,100.21 C82.5650028,100.21 83.0049984,100.065001 83.315,99.775 C83.6250016,99.4849985 83.78,99.1000024 83.78,98.62 C83.78,98.1299975 83.6250016,97.7400014 83.315,97.45 C83.0049984,97.1599985 82.5650028,97.015 81.995,97.015 L79.685,97.015 C79.6249997,97.015 79.595,97.0449997 79.595,97.105 L79.595,100.12 C79.595,100.18 79.6249997,100.21 79.685,100.21 L81.995,100.21 Z M79.595,104.695 C79.595,104.755 79.6249997,104.785 79.685,104.785 L82.07,104.785 C82.680003,104.785 83.1449984,104.632502 83.465,104.3275 C83.7850016,104.022498 83.945,103.615003 83.945,103.105 C83.945,102.594997 83.7850016,102.187502 83.465,101.8825 C83.1449984,101.577498 82.680003,101.425 82.07,101.425 L79.685,101.425 C79.6249997,101.425 79.595,101.455 79.595,101.515 L79.595,104.695 Z M93.415,105.4 C93.415,105.610001 93.3550006,105.774999 93.235,105.895 C93.1149994,106.015001 92.9650009,106.075 92.785,106.075 C92.6049991,106.075 92.4550006,106.015001 92.335,105.895 C92.2149994,105.774999 92.155,105.610001 92.155,105.4 L92.155,105.19 L92.14,105.19 C91.9699992,105.470001 91.7200017,105.702499 91.39,105.8875 C91.0599984,106.072501 90.6500024,106.165 90.16,106.165 C89.3799961,106.165 88.7725022,105.920002 88.3375,105.43 C87.9024978,104.939998 87.685,104.285004 87.685,103.465 L87.685,99.415 C87.685,99.2049989 87.7449994,99.0400006 87.865,98.92 C87.9850006,98.7999994 88.1349991,98.74 88.315,98.74 C88.4950009,98.74 88.6449994,98.7999994 88.765,98.92 C88.8850006,99.0400006 88.945,99.2049989 88.945,99.415 L88.945,103.165 C88.945,103.745003 89.0749987,104.194998 89.335,104.515 C89.5950013,104.835002 89.9949973,104.995 90.535,104.995 C91.0250024,104.995 91.4174985,104.837502 91.7125,104.5225 C92.0075015,104.207498 92.155,103.780003 92.155,103.24 L92.155,99.415 C92.155,99.2049989 92.2149994,99.0400006 92.335,98.92 C92.4550006,98.7999994 92.6049991,98.74 92.785,98.74 C92.9650009,98.74 93.1149994,98.7999994 93.235,98.92 C93.3550006,99.0400006 93.415,99.2049989 93.415,99.415 L93.415,105.4 Z M98.805,106.165 C98.2549973,106.165 97.7575022,106.085001 97.3125,105.925 C96.8674978,105.764999 96.4950015,105.580001 96.195,105.37 C95.994999,105.229999 95.895,105.055001 95.895,104.845 C95.895,104.694999 95.9499995,104.562501 96.06,104.4475 C96.1700005,104.332499 96.3099992,104.275 96.48,104.275 C96.5400003,104.275 96.6024997,104.285 96.6675,104.305 C96.7325003,104.325 96.8099995,104.36 96.9,104.41 C97.1900014,104.580001 97.4949984,104.727499 97.815,104.8525 C98.1350016,104.977501 98.4999979,105.04 98.91,105.04 C99.4300026,105.04 99.8224987,104.940001 100.0875,104.74 C100.352501,104.539999 100.485,104.280002 100.485,103.96 C100.485,103.659998 100.392501,103.430001 100.2075,103.27 C100.022499,103.109999 99.6450028,103 99.075,102.94 L98.325,102.865 C97.6149965,102.785 97.0800018,102.572502 96.72,102.2275 C96.3599982,101.882498 96.18,101.420003 96.18,100.84 C96.18,100.149997 96.4099977,99.6125019 96.87,99.2275 C97.3300023,98.8424981 97.9849957,98.65 98.835,98.65 C99.2550021,98.65 99.6474982,98.6974995 100.0125,98.7925 C100.377502,98.8875005 100.699999,99.0149992 100.98,99.175 C101.230001,99.3050006 101.355,99.4799989 101.355,99.7 C101.355,99.8500007 101.302501,99.9774995 101.1975,100.0825 C101.092499,100.187501 100.965001,100.24 100.815,100.24 C100.684999,100.24 100.535001,100.2 100.365,100.12 C100.124999,100.009999 99.8725013,99.9200003 99.6075,99.85 C99.3424987,99.7799996 99.0650014,99.745 98.775,99.745 C98.3249977,99.745 97.9850011,99.8374991 97.755,100.0225 C97.5249989,100.207501 97.41,100.444999 97.41,100.735 C97.41,101.025001 97.509999,101.247499 97.71,101.4025 C97.910001,101.557501 98.2799973,101.66 98.82,101.71 L99.57,101.785 C100.320004,101.865 100.867498,102.077498 101.2125,102.4225 C101.557502,102.767502 101.73,103.234997 101.73,103.825 C101.73,104.535004 101.482502,105.102498 100.9875,105.5275 C100.492498,105.952502 99.7650048,106.165 98.805,106.165 Z M104.855,97.375 C104.624999,97.375 104.430001,97.2950008 104.27,97.135 C104.109999,96.9749992 104.03,96.7800011 104.03,96.55 C104.03,96.3199988 104.109999,96.1250008 104.27,95.965 C104.430001,95.8049992 104.624999,95.725 104.855,95.725 C105.085001,95.725 105.279999,95.8049992 105.44,95.965 C105.600001,96.1250008 105.68,96.3199988 105.68,96.55 C105.68,96.7800011 105.600001,96.9749992 105.44,97.135 C105.279999,97.2950008 105.085001,97.375 104.855,97.375 Z M104.225,99.415 C104.225,99.2049989 104.284999,99.0400006 104.405,98.92 C104.525001,98.7999994 104.674999,98.74 104.855,98.74 C105.035001,98.74 105.184999,98.7999994 105.305,98.92 C105.425001,99.0400006 105.485,99.2049989 105.485,99.415 L105.485,105.4 C105.485,105.610001 105.425001,105.774999 105.305,105.895 C105.184999,106.015001 105.035001,106.075 104.855,106.075 C104.674999,106.075 104.525001,106.015001 104.405,105.895 C104.284999,105.774999 104.225,105.610001 104.225,105.4 L104.225,99.415 Z M108.445,99.415 C108.445,99.2049989 108.504999,99.0400006 108.625,98.92 C108.745001,98.7999994 108.894999,98.74 109.075,98.74 C109.255001,98.74 109.404999,98.7999994 109.525,98.92 C109.645001,99.0400006 109.705,99.2049989 109.705,99.415 L109.705,99.625 L109.72,99.625 C109.890001,99.3449986 110.144998,99.1125009 110.485,98.9275 C110.825002,98.7424991 111.239998,98.65 111.73,98.65 C112.510004,98.65 113.119998,98.8949975 113.56,99.385 C114.000002,99.8750024 114.22,100.529996 114.22,101.35 L114.22,105.4 C114.22,105.610001 114.160001,105.774999 114.04,105.895 C113.919999,106.015001 113.770001,106.075 113.59,106.075 C113.409999,106.075 113.260001,106.015001 113.14,105.895 C113.019999,105.774999 112.96,105.610001 112.96,105.4 L112.96,101.65 C112.96,101.069997 112.827501,100.620002 112.5625,100.3 C112.297499,99.9799984 111.895003,99.82 111.355,99.82 C110.864998,99.82 110.467502,99.9774984 110.1625,100.2925 C109.857498,100.607502 109.705,101.034997 109.705,101.575 L109.705,105.4 C109.705,105.610001 109.645001,105.774999 109.525,105.895 C109.404999,106.015001 109.255001,106.075 109.075,106.075 C108.894999,106.075 108.745001,106.015001 108.625,105.895 C108.504999,105.774999 108.445,105.610001 108.445,105.4 L108.445,99.415 Z M119.805,106.165 C119.054996,106.165 118.435002,105.997502 117.945,105.6625 C117.454998,105.327498 117.110001,104.845003 116.91,104.215 C116.83,103.984999 116.77,103.732501 116.73,103.4575 C116.69,103.182499 116.67,102.830002 116.67,102.4 C116.67,101.969998 116.6875,101.617501 116.7225,101.3425 C116.7575,101.067499 116.815,100.815001 116.895,100.585 C117.095001,99.9549968 117.439998,99.4750016 117.93,99.145 C118.420002,98.8149983 119.009997,98.65 119.7,98.65 C120.410004,98.65 121.007498,98.8149983 121.4925,99.145 C121.977502,99.4750016 122.319999,99.9499969 122.52,100.57 C122.680001,101.040002 122.76,101.619997 122.76,102.31 C122.76,102.450001 122.715,102.565 122.625,102.655 C122.535,102.745 122.415001,102.79 122.265,102.79 L118.05,102.79 C117.99,102.79 117.96,102.82 117.96,102.88 C117.96,103.050001 117.9675,103.202499 117.9825,103.3375 C117.9975,103.472501 118.03,103.609999 118.08,103.75 C118.220001,104.170002 118.444998,104.482499 118.755,104.6875 C119.065002,104.892501 119.444998,104.995 119.895,104.995 C120.245002,104.995 120.552499,104.942501 120.8175,104.8375 C121.082501,104.732499 121.349999,104.580001 121.62,104.38 C121.770001,104.259999 121.914999,104.2 122.055,104.2 C122.205001,104.2 122.329999,104.249999 122.43,104.35 C122.53,104.45 122.58,104.574999 122.58,104.725 C122.58,104.895001 122.515001,105.044999 122.385,105.175 C122.074998,105.465001 121.707502,105.702499 121.2825,105.8875 C120.857498,106.072501 120.365003,106.165 119.805,106.165 Z M121.38,101.785 C121.44,101.785 121.47,101.755 121.47,101.695 C121.47,101.364998 121.435,101.095001 121.365,100.885 C121.244999,100.524998 121.042501,100.247501 120.7575,100.0525 C120.472499,99.857499 120.125002,99.76 119.715,99.76 C119.304998,99.76 118.957501,99.857499 118.6725,100.0525 C118.387499,100.247501 118.185001,100.524998 118.065,100.885 C117.995,101.095001 117.96,101.364998 117.96,101.695 C117.96,101.755 117.99,101.785 118.05,101.785 L121.38,101.785 Z M127.715,106.165 C127.164997,106.165 126.667502,106.085001 126.2225,105.925 C125.777498,105.764999 125.405001,105.580001 125.105,105.37 C124.904999,105.229999 124.805,105.055001 124.805,104.845 C124.805,104.694999 124.859999,104.562501 124.97,104.4475 C125.080001,104.332499 125.219999,104.275 125.39,104.275 C125.45,104.275 125.5125,104.285 125.5775,104.305 C125.6425,104.325 125.72,104.36 125.81,104.41 C126.100001,104.580001 126.404998,104.727499 126.725,104.8525 C127.045002,104.977501 127.409998,105.04 127.82,105.04 C128.340003,105.04 128.732499,104.940001 128.9975,104.74 C129.262501,104.539999 129.395,104.280002 129.395,103.96 C129.395,103.659998 129.302501,103.430001 129.1175,103.27 C128.932499,103.109999 128.555003,103 127.985,102.94 L127.235,102.865 C126.524996,102.785 125.990002,102.572502 125.63,102.2275 C125.269998,101.882498 125.09,101.420003 125.09,100.84 C125.09,100.149997 125.319998,99.6125019 125.78,99.2275 C126.240002,98.8424981 126.894996,98.65 127.745,98.65 C128.165002,98.65 128.557498,98.6974995 128.9225,98.7925 C129.287502,98.8875005 129.609999,99.0149992 129.89,99.175 C130.140001,99.3050006 130.265,99.4799989 130.265,99.7 C130.265,99.8500007 130.212501,99.9774995 130.1075,100.0825 C130.002499,100.187501 129.875001,100.24 129.725,100.24 C129.594999,100.24 129.445001,100.2 129.275,100.12 C129.034999,100.009999 128.782501,99.9200003 128.5175,99.85 C128.252499,99.7799996 127.975001,99.745 127.685,99.745 C127.234998,99.745 126.895001,99.8374991 126.665,100.0225 C126.434999,100.207501 126.32,100.444999 126.32,100.735 C126.32,101.025001 126.419999,101.247499 126.62,101.4025 C126.820001,101.557501 127.189997,101.66 127.73,101.71 L128.48,101.785 C129.230004,101.865 129.777498,102.077498 130.1225,102.4225 C130.467502,102.767502 130.64,103.234997 130.64,103.825 C130.64,104.535004 130.392502,105.102498 129.8975,105.5275 C129.402498,105.952502 128.675005,106.165 127.715,106.165 Z M135.565,106.165 C135.014997,106.165 134.517502,106.085001 134.0725,105.925 C133.627498,105.764999 133.255002,105.580001 132.955,105.37 C132.754999,105.229999 132.655,105.055001 132.655,104.845 C132.655,104.694999 132.709999,104.562501 132.82,104.4475 C132.930001,104.332499 133.069999,104.275 133.24,104.275 C133.3,104.275 133.3625,104.285 133.4275,104.305 C133.4925,104.325 133.57,104.36 133.66,104.41 C133.950001,104.580001 134.254998,104.727499 134.575,104.8525 C134.895002,104.977501 135.259998,105.04 135.67,105.04 C136.190003,105.04 136.582499,104.940001 136.8475,104.74 C137.112501,104.539999 137.245,104.280002 137.245,103.96 C137.245,103.659998 137.152501,103.430001 136.9675,103.27 C136.782499,103.109999 136.405003,103 135.835,102.94 L135.085,102.865 C134.374996,102.785 133.840002,102.572502 133.48,102.2275 C133.119998,101.882498 132.94,101.420003 132.94,100.84 C132.94,100.149997 133.169998,99.6125019 133.63,99.2275 C134.090002,98.8424981 134.744996,98.65 135.595,98.65 C136.015002,98.65 136.407498,98.6974995 136.7725,98.7925 C137.137502,98.8875005 137.459999,99.0149992 137.74,99.175 C137.990001,99.3050006 138.115,99.4799989 138.115,99.7 C138.115,99.8500007 138.062501,99.9774995 137.9575,100.0825 C137.852499,100.187501 137.725001,100.24 137.575,100.24 C137.444999,100.24 137.295001,100.2 137.125,100.12 C136.884999,100.009999 136.632501,99.9200003 136.3675,99.85 C136.102499,99.7799996 135.825001,99.745 135.535,99.745 C135.084998,99.745 134.745001,99.8374991 134.515,100.0225 C134.284999,100.207501 134.17,100.444999 134.17,100.735 C134.17,101.025001 134.269999,101.247499 134.47,101.4025 C134.670001,101.557501 135.039997,101.66 135.58,101.71 L136.33,101.785 C137.080004,101.865 137.627498,102.077498 137.9725,102.4225 C138.317502,102.767502 138.49,103.234997 138.49,103.825 C138.49,104.535004 138.242502,105.102498 137.7475,105.5275 C137.252498,105.952502 136.525005,106.165 135.565,106.165 Z M145.145,96.445 C145.145,96.2149988 145.207499,96.0375006 145.3325,95.9125 C145.457501,95.7874994 145.619999,95.725 145.82,95.725 C146.020001,95.725 146.179999,95.7874994 146.3,95.9125 C146.420001,96.0375006 146.48,96.2149988 146.48,96.445 L146.48,100.135 C146.48,100.195 146.51,100.225 146.57,100.225 L150.995,100.225 C151.055,100.225 151.085,100.195 151.085,100.135 L151.085,96.445 C151.085,96.2149988 151.147499,96.0375006 151.2725,95.9125 C151.397501,95.7874994 151.559999,95.725 151.76,95.725 C151.960001,95.725 152.119999,95.7874994 152.24,95.9125 C152.360001,96.0375006 152.42,96.2149988 152.42,96.445 L152.42,105.355 C152.42,105.585001 152.360001,105.762499 152.24,105.8875 C152.119999,106.012501 151.960001,106.075 151.76,106.075 C151.559999,106.075 151.397501,106.012501 151.2725,105.8875 C151.147499,105.762499 151.085,105.585001 151.085,105.355 L151.085,101.56 C151.085,101.5 151.055,101.47 150.995,101.47 L146.57,101.47 C146.51,101.47 146.48,101.5 146.48,101.56 L146.48,105.355 C146.48,105.585001 146.420001,105.762499 146.3,105.8875 C146.179999,106.012501 146.020001,106.075 145.82,106.075 C145.619999,106.075 145.457501,106.012501 145.3325,105.8875 C145.207499,105.762499 145.145,105.585001 145.145,105.355 L145.145,96.445 Z M161.32,95.8 C161.520001,95.8 161.679999,95.8599994 161.8,95.98 C161.920001,96.1000006 161.98,96.2499991 161.98,96.43 C161.98,96.6000008 161.920001,96.7449994 161.8,96.865 C161.679999,96.9850006 161.520001,97.045 161.32,97.045 L158.965,97.045 C158.905,97.045 158.875,97.0749997 158.875,97.135 L158.875,105.355 C158.875,105.585001 158.815001,105.762499 158.695,105.8875 C158.574999,106.012501 158.415001,106.075 158.215,106.075 C158.014999,106.075 157.852501,106.012501 157.7275,105.8875 C157.602499,105.762499 157.54,105.585001 157.54,105.355 L157.54,97.135 C157.54,97.0749997 157.51,97.045 157.45,97.045 L155.095,97.045 C154.894999,97.045 154.735001,96.9850006 154.615,96.865 C154.494999,96.7449994 154.435,96.6000008 154.435,96.43 C154.435,96.2499991 154.494999,96.1000006 154.615,95.98 C154.735001,95.8599994 154.894999,95.8 155.095,95.8 L161.32,95.8 Z M163.995,96.55 C163.995,96.2899987 164.062499,96.0875007 164.1975,95.9425 C164.332501,95.7974993 164.514999,95.725 164.745,95.725 C164.945001,95.725 165.107499,95.7849994 165.2325,95.905 C165.357501,96.0250006 165.474999,96.2049988 165.585,96.445 L168.405,102.82 L168.45,102.82 L171.225,96.445 C171.335001,96.2049988 171.449999,96.0250006 171.57,95.905 C171.690001,95.7849994 171.849999,95.725 172.05,95.725 C172.280001,95.725 172.462499,95.7974993 172.5975,95.9425 C172.732501,96.0875007 172.8,96.2899987 172.8,96.55 L172.8,105.4 C172.8,105.610001 172.742501,105.774999 172.6275,105.895 C172.512499,106.015001 172.360001,106.075 172.17,106.075 C171.979999,106.075 171.830001,106.015001 171.72,105.895 C171.609999,105.774999 171.555,105.610001 171.555,105.4 L171.555,98.755 L171.51,98.755 L169.17,103.93 C169.049999,104.190001 168.932501,104.365 168.8175,104.455 C168.702499,104.545 168.560001,104.59 168.39,104.59 C168.219999,104.59 168.080001,104.545 167.97,104.455 C167.859999,104.365 167.745001,104.190001 167.625,103.93 L165.285,98.755 L165.24,98.755 L165.24,105.4 C165.24,105.610001 165.185001,105.774999 165.075,105.895 C164.964999,106.015001 164.815001,106.075 164.625,106.075 C164.434999,106.075 164.282501,106.015001 164.1675,105.895 C164.052499,105.774999 163.995,105.610001 163.995,105.4 L163.995,96.55 Z M175.82,96.445 C175.82,96.2149988 175.879999,96.0375006 176,95.9125 C176.120001,95.7874994 176.279999,95.725 176.48,95.725 C176.680001,95.725 176.842499,95.7874994 176.9675,95.9125 C177.092501,96.0375006 177.155,96.2149988 177.155,96.445 L177.155,104.665 C177.155,104.725 177.185,104.755 177.245,104.755 L181.67,104.755 C181.870001,104.755 182.029999,104.814999 182.15,104.935 C182.270001,105.055001 182.33,105.199999 182.33,105.37 C182.33,105.550001 182.270001,105.699999 182.15,105.82 C182.029999,105.940001 181.870001,106 181.67,106 L176.465,106 C176.264999,106 176.107501,105.940001 175.9925,105.82 C175.877499,105.699999 175.82,105.540001 175.82,105.34 L175.82,96.445 Z M194.235,95.8 C194.435001,95.8 194.594999,95.8599994 194.715,95.98 C194.835001,96.1000006 194.895,96.2499991 194.895,96.43 C194.895,96.6000008 194.835001,96.7449994 194.715,96.865 C194.594999,96.9850006 194.435001,97.045 194.235,97.045 L191.88,97.045 C191.82,97.045 191.79,97.0749997 191.79,97.135 L191.79,105.355 C191.79,105.585001 191.730001,105.762499 191.61,105.8875 C191.489999,106.012501 191.330001,106.075 191.13,106.075 C190.929999,106.075 190.767501,106.012501 190.6425,105.8875 C190.517499,105.762499 190.455,105.585001 190.455,105.355 L190.455,97.135 C190.455,97.0749997 190.425,97.045 190.365,97.045 L188.01,97.045 C187.809999,97.045 187.650001,96.9850006 187.53,96.865 C187.409999,96.7449994 187.35,96.6000008 187.35,96.43 C187.35,96.2499991 187.409999,96.1000006 187.53,95.98 C187.650001,95.8599994 187.809999,95.8 188.01,95.8 L194.235,95.8 Z M199.58,106.165 C198.829996,106.165 198.210002,105.997502 197.72,105.6625 C197.229998,105.327498 196.885001,104.845003 196.685,104.215 C196.605,103.984999 196.545,103.732501 196.505,103.4575 C196.465,103.182499 196.445,102.830002 196.445,102.4 C196.445,101.969998 196.4625,101.617501 196.4975,101.3425 C196.5325,101.067499 196.59,100.815001 196.67,100.585 C196.870001,99.9549968 197.214998,99.4750016 197.705,99.145 C198.195002,98.8149983 198.784997,98.65 199.475,98.65 C200.185004,98.65 200.782498,98.8149983 201.2675,99.145 C201.752502,99.4750016 202.094999,99.9499969 202.295,100.57 C202.455001,101.040002 202.535,101.619997 202.535,102.31 C202.535,102.450001 202.49,102.565 202.4,102.655 C202.31,102.745 202.190001,102.79 202.04,102.79 L197.825,102.79 C197.765,102.79 197.735,102.82 197.735,102.88 C197.735,103.050001 197.7425,103.202499 197.7575,103.3375 C197.7725,103.472501 197.805,103.609999 197.855,103.75 C197.995001,104.170002 198.219998,104.482499 198.53,104.6875 C198.840002,104.892501 199.219998,104.995 199.67,104.995 C200.020002,104.995 200.327499,104.942501 200.5925,104.8375 C200.857501,104.732499 201.124999,104.580001 201.395,104.38 C201.545001,104.259999 201.689999,104.2 201.83,104.2 C201.980001,104.2 202.105,104.249999 202.205,104.35 C202.305001,104.45 202.355,104.574999 202.355,104.725 C202.355,104.895001 202.290001,105.044999 202.16,105.175 C201.849998,105.465001 201.482502,105.702499 201.0575,105.8875 C200.632498,106.072501 200.140003,106.165 199.58,106.165 Z M201.155,101.785 C201.215,101.785 201.245,101.755 201.245,101.695 C201.245,101.364998 201.21,101.095001 201.14,100.885 C201.019999,100.524998 200.817501,100.247501 200.5325,100.0525 C200.247499,99.857499 199.900002,99.76 199.49,99.76 C199.079998,99.76 198.732501,99.857499 198.4475,100.0525 C198.162499,100.247501 197.960001,100.524998 197.84,100.885 C197.77,101.095001 197.735,101.364998 197.735,101.695 C197.735,101.755 197.765,101.785 197.825,101.785 L201.155,101.785 Z M205.06,99.415 C205.06,99.2049989 205.119999,99.0400006 205.24,98.92 C205.360001,98.7999994 205.509999,98.74 205.69,98.74 C205.870001,98.74 206.019999,98.7999994 206.14,98.92 C206.260001,99.0400006 206.32,99.2049989 206.32,99.415 L206.32,99.625 L206.335,99.625 C206.535001,99.3349985 206.797498,99.1000009 207.1225,98.92 C207.447502,98.7399991 207.854998,98.65 208.345,98.65 C208.845003,98.65 209.269998,98.749999 209.62,98.95 C209.970002,99.150001 210.244999,99.4249982 210.445,99.775 L210.46,99.775 C210.700001,99.4349983 211.004998,99.162501 211.375,98.9575 C211.745002,98.752499 212.214997,98.65 212.785,98.65 C213.595004,98.65 214.224998,98.8874976 214.675,99.3625 C215.125002,99.8375024 215.35,100.499996 215.35,101.35 L215.35,105.4 C215.35,105.610001 215.290001,105.774999 215.17,105.895 C215.049999,106.015001 214.900001,106.075 214.72,106.075 C214.539999,106.075 214.390001,106.015001 214.27,105.895 C214.149999,105.774999 214.09,105.610001 214.09,105.4 L214.09,101.65 C214.09,101.069997 213.957501,100.620002 213.6925,100.3 C213.427499,99.9799984 213.025003,99.82 212.485,99.82 C211.994998,99.82 211.597502,99.9774984 211.2925,100.2925 C210.987498,100.607502 210.835,101.034997 210.835,101.575 L210.835,105.4 C210.835,105.610001 210.775001,105.774999 210.655,105.895 C210.534999,106.015001 210.385001,106.075 210.205,106.075 C210.024999,106.075 209.875001,106.015001 209.755,105.895 C209.634999,105.774999 209.575,105.610001 209.575,105.4 L209.575,101.65 C209.575,101.069997 209.442501,100.620002 209.1775,100.3 C208.912499,99.9799984 208.510003,99.82 207.97,99.82 C207.479998,99.82 207.082502,99.9774984 206.7775,100.2925 C206.472498,100.607502 206.32,101.034997 206.32,101.575 L206.32,105.4 C206.32,105.610001 206.260001,105.774999 206.14,105.895 C206.019999,106.015001 205.870001,106.075 205.69,106.075 C205.509999,106.075 205.360001,106.015001 205.24,105.895 C205.119999,105.774999 205.06,105.610001 205.06,105.4 L205.06,99.415 Z M218.865,108.775 C218.684999,108.775 218.535001,108.715001 218.415,108.595 C218.294999,108.474999 218.235,108.310001 218.235,108.1 L218.235,99.415 C218.235,99.2049989 218.294999,99.0400006 218.415,98.92 C218.535001,98.7999994 218.684999,98.74 218.865,98.74 C219.045001,98.74 219.194999,98.7999994 219.315,98.92 C219.435001,99.0400006 219.495,99.2049989 219.495,99.415 L219.495,99.61 L219.51,99.61 C219.680001,99.3199985 219.927498,99.0875009 220.2525,98.9125 C220.577502,98.7374991 221.009997,98.65 221.55,98.65 C222.160003,98.65 222.677498,98.8074984 223.1025,99.1225 C223.527502,99.4375016 223.834999,99.8799971 224.025,100.45 C224.115,100.740001 224.18,101.034998 224.22,101.335 C224.26,101.635001 224.28,101.994998 224.28,102.415 C224.28,102.825002 224.26,103.179998 224.22,103.48 C224.18,103.780001 224.115,104.074999 224.025,104.365 C223.834999,104.935003 223.527502,105.377498 223.1025,105.6925 C222.677498,106.007502 222.160003,106.165 221.55,106.165 C221.009997,106.165 220.577502,106.075001 220.2525,105.895 C219.927498,105.714999 219.680001,105.485001 219.51,105.205 L219.495,105.205 L219.495,108.1 C219.495,108.310001 219.435001,108.474999 219.315,108.595 C219.194999,108.715001 219.045001,108.775 218.865,108.775 Z M221.25,104.995 C221.650002,104.995 221.982499,104.897501 222.2475,104.7025 C222.512501,104.507499 222.704999,104.230002 222.825,103.87 C222.895,103.669999 222.94,103.455001 222.96,103.225 C222.98,102.994999 222.99,102.725002 222.99,102.415 C222.99,102.094998 222.98,101.820001 222.96,101.59 C222.94,101.359999 222.895,101.145001 222.825,100.945 C222.704999,100.584998 222.512501,100.307501 222.2475,100.1125 C221.982499,99.917499 221.650002,99.82 221.25,99.82 C220.839998,99.82 220.502501,99.917499 220.2375,100.1125 C219.972499,100.307501 219.780001,100.584998 219.66,100.945 C219.59,101.145001 219.545,101.359999 219.525,101.59 C219.505,101.820001 219.495,102.094998 219.495,102.415 C219.495,102.725002 219.505,102.994999 219.525,103.225 C219.545,103.455001 219.59,103.669999 219.66,103.87 C219.780001,104.230002 219.972499,104.507499 220.2375,104.7025 C220.502501,104.897501 220.839998,104.995 221.25,104.995 Z M228.53,106.075 C227.879997,106.075 227.425001,105.917502 227.165,105.6025 C226.904999,105.287498 226.775,104.805003 226.775,104.155 L226.775,96.4 C226.775,96.1899989 226.834999,96.0250006 226.955,95.905 C227.075001,95.7849994 227.224999,95.725 227.405,95.725 C227.585001,95.725 227.734999,95.7849994 227.855,95.905 C227.975001,96.0250006 228.035,96.1899989 228.035,96.4 L228.035,104.08 C228.035,104.380001 228.087499,104.592499 228.1925,104.7175 C228.297501,104.842501 228.474999,104.905 228.725,104.905 C228.905001,104.905 229.047499,104.959999 229.1525,105.07 C229.257501,105.180001 229.31,105.319999 229.31,105.49 C229.31,105.660001 229.255001,105.799999 229.145,105.91 C229.034999,106.020001 228.875001,106.075 228.665,106.075 L228.53,106.075 Z M237.265,105.115 C237.335,105.235001 237.37,105.354999 237.37,105.475 C237.37,105.645001 237.310001,105.787499 237.19,105.9025 C237.069999,106.017501 236.915001,106.075 236.725,106.075 C236.504999,106.075 236.320001,105.970001 236.17,105.76 L235.885,105.31 L235.87,105.31 C235.629999,105.580001 235.335002,105.789999 234.985,105.94 C234.634998,106.090001 234.195003,106.165 233.665,106.165 C232.854996,106.165 232.230002,105.977502 231.79,105.6025 C231.349998,105.227498 231.13,104.695003 231.13,104.005 C231.13,103.254996 231.372498,102.697502 231.8575,102.3325 C232.342502,101.967498 233.034996,101.785 233.935,101.785 L235.57,101.785 C235.63,101.785 235.66,101.755 235.66,101.695 L235.66,101.35 C235.66,100.839997 235.530001,100.450001 235.27,100.18 C235.009999,99.9099986 234.565003,99.775 233.935,99.775 C233.654999,99.775 233.382501,99.8124996 233.1175,99.8875 C232.852499,99.9625004 232.635001,100.045 232.465,100.135 C232.324999,100.205 232.205001,100.24 232.105,100.24 C231.934999,100.24 231.8025,100.1925 231.7075,100.0975 C231.6125,100.0025 231.565,99.8700008 231.565,99.7 C231.565,99.5999995 231.5875,99.5050004 231.6325,99.415 C231.6775,99.3249995 231.754999,99.2500003 231.865,99.19 C232.095001,99.0399992 232.392498,98.9125005 232.7575,98.8075 C233.122502,98.7024995 233.554998,98.65 234.055,98.65 C235.025005,98.65 235.737498,98.8749977 236.1925,99.325 C236.647502,99.7750022 236.875,100.444996 236.875,101.335 L236.875,103.915 C236.875,104.105001 236.885,104.2475 236.905,104.3425 C236.925,104.4375 236.96,104.539999 237.01,104.65 L237.265,105.115 Z M233.845,105.085 C234.405003,105.085 234.847498,104.962501 235.1725,104.7175 C235.497502,104.472499 235.66,104.125002 235.66,103.675 L235.66,102.88 C235.66,102.82 235.63,102.79 235.57,102.79 L234.13,102.79 C233.509997,102.79 233.057501,102.882499 232.7725,103.0675 C232.487499,103.252501 232.345,103.549998 232.345,103.96 C232.345,104.340002 232.474999,104.622499 232.735,104.8075 C232.995001,104.992501 233.364998,105.085 233.845,105.085 Z M241.95,106.075 C241.209996,106.075 240.690002,105.910002 240.39,105.58 C240.089999,105.249998 239.94,104.710004 239.94,103.96 L239.94,99.925 C239.94,99.8649997 239.91,99.835 239.85,99.835 L239.445,99.835 C239.274999,99.835 239.1425,99.7875005 239.0475,99.6925 C238.9525,99.5974995 238.905,99.4750007 238.905,99.325 C238.905,99.1749992 238.9525,99.0525005 239.0475,98.9575 C239.1425,98.8624995 239.274999,98.815 239.445,98.815 L239.85,98.815 C239.91,98.815 239.94,98.7850003 239.94,98.725 L239.94,97.15 C239.94,96.9399989 239.999999,96.7750006 240.12,96.655 C240.240001,96.5349994 240.389999,96.475 240.57,96.475 C240.750001,96.475 240.899999,96.5349994 241.02,96.655 C241.140001,96.7750006 241.2,96.9399989 241.2,97.15 L241.2,98.725 C241.2,98.7850003 241.23,98.815 241.29,98.815 L242.235,98.815 C242.405001,98.815 242.5375,98.8624995 242.6325,98.9575 C242.7275,99.0525005 242.775,99.1749992 242.775,99.325 C242.775,99.4750007 242.7275,99.5974995 242.6325,99.6925 C242.5375,99.7875005 242.405001,99.835 242.235,99.835 L241.29,99.835 C241.23,99.835 241.2,99.8649997 241.2,99.925 L241.2,103.915 C241.2,104.295002 241.264999,104.554999 241.395,104.695 C241.525001,104.835001 241.779998,104.905 242.16,104.905 C242.360001,104.905 242.512499,104.959999 242.6175,105.07 C242.722501,105.180001 242.775,105.319999 242.775,105.49 C242.775,105.660001 242.720001,105.799999 242.61,105.91 C242.499999,106.020001 242.330001,106.075 242.1,106.075 L241.95,106.075 Z M247.76,106.165 C247.009996,106.165 246.390002,105.997502 245.9,105.6625 C245.409998,105.327498 245.065001,104.845003 244.865,104.215 C244.785,103.984999 244.725,103.732501 244.685,103.4575 C244.645,103.182499 244.625,102.830002 244.625,102.4 C244.625,101.969998 244.6425,101.617501 244.6775,101.3425 C244.7125,101.067499 244.77,100.815001 244.85,100.585 C245.050001,99.9549968 245.394998,99.4750016 245.885,99.145 C246.375002,98.8149983 246.964997,98.65 247.655,98.65 C248.365004,98.65 248.962498,98.8149983 249.4475,99.145 C249.932502,99.4750016 250.274999,99.9499969 250.475,100.57 C250.635001,101.040002 250.715,101.619997 250.715,102.31 C250.715,102.450001 250.67,102.565 250.58,102.655 C250.49,102.745 250.370001,102.79 250.22,102.79 L246.005,102.79 C245.945,102.79 245.915,102.82 245.915,102.88 C245.915,103.050001 245.9225,103.202499 245.9375,103.3375 C245.9525,103.472501 245.985,103.609999 246.035,103.75 C246.175001,104.170002 246.399998,104.482499 246.71,104.6875 C247.020002,104.892501 247.399998,104.995 247.85,104.995 C248.200002,104.995 248.507499,104.942501 248.7725,104.8375 C249.037501,104.732499 249.304999,104.580001 249.575,104.38 C249.725001,104.259999 249.869999,104.2 250.01,104.2 C250.160001,104.2 250.285,104.249999 250.385,104.35 C250.485001,104.45 250.535,104.574999 250.535,104.725 C250.535,104.895001 250.470001,105.044999 250.34,105.175 C250.029998,105.465001 249.662502,105.702499 249.2375,105.8875 C248.812498,106.072501 248.320003,106.165 247.76,106.165 Z M249.335,101.785 C249.395,101.785 249.425,101.755 249.425,101.695 C249.425,101.364998 249.39,101.095001 249.32,100.885 C249.199999,100.524998 248.997501,100.247501 248.7125,100.0525 C248.427499,99.857499 248.080002,99.76 247.67,99.76 C247.259998,99.76 246.912501,99.857499 246.6275,100.0525 C246.342499,100.247501 246.140001,100.524998 246.02,100.885 C245.95,101.095001 245.915,101.364998 245.915,101.695 C245.915,101.755 245.945,101.785 246.005,101.785 L249.335,101.785 Z" id="Business-HTML-Templa" fill="#4A4A4A"></path>
            </g>
        </g>
    </g>
</svg>