<?xml version="1.0" encoding="UTF-8"?>
<svg width="343px" height="185px" viewBox="0 0 343 185" version="1.1" xmlns="http://www.w3.org/2000/svg" xmlns:xlink="http://www.w3.org/1999/xlink">
    <!-- Generator: Sketch 44.1 (41455) - http://www.bohemiancoding.com/sketch -->
    <title>softease-logo</title>
    <desc>Created with Sketch.</desc>
    <defs></defs>
    <g id="Page-1" stroke="none" stroke-width="1" fill="none" fill-rule="evenodd">
        <g id="softease-logo">
            <g>
                <rect id="Rectangle-3" x="0" y="0" width="343" height="185"></rect>
                <g id="Group" transform="translate(173.000000, 76.000000) rotate(90.000000) translate(-173.000000, -76.000000) translate(108.000000, 18.000000)" fill-rule="nonzero">
                    <path d="M71.9886364,115.11 C71.6477273,115.11 71.1363636,115.11 70.7954545,115.11 C60.0568182,115.11 49.1477273,115.11 38.4090909,115.11 C34.1477273,115.11 31.25,113.41 29.2045455,109.67 C27.5,106.27 25.4545455,103.04 23.5795455,99.81 C16.5909091,87.57 9.60227273,75.5 2.61363636,63.26 C1.25,60.88 0.227272727,58.33 1.07954545,55.44 C1.25,54.76 1.42045455,54.08 1.93181818,53.4 C5.34090909,47.28 8.92045455,41.33 12.3295455,35.21 C12.5,35.04 12.6704545,34.87 12.8409091,34.7 C13.6931818,36.23 14.7159091,37.93 15.5681818,39.46 C18.9772727,45.41 22.3863636,51.36 25.9659091,57.31 C25.9659091,57.48 26.1363636,57.82 26.3068182,57.99 C32.6136364,69.04 39.0909091,80.09 45.3977273,90.97 C45.7386364,91.65 46.25,91.82 46.9318182,91.82 C59.2045455,91.82 71.6477273,91.82 83.9204545,91.82 C84.4318182,91.82 84.9431818,91.82 85.2840909,91.82 C85.2840909,91.99 85.1136364,92.16 85.1136364,92.33 C82.0454545,97.77 78.8068182,103.21 75.7386364,108.48 C74.2045455,111.03 72.8409091,112.9 71.9886364,115.11 Z" id="Shape" fill="#FFCF45"></path>
                    <path d="M71.9886364,115.11 C72.8409091,112.9 74.2045455,111.03 75.3977273,108.99 C78.4659091,103.55 81.5340909,98.11 84.7727273,92.84 C84.9431818,92.67 84.9431818,92.5 84.9431818,92.33 C85.2840909,92.33 85.4545455,91.99 85.625,91.65 C91.9318182,80.6 98.4090909,69.55 104.715909,58.5 C105.056818,57.99 105.056818,57.65 104.715909,57.14 C100.965909,50.68 97.2159091,44.39 93.6363636,37.93 C90.9090909,33.17 88.1818182,28.41 85.4545455,23.65 C85.7954545,23.65 86.3068182,23.65 86.6477273,23.65 C95,23.65 103.352273,23.65 111.534091,23.65 C114.431818,28.75 117.5,33.85 120.397727,38.95 C123.125,43.71 125.852273,48.47 128.579545,53.06 C130.454545,56.46 130.454545,59.69 128.579545,62.92 C119.375,78.73 110.340909,94.54 101.306818,110.35 C99.4318182,113.41 96.875,115.28 93.2954545,115.28 C85.9659091,115.11 78.9772727,115.11 71.9886364,115.11 Z" id="Shape" fill="#D94638"></path>
                    <path d="M111.363636,23.31 C103.011364,23.31 94.6590909,23.31 86.4772727,23.31 C86.1363636,23.31 85.625,23.31 85.2840909,23.31 C84.7727273,23.14 84.2613636,23.14 83.9204545,23.14 C71.4772727,23.14 59.2045455,23.14 46.7613636,23.14 C45.5681818,23.14 45.0568182,23.48 44.5454545,24.5 C41.3068182,30.11 38.0681818,35.55 35,41.16 C32.9545455,44.73 30.9090909,48.47 28.6931818,52.04 C27.6704545,53.91 26.4772727,55.61 25.4545455,57.48 C22.0454545,51.53 18.6363636,45.58 15.0568182,39.63 C14.2045455,38.1 13.1818182,36.4 12.3295455,34.87 C13.3522727,32.49 14.7159091,30.45 15.9090909,28.24 C20.3409091,20.42 24.9431818,12.6 29.375,4.78 C31.0795455,1.72 33.8068182,0.19 37.3863636,0.19 C55.9659091,0.19 74.375,0.19 92.9545455,0.19 C96.5340909,0.19 99.0909091,1.72 100.795455,4.78 C104.034091,10.56 107.443182,16.17 110.681818,21.95 C111.022727,22.63 111.193182,22.97 111.363636,23.31 Z" id="Shape" fill="#5C83C3"></path>
                </g>
                <path d="M25.8959956,159.096023 C25.6086627,158.69923 25.2187166,158.374275 24.7261459,158.121148 C24.2335751,157.868021 23.6794413,157.74146 23.0637278,157.74146 C22.7353473,157.74146 22.4035511,157.785928 22.0683293,157.874864 C21.7331075,157.9638 21.428676,158.107465 21.1550256,158.305861 C20.8813751,158.504258 20.6590375,158.750539 20.488006,159.044714 C20.3169745,159.338888 20.23146,159.691208 20.23146,160.101683 C20.23146,160.498476 20.3101333,160.830272 20.4674823,161.097082 C20.6248313,161.363891 20.8369072,161.589649 21.1037164,161.774363 C21.3705255,161.959077 21.6852188,162.116424 22.0478056,162.246408 C22.4103925,162.376392 22.7969179,162.509794 23.2073936,162.646619 C23.6999643,162.797127 24.1993689,162.968156 24.7056222,163.159711 C25.2118755,163.351267 25.6702331,163.60439 26.0807087,163.919088 C26.4911844,164.233786 26.8264011,164.627152 27.086369,165.099199 C27.346337,165.571246 27.476319,166.169848 27.476319,166.895021 C27.476319,167.64756 27.3360752,168.30089 27.0555835,168.855033 C26.7750918,169.409175 26.4022487,169.867532 25.937043,170.230119 C25.4718372,170.592706 24.9348063,170.862932 24.3259341,171.040805 C23.7170619,171.218677 23.0910959,171.307612 22.4480174,171.307612 C21.5312885,171.307612 20.6453585,171.129742 19.7902009,170.773997 C18.9350433,170.418251 18.2269834,169.891482 17.666,169.193673 L19.2463233,167.859634 C19.5883864,168.365887 20.046744,168.776357 20.6214099,169.091055 C21.1960758,169.405753 21.8186212,169.5631 22.4890648,169.5631 C22.8311278,169.5631 23.1731857,169.515211 23.5152488,169.419434 C23.8573118,169.323656 24.1685845,169.173151 24.4490762,168.967913 C24.7295679,168.762675 24.9587467,168.506132 25.1366195,168.198275 C25.3144922,167.890418 25.4034273,167.517575 25.4034273,167.079734 C25.4034273,166.641894 25.3110717,166.275892 25.1263576,165.981717 C24.9416436,165.687543 24.6919413,165.437841 24.3772433,165.232603 C24.0625453,165.027365 23.6965433,164.852916 23.2792264,164.709249 C22.8619095,164.565583 22.4206548,164.418498 21.9554491,164.26799 C21.4902433,164.131165 21.0318857,163.963557 20.5803625,163.76516 C20.1288393,163.566763 19.725211,163.313641 19.3694654,163.005784 C19.0137199,162.697927 18.7263912,162.318243 18.5074709,161.86672 C18.2885505,161.415196 18.179092,160.854221 18.179092,160.183778 C18.179092,159.458604 18.3261769,158.836059 18.6203511,158.316123 C18.9145253,157.796187 19.2976302,157.365194 19.7696772,157.023131 C20.2417242,156.681068 20.7753345,156.431366 21.3705242,156.274017 C21.9657139,156.116668 22.5643152,156.037995 23.1663462,156.037995 C24.0146625,156.037995 24.8082369,156.1885 25.5470931,156.489516 C26.2859492,156.790531 26.88113,157.194159 27.3326532,157.700413 L25.8959956,159.096023 Z M40.6684842,166.05355 C40.6684842,166.806089 40.5350816,167.497046 40.2682724,168.126442 C40.0014633,168.755838 39.6320407,169.29971 39.1599937,169.758075 C38.6879467,170.216439 38.1303923,170.572179 37.4873138,170.825306 C36.8442353,171.078433 36.1532783,171.204994 35.4144222,171.204994 C34.675566,171.204994 33.984609,171.078433 33.3415305,170.825306 C32.698452,170.572179 32.1443182,170.216439 31.6791124,169.758075 C31.2139067,169.29971 30.8479047,168.755838 30.5810956,168.126442 C30.3142864,167.497046 30.1808838,166.806089 30.1808838,166.05355 C30.1808838,165.301012 30.3142864,164.613475 30.5810956,163.99092 C30.8479047,163.368366 31.2139067,162.831335 31.6791124,162.379812 C32.1443182,161.928288 32.698452,161.575969 33.3415305,161.322842 C33.984609,161.069715 34.675566,160.943154 35.4144222,160.943154 C36.1532783,160.943154 36.8442353,161.069715 37.4873138,161.322842 C38.1303923,161.575969 38.6879467,161.928288 39.1599937,162.379812 C39.6320407,162.831335 40.0014633,163.368366 40.2682724,163.99092 C40.5350816,164.613475 40.6684842,165.301012 40.6684842,166.05355 Z M38.6571636,166.05355 C38.6571636,165.588345 38.5853314,165.143669 38.4416649,164.719511 C38.2979985,164.295353 38.0893431,163.92251 37.8156927,163.600971 C37.5420423,163.279431 37.2034049,163.022888 36.7997706,162.831333 C36.3961362,162.639777 35.934358,162.544001 35.4144222,162.544001 C34.8944863,162.544001 34.4327082,162.639777 34.0290738,162.831333 C33.6254394,163.022888 33.2868021,163.279431 33.0131516,163.600971 C32.7395012,163.92251 32.5308459,164.295353 32.3871794,164.719511 C32.2435129,165.143669 32.1716808,165.588345 32.1716808,166.05355 C32.1716808,166.518756 32.2435129,166.963431 32.3871794,167.387589 C32.5308459,167.811748 32.7395012,168.188011 33.0131516,168.516392 C33.2868021,168.844772 33.6254394,169.104736 34.0290738,169.296292 C34.4327082,169.487847 34.8944863,169.583623 35.4144222,169.583623 C35.934358,169.583623 36.3961362,169.487847 36.7997706,169.296292 C37.2034049,169.104736 37.5420423,168.844772 37.8156927,168.516392 C38.0893431,168.188011 38.2979985,167.811748 38.4416649,167.387589 C38.5853314,166.963431 38.6571636,166.518756 38.6571636,166.05355 Z M48.4834453,162.790285 L46.2258406,162.790285 L46.2258406,170.938186 L44.2966146,170.938186 L44.2966146,162.790285 L42.3673887,162.790285 L42.3673887,161.209962 L44.2966146,161.209962 L44.2966146,159.178118 C44.2966146,158.603452 44.3616057,158.073262 44.4915896,157.587532 C44.6215736,157.101803 44.8336495,156.681072 45.1278237,156.325326 C45.4219979,155.969581 45.7982616,155.689093 46.2566261,155.483855 C46.7149905,155.278617 47.2725449,155.176 47.929306,155.176 C48.3945117,155.176 48.79814,155.223888 49.1402031,155.319666 L48.9144426,156.982084 C48.7639349,156.941036 48.6134294,156.90683 48.4629217,156.879465 C48.3124139,156.8521 48.141385,156.838418 47.9498297,156.838418 C47.5804016,156.838418 47.2828112,156.903409 47.0570496,157.033393 C46.831288,157.163377 46.6568384,157.337827 46.5336958,157.556747 C46.4105531,157.775667 46.3284592,158.025369 46.2874116,158.305861 C46.246364,158.586353 46.2258406,158.877102 46.2258406,159.178118 L46.2258406,161.209962 L48.4834453,161.209962 L48.4834453,162.790285 Z M55.2927462,162.790285 L52.7067625,162.790285 L52.7067625,167.859634 C52.7067625,168.447983 52.816221,168.868714 53.0351414,169.12184 C53.2540617,169.374967 53.6029608,169.501529 54.081849,169.501529 C54.2597218,169.501529 54.4512743,169.481005 54.6565121,169.439957 C54.8617499,169.39891 55.0464612,169.337339 55.2106514,169.255244 L55.2722225,170.835568 C55.0396196,170.917663 54.7830762,170.982654 54.5025845,171.030543 C54.2220928,171.078431 53.9313436,171.102376 53.6303281,171.102376 C52.7135991,171.102376 52.0123804,170.849253 51.5266509,170.342999 C51.0409214,169.836746 50.7980603,169.077378 50.7980603,168.064871 L50.7980603,162.790285 L48.9304054,162.790285 L48.9304054,161.209962 L50.7980603,161.209962 L50.7980603,158.418741 L52.7067625,158.418741 L52.7067625,161.209962 L55.2927462,161.209962 L55.2927462,162.790285 Z M59.9881079,169.132102 L67.5818695,169.132102 L67.5818695,170.938186 L57.9562636,170.938186 L57.9562636,156.407421 L67.2740143,156.407421 L67.2740143,158.192981 L59.9881079,158.192981 L59.9881079,162.544001 L66.843017,162.544001 L66.843017,164.288514 L59.9881079,164.288514 L59.9881079,169.132102 Z M76.8129645,164.637416 C76.8129645,163.912243 76.5940475,163.375212 76.1562068,163.026308 C75.7183661,162.677403 75.1368676,162.502954 74.411694,162.502954 C73.8643931,162.502954 73.3478857,162.608992 72.8621562,162.821071 C72.3764266,163.03315 71.9693777,163.303376 71.6409972,163.631756 L70.6148132,162.400335 C71.0937015,161.948812 71.6786205,161.593072 72.3695878,161.333104 C73.0605552,161.073136 73.8028208,160.943154 74.5964071,160.943154 C75.2942157,160.943154 75.8996582,161.042351 76.4127528,161.240747 C76.9258473,161.439144 77.3465786,161.70937 77.6749591,162.051433 C78.0033396,162.393496 78.2496213,162.797124 78.4138116,163.26233 C78.5780018,163.727536 78.6600957,164.22694 78.6600957,164.760558 L78.6600957,169.00896 C78.6600957,169.337341 78.6703574,169.682819 78.6908812,170.045406 C78.711405,170.407993 78.7490314,170.705583 78.8037615,170.938186 L77.0592487,170.938186 C76.9497885,170.47298 76.8950592,170.007782 76.8950592,169.542576 L76.8334882,169.542576 C76.4777426,170.062512 76.0296468,170.46614 75.4891872,170.753473 C74.9487276,171.040806 74.3090793,171.18447 73.5702231,171.18447 C73.1871125,171.18447 72.7869047,171.133162 72.3695878,171.030543 C71.9522709,170.927924 71.5725867,170.760315 71.2305236,170.527713 C70.8884606,170.29511 70.6045525,169.987258 70.3787909,169.604147 C70.1530293,169.221036 70.0401502,168.748996 70.0401502,168.188013 C70.0401502,167.449157 70.2385438,166.864238 70.6353369,166.433238 C71.03213,166.002239 71.552058,165.673863 72.1951366,165.448102 C72.8382151,165.22234 73.5633778,165.075255 74.3706466,165.006843 C75.1779154,164.93843 75.9920132,164.904224 76.8129645,164.904224 L76.8129645,164.637416 Z M76.3409199,166.299834 C75.8620316,166.299834 75.3660477,166.320358 74.8529531,166.361406 C74.3398585,166.402453 73.8746598,166.484547 73.4573429,166.60769 C73.040026,166.730832 72.6945475,166.915544 72.420897,167.161829 C72.1472466,167.408114 72.0104234,167.73649 72.0104234,168.146966 C72.0104234,168.434299 72.0685733,168.673739 72.1848747,168.865294 C72.3011762,169.05685 72.4551022,169.214196 72.6466575,169.337339 C72.8382128,169.460482 73.0502887,169.545996 73.2828916,169.593885 C73.5154945,169.641774 73.754935,169.665718 74.0012204,169.665718 C74.9042668,169.665718 75.5986444,169.395492 76.0843739,168.855033 C76.5701034,168.314573 76.8129645,167.633878 76.8129645,166.812926 L76.8129645,166.299834 L76.3409199,166.299834 Z M87.7064776,163.672803 C87.4875573,163.317058 87.1797052,163.026309 86.782912,162.800547 C86.3861189,162.574785 85.9414436,162.461906 85.4488728,162.461906 C85.2299525,162.461906 85.0110354,162.48585 84.7921151,162.533739 C84.5731947,162.581628 84.3782217,162.656881 84.2071902,162.7595 C84.0361587,162.862119 83.8993355,162.992101 83.7967166,163.14945 C83.6940977,163.306799 83.642789,163.501772 83.642789,163.734374 C83.642789,164.14485 83.8275003,164.449282 84.1969284,164.647678 C84.5663565,164.846075 85.1204903,165.027365 85.8593464,165.191556 C86.3245522,165.301016 86.7555451,165.430998 87.1523383,165.581506 C87.5491314,165.732013 87.8946099,165.920145 88.1887841,166.145907 C88.4829583,166.371668 88.7121371,166.641894 88.8763274,166.956592 C89.0405176,167.27129 89.1226115,167.640713 89.1226115,168.064871 C89.1226115,168.639537 89.013153,169.125259 88.7942327,169.522052 C88.5753123,169.918845 88.2845631,170.2438 87.9219763,170.496927 C87.5593894,170.750054 87.1454994,170.931344 86.6802936,171.040805 C86.2150879,171.150265 85.7362068,171.204994 85.243636,171.204994 C84.5047799,171.204994 83.7830377,171.06133 83.0783878,170.773997 C82.373738,170.486664 81.7888189,170.04883 81.3236132,169.460481 L82.6986997,168.290631 C82.9586677,168.673742 83.3178285,168.995276 83.7761929,169.255244 C84.2345574,169.515212 84.7373825,169.645194 85.2846834,169.645194 C85.5309688,169.645194 85.7669888,169.62125 85.9927504,169.573361 C86.218512,169.525473 86.4237467,169.446799 86.6084608,169.337339 C86.7931748,169.227879 86.9402597,169.084215 87.0497199,168.906342 C87.15918,168.728469 87.2139093,168.502711 87.2139093,168.22906 C87.2139093,167.777537 86.9984128,167.44232 86.5674134,167.2234 C86.136414,167.00448 85.5036068,166.799245 84.668973,166.60769 C84.3405925,166.525595 84.0087963,166.426398 83.6735745,166.310096 C83.3383528,166.193795 83.0339212,166.033028 82.7602708,165.82779 C82.4866204,165.622552 82.2642827,165.366009 82.0932512,165.058152 C81.9222197,164.750295 81.8367052,164.370611 81.8367052,163.919088 C81.8367052,163.399152 81.9427431,162.951056 82.1548222,162.574787 C82.3669013,162.198517 82.6439682,161.890665 82.9860313,161.651221 C83.3280943,161.411777 83.7180403,161.233907 84.155881,161.117605 C84.5937217,161.001304 85.0452382,160.943154 85.5104439,160.943154 C86.2082525,160.943154 86.8821066,161.079977 87.5320263,161.353628 C88.1819461,161.627278 88.6847713,162.024065 89.0405168,162.544001 L87.7064776,163.672803 Z M99.2567485,165.212079 C99.243066,164.828969 99.178075,164.469808 99.0617735,164.134586 C98.9454721,163.799364 98.7744431,163.508615 98.5486815,163.26233 C98.3229199,163.016044 98.0424324,162.821071 97.7072107,162.677405 C97.3719889,162.533739 96.9786223,162.461906 96.5270991,162.461906 C96.1166234,162.461906 95.730098,162.533739 95.3675112,162.677405 C95.0049243,162.821071 94.6902311,163.016044 94.4234219,163.26233 C94.1566127,163.508615 93.9376957,163.799364 93.7666641,164.134586 C93.5956326,164.469808 93.4964358,164.828969 93.4690708,165.212079 L99.2567485,165.212079 Z M101.206498,165.991979 L101.206498,166.320358 C101.206498,166.429818 101.199657,166.539277 101.185974,166.648737 L93.4690708,166.648737 C93.4827533,167.059213 93.5751089,167.445738 93.7461405,167.808325 C93.917172,168.170912 94.1463508,168.485605 94.4336837,168.752414 C94.7210167,169.019223 95.0528129,169.227879 95.4290822,169.378386 C95.8053515,169.528894 96.2055593,169.604147 96.6297175,169.604147 C97.2864785,169.604147 97.8542946,169.460483 98.3331829,169.17315 C98.8120712,168.885817 99.1883349,168.536918 99.4619853,168.126442 L100.816548,169.214197 C100.296612,169.898323 99.6843287,170.401148 98.9796788,170.722687 C98.2750289,171.044227 97.4917163,171.204994 96.6297175,171.204994 C95.8908613,171.204994 95.2067455,171.081853 94.5773495,170.835568 C93.9479535,170.589282 93.407502,170.243804 92.9559788,169.799122 C92.5044556,169.35444 92.1487153,168.817409 91.8887474,168.188013 C91.6287795,167.558617 91.4987975,166.860819 91.4987975,166.094598 C91.4987975,165.342059 91.6253589,164.647681 91.8784856,164.011444 C92.1316122,163.375207 92.4839319,162.831335 92.9354551,162.379812 C93.3869783,161.928288 93.9205887,161.575969 94.5363021,161.322842 C95.1520156,161.069715 95.8156079,160.943154 96.5270991,160.943154 C97.2385902,160.943154 97.8850796,161.059454 98.4665868,161.292057 C99.048094,161.524659 99.5406574,161.859876 99.9442918,162.297717 C100.347926,162.735558 100.659199,163.265747 100.878119,163.888302 C101.09704,164.510857 101.206498,165.212076 101.206498,165.991979 Z M114.168342,166.751355 L109.406848,166.751355 L109.406848,165.109461 L114.168342,165.109461 L114.168342,166.751355 Z M130.33188,159.096023 C130.044547,158.69923 129.654601,158.374275 129.16203,158.121148 C128.669459,157.868021 128.115326,157.74146 127.499612,157.74146 C127.171232,157.74146 126.839435,157.785928 126.504214,157.874864 C126.168992,157.9638 125.86456,158.107465 125.59091,158.305861 C125.317259,158.504258 125.094922,158.750539 124.92389,159.044714 C124.752859,159.338888 124.667344,159.691208 124.667344,160.101683 C124.667344,160.498476 124.746018,160.830272 124.903367,161.097082 C125.060716,161.363891 125.272791,161.589649 125.539601,161.774363 C125.80641,161.959077 126.121103,162.116424 126.48369,162.246408 C126.846277,162.376392 127.232802,162.509794 127.643278,162.646619 C128.135849,162.797127 128.635253,162.968156 129.141506,163.159711 C129.64776,163.351267 130.106117,163.60439 130.516593,163.919088 C130.927069,164.233786 131.262285,164.627152 131.522253,165.099199 C131.782221,165.571246 131.912203,166.169848 131.912203,166.895021 C131.912203,167.64756 131.771959,168.30089 131.491468,168.855033 C131.210976,169.409175 130.838133,169.867532 130.372927,170.230119 C129.907722,170.592706 129.370691,170.862932 128.761818,171.040805 C128.152946,171.218677 127.52698,171.307612 126.883902,171.307612 C125.967173,171.307612 125.081243,171.129742 124.226085,170.773997 C123.370928,170.418251 122.662868,169.891482 122.101884,169.193673 L123.682208,167.859634 C124.024271,168.365887 124.482628,168.776357 125.057294,169.091055 C125.63196,169.405753 126.254505,169.5631 126.924949,169.5631 C127.267012,169.5631 127.60907,169.515211 127.951133,169.419434 C128.293196,169.323656 128.604469,169.173151 128.88496,168.967913 C129.165452,168.762675 129.394631,168.506132 129.572504,168.198275 C129.750377,167.890418 129.839312,167.517575 129.839312,167.079734 C129.839312,166.641894 129.746956,166.275892 129.562242,165.981717 C129.377528,165.687543 129.127826,165.437841 128.813128,165.232603 C128.49843,165.027365 128.132428,164.852916 127.715111,164.709249 C127.297794,164.565583 126.856539,164.418498 126.391333,164.26799 C125.926128,164.131165 125.46777,163.963557 125.016247,163.76516 C124.564724,163.566763 124.161095,163.313641 123.80535,163.005784 C123.449604,162.697927 123.162275,162.318243 122.943355,161.86672 C122.724435,161.415196 122.614976,160.854221 122.614976,160.183778 C122.614976,159.458604 122.762061,158.836059 123.056235,158.316123 C123.35041,157.796187 123.733514,157.365194 124.205561,157.023131 C124.677608,156.681068 125.211219,156.431366 125.806408,156.274017 C126.401598,156.116668 127.0002,156.037995 127.60223,156.037995 C128.450547,156.037995 129.244121,156.1885 129.982977,156.489516 C130.721833,156.790531 131.317014,157.194159 131.768537,157.700413 L130.33188,159.096023 Z M141.307488,164.637416 C141.307488,163.912243 141.088571,163.375212 140.65073,163.026308 C140.212889,162.677403 139.631391,162.502954 138.906217,162.502954 C138.358916,162.502954 137.842409,162.608992 137.356679,162.821071 C136.87095,163.03315 136.463901,163.303376 136.13552,163.631756 L135.109336,162.400335 C135.588225,161.948812 136.173144,161.593072 136.864111,161.333104 C137.555078,161.073136 138.297344,160.943154 139.09093,160.943154 C139.788739,160.943154 140.394181,161.042351 140.907276,161.240747 C141.420371,161.439144 141.841102,161.70937 142.169482,162.051433 C142.497863,162.393496 142.744144,162.797124 142.908335,163.26233 C143.072525,163.727536 143.154619,164.22694 143.154619,164.760558 L143.154619,169.00896 C143.154619,169.337341 143.164881,169.682819 143.185404,170.045406 C143.205928,170.407993 143.243555,170.705583 143.298285,170.938186 L141.553772,170.938186 C141.444312,170.47298 141.389582,170.007782 141.389582,169.542576 L141.328011,169.542576 C140.972266,170.062512 140.52417,170.46614 139.98371,170.753473 C139.443251,171.040806 138.803602,171.18447 138.064746,171.18447 C137.681636,171.18447 137.281428,171.133162 136.864111,171.030543 C136.446794,170.927924 136.06711,170.760315 135.725047,170.527713 C135.382984,170.29511 135.099076,169.987258 134.873314,169.604147 C134.647552,169.221036 134.534673,168.748996 134.534673,168.188013 C134.534673,167.449157 134.733067,166.864238 135.12986,166.433238 C135.526653,166.002239 136.046581,165.673863 136.68966,165.448102 C137.332738,165.22234 138.057901,165.075255 138.86517,165.006843 C139.672439,164.93843 140.486536,164.904224 141.307488,164.904224 L141.307488,164.637416 Z M140.835443,166.299834 C140.356555,166.299834 139.860571,166.320358 139.347476,166.361406 C138.834382,166.402453 138.369183,166.484547 137.951866,166.60769 C137.534549,166.730832 137.189071,166.915544 136.91542,167.161829 C136.64177,167.408114 136.504947,167.73649 136.504947,168.146966 C136.504947,168.434299 136.563096,168.673739 136.679398,168.865294 C136.795699,169.05685 136.949625,169.214196 137.141181,169.337339 C137.332736,169.460482 137.544812,169.545996 137.777415,169.593885 C138.010018,169.641774 138.249458,169.665718 138.495744,169.665718 C139.39879,169.665718 140.093168,169.395492 140.578897,168.855033 C141.064627,168.314573 141.307488,167.633878 141.307488,166.812926 L141.307488,166.299834 L140.835443,166.299834 Z M153.001424,164.637416 C153.001424,163.912243 152.782507,163.375212 152.344667,163.026308 C151.906826,162.677403 151.325327,162.502954 150.600154,162.502954 C150.052853,162.502954 149.536345,162.608992 149.050616,162.821071 C148.564886,163.03315 148.157838,163.303376 147.829457,163.631756 L146.803273,162.400335 C147.282161,161.948812 147.86708,161.593072 148.558048,161.333104 C149.249015,161.073136 149.991281,160.943154 150.784867,160.943154 C151.482676,160.943154 152.088118,161.042351 152.601213,161.240747 C153.114307,161.439144 153.535038,161.70937 153.863419,162.051433 C154.191799,162.393496 154.438081,162.797124 154.602271,163.26233 C154.766462,163.727536 154.848556,164.22694 154.848556,164.760558 L154.848556,169.00896 C154.848556,169.337341 154.858817,169.682819 154.879341,170.045406 C154.899865,170.407993 154.937491,170.705583 154.992221,170.938186 L153.247708,170.938186 C153.138248,170.47298 153.083519,170.007782 153.083519,169.542576 L153.021948,169.542576 C152.666202,170.062512 152.218107,170.46614 151.677647,170.753473 C151.137187,171.040806 150.497539,171.18447 149.758683,171.18447 C149.375572,171.18447 148.975365,171.133162 148.558048,171.030543 C148.140731,170.927924 147.761046,170.760315 147.418983,170.527713 C147.07692,170.29511 146.793012,169.987258 146.567251,169.604147 C146.341489,169.221036 146.22861,168.748996 146.22861,168.188013 C146.22861,167.449157 146.427004,166.864238 146.823797,166.433238 C147.22059,166.002239 147.740518,165.673863 148.383596,165.448102 C149.026675,165.22234 149.751838,165.075255 150.559106,165.006843 C151.366375,164.93843 152.180473,164.904224 153.001424,164.904224 L153.001424,164.637416 Z M152.52938,166.299834 C152.050491,166.299834 151.554507,166.320358 151.041413,166.361406 C150.528318,166.402453 150.06312,166.484547 149.645803,166.60769 C149.228486,166.730832 148.883007,166.915544 148.609357,167.161829 C148.335706,167.408114 148.198883,167.73649 148.198883,168.146966 C148.198883,168.434299 148.257033,168.673739 148.373335,168.865294 C148.489636,169.05685 148.643562,169.214196 148.835117,169.337339 C149.026673,169.460482 149.238749,169.545996 149.471351,169.593885 C149.703954,169.641774 149.943395,169.665718 150.18968,169.665718 C151.092727,169.665718 151.787104,169.395492 152.272834,168.855033 C152.758563,168.314573 153.001424,167.633878 153.001424,166.812926 L153.001424,166.299834 L152.52938,166.299834 Z M165.967829,159.096023 C165.680496,158.69923 165.29055,158.374275 164.797979,158.121148 C164.305409,157.868021 163.751275,157.74146 163.135561,157.74146 C162.807181,157.74146 162.475385,157.785928 162.140163,157.874864 C161.804941,157.9638 161.500509,158.107465 161.226859,158.305861 C160.953209,158.504258 160.730871,158.750539 160.559839,159.044714 C160.388808,159.338888 160.303293,159.691208 160.303293,160.101683 C160.303293,160.498476 160.381967,160.830272 160.539316,161.097082 C160.696665,161.363891 160.908741,161.589649 161.17555,161.774363 C161.442359,161.959077 161.757052,162.116424 162.119639,162.246408 C162.482226,162.376392 162.868751,162.509794 163.279227,162.646619 C163.771798,162.797127 164.271202,162.968156 164.777456,163.159711 C165.283709,163.351267 165.742067,163.60439 166.152542,163.919088 C166.563018,164.233786 166.898235,164.627152 167.158203,165.099199 C167.41817,165.571246 167.548152,166.169848 167.548152,166.895021 C167.548152,167.64756 167.407909,168.30089 167.127417,168.855033 C166.846925,169.409175 166.474082,169.867532 166.008876,170.230119 C165.543671,170.592706 165.00664,170.862932 164.397768,171.040805 C163.788895,171.218677 163.162929,171.307612 162.519851,171.307612 C161.603122,171.307612 160.717192,171.129742 159.862034,170.773997 C159.006877,170.418251 158.298817,169.891482 157.737833,169.193673 L159.318157,167.859634 C159.66022,168.365887 160.118577,168.776357 160.693243,169.091055 C161.267909,169.405753 161.890455,169.5631 162.560898,169.5631 C162.902961,169.5631 163.245019,169.515211 163.587082,169.419434 C163.929145,169.323656 164.240418,169.173151 164.52091,168.967913 C164.801401,168.762675 165.03058,168.506132 165.208453,168.198275 C165.386326,167.890418 165.475261,167.517575 165.475261,167.079734 C165.475261,166.641894 165.382905,166.275892 165.198191,165.981717 C165.013477,165.687543 164.763775,165.437841 164.449077,165.232603 C164.134379,165.027365 163.768377,164.852916 163.35106,164.709249 C162.933743,164.565583 162.492488,164.418498 162.027283,164.26799 C161.562077,164.131165 161.103719,163.963557 160.652196,163.76516 C160.200673,163.566763 159.797044,163.313641 159.441299,163.005784 C159.085553,162.697927 158.798225,162.318243 158.579304,161.86672 C158.360384,161.415196 158.250925,160.854221 158.250925,160.183778 C158.250925,159.458604 158.39801,158.836059 158.692185,158.316123 C158.986359,157.796187 159.369464,157.365194 159.841511,157.023131 C160.313558,156.681068 160.847168,156.431366 161.442358,156.274017 C162.037547,156.116668 162.636149,156.037995 163.23818,156.037995 C164.086496,156.037995 164.88007,156.1885 165.618927,156.489516 C166.357783,156.790531 166.952963,157.194159 167.404487,157.700413 L165.967829,159.096023 Z M176.692592,156.407421 L178.724436,156.407421 L178.724436,162.48243 L186.071914,162.48243 L186.071914,156.407421 L188.124282,156.407421 L188.124282,170.938186 L186.071914,170.938186 L186.071914,164.288514 L178.724436,164.288514 L178.724436,170.938186 L176.692592,170.938186 L176.692592,156.407421 Z M197.314329,170.938186 L195.282485,170.938186 L195.282485,158.192981 L190.62361,158.192981 L190.62361,156.407421 L201.973205,156.407421 L201.973205,158.192981 L197.314329,158.192981 L197.314329,170.938186 Z M211.984199,167.572303 L212.025247,167.572303 L216.314696,156.407421 L219.475343,156.407421 L219.475343,170.938186 L217.443498,170.938186 L217.443498,158.788168 L217.402451,158.788168 L212.579386,170.938186 L211.286394,170.938186 L206.483853,158.788168 L206.442806,158.788168 L206.442806,170.938186 L204.472533,170.938186 L204.472533,156.407421 L207.633179,156.407421 L211.984199,167.572303 Z M225.607362,169.132102 L232.092845,169.132102 L232.092845,170.938186 L223.575518,170.938186 L223.575518,156.407421 L225.607362,156.407421 L225.607362,169.132102 Z M244.438978,170.938186 L242.407134,170.938186 L242.407134,158.192981 L237.748259,158.192981 L237.748259,156.407421 L249.097854,156.407421 L249.097854,158.192981 L244.438978,158.192981 L244.438978,170.938186 Z M256.646007,165.212079 C256.632324,164.828969 256.567333,164.469808 256.451032,164.134586 C256.33473,163.799364 256.163702,163.508615 255.93794,163.26233 C255.712178,163.016044 255.431691,162.821071 255.096469,162.677405 C254.761247,162.533739 254.367881,162.461906 253.916357,162.461906 C253.505882,162.461906 253.119356,162.533739 252.75677,162.677405 C252.394183,162.821071 252.079489,163.016044 251.81268,163.26233 C251.545871,163.508615 251.326954,163.799364 251.155923,164.134586 C250.984891,164.469808 250.885694,164.828969 250.858329,165.212079 L256.646007,165.212079 Z M258.595756,165.991979 L258.595756,166.320358 C258.595756,166.429818 258.588915,166.539277 258.575233,166.648737 L250.858329,166.648737 C250.872012,167.059213 250.964367,167.445738 251.135399,167.808325 C251.30643,168.170912 251.535609,168.485605 251.822942,168.752414 C252.110275,169.019223 252.442071,169.227879 252.818341,169.378386 C253.19461,169.528894 253.594818,169.604147 254.018976,169.604147 C254.675737,169.604147 255.243553,169.460483 255.722441,169.17315 C256.20133,168.885817 256.577593,168.536918 256.851244,168.126442 L258.205807,169.214197 C257.685871,169.898323 257.073587,170.401148 256.368937,170.722687 C255.664287,171.044227 254.880975,171.204994 254.018976,171.204994 C253.28012,171.204994 252.596004,171.081853 251.966608,170.835568 C251.337212,170.589282 250.79676,170.243804 250.345237,169.799122 C249.893714,169.35444 249.537974,168.817409 249.278006,168.188013 C249.018038,167.558617 248.888056,166.860819 248.888056,166.094598 C248.888056,165.342059 249.014617,164.647681 249.267744,164.011444 C249.520871,163.375207 249.87319,162.831335 250.324713,162.379812 C250.776237,161.928288 251.309847,161.575969 251.925561,161.322842 C252.541274,161.069715 253.204866,160.943154 253.916357,160.943154 C254.627849,160.943154 255.274338,161.059454 255.855845,161.292057 C256.437352,161.524659 256.929916,161.859876 257.33355,162.297717 C257.737185,162.735558 258.048457,163.265747 258.267378,163.888302 C258.486298,164.510857 258.595756,165.212076 258.595756,165.991979 Z M263.742639,162.810809 C263.988925,162.290873 264.382291,161.849618 264.922751,161.487032 C265.46321,161.124445 266.102859,160.943154 266.841715,160.943154 C267.498476,160.943154 268.090236,161.09366 268.617013,161.394675 C269.14379,161.69569 269.55768,162.195095 269.858696,162.892904 C270.187076,162.263508 270.645434,161.781206 271.233782,161.445984 C271.822131,161.110762 272.4652,160.943154 273.163008,160.943154 C273.792404,160.943154 274.332856,161.049192 274.784379,161.261271 C275.235902,161.47335 275.612166,161.757258 275.913181,162.113004 C276.214197,162.468749 276.436534,162.88606 276.580201,163.364948 C276.723867,163.843837 276.7957,164.356923 276.7957,164.904224 L276.7957,170.938186 L274.866474,170.938186 L274.866474,165.540458 C274.866474,165.143665 274.832268,164.767401 274.763855,164.411656 C274.695443,164.05591 274.579143,163.741217 274.414953,163.467567 C274.250762,163.193916 274.031845,162.974999 273.758195,162.810809 C273.484545,162.646619 273.135645,162.564525 272.711487,162.564525 C272.273647,162.564525 271.897383,162.65688 271.582685,162.841594 C271.267987,163.026308 271.011443,163.265749 270.813047,163.559923 C270.61465,163.854097 270.470986,164.185894 270.38205,164.555322 C270.293113,164.92475 270.248646,165.301013 270.248646,165.684124 L270.248646,170.938186 L268.31942,170.938186 L268.31942,165.150508 C268.31942,164.767398 268.285214,164.418499 268.216801,164.103801 C268.148389,163.789103 268.032089,163.518877 267.867899,163.293115 C267.703709,163.067354 267.491633,162.889484 267.231665,162.7595 C266.971697,162.629516 266.650162,162.564525 266.267052,162.564525 C265.555561,162.564525 264.963801,162.855274 264.491754,163.436781 C264.019707,164.018288 263.783687,164.79476 263.783687,165.766219 L263.783687,170.938186 L261.854461,170.938186 L261.854461,163.303377 C261.854461,163.043409 261.847619,162.708193 261.833937,162.297717 C261.820254,161.887241 261.799731,161.52466 261.772366,161.209962 L263.598973,161.209962 C263.626338,161.456247 263.646862,161.733314 263.660544,162.041171 C263.674227,162.349028 263.681068,162.605571 263.681068,162.810809 L263.742639,162.810809 Z M282.558293,175.863869 L280.629067,175.863869 L280.629067,161.209962 L282.517245,161.209962 L282.517245,162.728714 L282.578816,162.728714 C282.893514,162.208778 283.355293,161.781206 283.964165,161.445984 C284.573037,161.110762 285.281097,160.943154 286.088366,160.943154 C286.813539,160.943154 287.473711,161.073136 288.068901,161.333104 C288.66409,161.593072 289.177177,161.955653 289.608177,162.420859 C290.039176,162.886065 290.370972,163.429937 290.603575,164.052492 C290.836178,164.675046 290.952478,165.342059 290.952478,166.05355 C290.952478,166.765041 290.836178,167.435475 290.603575,168.064871 C290.370972,168.694267 290.042597,169.24156 289.618439,169.706765 C289.19428,170.171971 288.681194,170.537973 288.079163,170.804782 C287.477132,171.071591 286.799857,171.204994 286.047318,171.204994 C285.34951,171.204994 284.692758,171.054488 284.077045,170.753473 C283.461332,170.452458 282.975609,170.028306 282.619864,169.481005 L282.558293,169.481005 L282.558293,175.863869 Z M288.961681,166.05355 C288.961681,165.602027 288.893269,165.164193 288.756444,164.740035 C288.619619,164.315877 288.414384,163.939613 288.140734,163.611232 C287.867083,163.282852 287.528446,163.022888 287.124811,162.831333 C286.721177,162.639777 286.252558,162.544001 285.718939,162.544001 C285.226369,162.544001 284.778273,162.639777 284.374638,162.831333 C283.971004,163.022888 283.625526,163.282852 283.338193,163.611232 C283.05086,163.939613 282.828522,164.315877 282.671173,164.740035 C282.513824,165.164193 282.435151,165.608868 282.435151,166.074074 C282.435151,166.53928 282.513824,166.983955 282.671173,167.408113 C282.828522,167.832271 283.05086,168.205114 283.338193,168.526654 C283.625526,168.848193 283.971004,169.104736 284.374638,169.296292 C284.778273,169.487847 285.226369,169.583623 285.718939,169.583623 C286.252558,169.583623 286.721177,169.484426 287.124811,169.28603 C287.528446,169.087633 287.867083,168.824249 288.140734,168.495868 C288.414384,168.167488 288.619619,167.791224 288.756444,167.367066 C288.893269,166.942908 288.961681,166.505074 288.961681,166.05355 Z M296.181455,170.938186 L294.252229,170.938186 L294.252229,155.422284 L296.181455,155.422284 L296.181455,170.938186 Z M306.171926,164.637416 C306.171926,163.912243 305.953009,163.375212 305.515169,163.026308 C305.077328,162.677403 304.49583,162.502954 303.770656,162.502954 C303.223355,162.502954 302.706848,162.608992 302.221118,162.821071 C301.735389,163.03315 301.32834,163.303376 300.999959,163.631756 L299.973775,162.400335 C300.452663,161.948812 301.037582,161.593072 301.72855,161.333104 C302.419517,161.073136 303.161783,160.943154 303.955369,160.943154 C304.653178,160.943154 305.25862,161.042351 305.771715,161.240747 C306.284809,161.439144 306.70554,161.70937 307.033921,162.051433 C307.362302,162.393496 307.608583,162.797124 307.772773,163.26233 C307.936964,163.727536 308.019058,164.22694 308.019058,164.760558 L308.019058,169.00896 C308.019058,169.337341 308.029319,169.682819 308.049843,170.045406 C308.070367,170.407993 308.107993,170.705583 308.162723,170.938186 L306.418211,170.938186 C306.30875,170.47298 306.254021,170.007782 306.254021,169.542576 L306.19245,169.542576 C305.836705,170.062512 305.388609,170.46614 304.848149,170.753473 C304.307689,171.040806 303.668041,171.18447 302.929185,171.18447 C302.546074,171.18447 302.145867,171.133162 301.72855,171.030543 C301.311233,170.927924 300.931549,170.760315 300.589486,170.527713 C300.247422,170.29511 299.963514,169.987258 299.737753,169.604147 C299.511991,169.221036 299.399112,168.748996 299.399112,168.188013 C299.399112,167.449157 299.597506,166.864238 299.994299,166.433238 C300.391092,166.002239 300.91102,165.673863 301.554098,165.448102 C302.197177,165.22234 302.92234,165.075255 303.729609,165.006843 C304.536877,164.93843 305.350975,164.904224 306.171926,164.904224 L306.171926,164.637416 Z M305.699882,166.299834 C305.220994,166.299834 304.72501,166.320358 304.211915,166.361406 C303.69882,166.402453 303.233622,166.484547 302.816305,166.60769 C302.398988,166.730832 302.053509,166.915544 301.779859,167.161829 C301.506209,167.408114 301.369385,167.73649 301.369385,168.146966 C301.369385,168.434299 301.427535,168.673739 301.543837,168.865294 C301.660138,169.05685 301.814064,169.214196 302.005619,169.337339 C302.197175,169.460482 302.409251,169.545996 302.641854,169.593885 C302.874456,169.641774 303.113897,169.665718 303.360182,169.665718 C304.263229,169.665718 304.957606,169.395492 305.443336,168.855033 C305.929065,168.314573 306.171926,167.633878 306.171926,166.812926 L306.171926,166.299834 L305.699882,166.299834 Z M316.367634,162.790285 L313.781651,162.790285 L313.781651,167.859634 C313.781651,168.447983 313.891109,168.868714 314.11003,169.12184 C314.32895,169.374967 314.677849,169.501529 315.156737,169.501529 C315.33461,169.501529 315.526163,169.481005 315.7314,169.439957 C315.936638,169.39891 316.121349,169.337339 316.28554,169.255244 L316.347111,170.835568 C316.114508,170.917663 315.857964,170.982654 315.577473,171.030543 C315.296981,171.078431 315.006232,171.102376 314.705216,171.102376 C313.788487,171.102376 313.087269,170.849253 312.601539,170.342999 C312.11581,169.836746 311.872949,169.077378 311.872949,168.064871 L311.872949,162.790285 L310.005294,162.790285 L310.005294,161.209962 L311.872949,161.209962 L311.872949,158.418741 L313.781651,158.418741 L313.781651,161.209962 L316.367634,161.209962 L316.367634,162.790285 Z M326.05025,165.212079 C326.036568,164.828969 325.971577,164.469808 325.855275,164.134586 C325.738974,163.799364 325.567945,163.508615 325.342183,163.26233 C325.116422,163.016044 324.835934,162.821071 324.500713,162.677405 C324.165491,162.533739 323.772124,162.461906 323.320601,162.461906 C322.910125,162.461906 322.5236,162.533739 322.161013,162.677405 C321.798426,162.821071 321.483733,163.016044 321.216924,163.26233 C320.950115,163.508615 320.731198,163.799364 320.560166,164.134586 C320.389135,164.469808 320.289938,164.828969 320.262573,165.212079 L326.05025,165.212079 Z M328,165.991979 L328,166.320358 C328,166.429818 327.993159,166.539277 327.979476,166.648737 L320.262573,166.648737 C320.276255,167.059213 320.368611,167.445738 320.539642,167.808325 C320.710674,168.170912 320.939853,168.485605 321.227186,168.752414 C321.514519,169.019223 321.846315,169.227879 322.222584,169.378386 C322.598853,169.528894 322.999061,169.604147 323.423219,169.604147 C324.07998,169.604147 324.647797,169.460483 325.126685,169.17315 C325.605573,168.885817 325.981837,168.536918 326.255487,168.126442 L327.61005,169.214197 C327.090114,169.898323 326.477831,170.401148 325.773181,170.722687 C325.068531,171.044227 324.285218,171.204994 323.423219,171.204994 C322.684363,171.204994 322.000247,171.081853 321.370851,170.835568 C320.741455,170.589282 320.201004,170.243804 319.749481,169.799122 C319.297957,169.35444 318.942217,168.817409 318.682249,168.188013 C318.422281,167.558617 318.292299,166.860819 318.292299,166.094598 C318.292299,165.342059 318.418861,164.647681 318.671988,164.011444 C318.925114,163.375207 319.277434,162.831335 319.728957,162.379812 C320.18048,161.928288 320.714091,161.575969 321.329804,161.322842 C321.945518,161.069715 322.60911,160.943154 323.320601,160.943154 C324.032092,160.943154 324.678582,161.059454 325.260089,161.292057 C325.841596,161.524659 326.334159,161.859876 326.737794,162.297717 C327.141428,162.735558 327.452701,163.265747 327.671621,163.888302 C327.890541,164.510857 328,165.212076 328,165.991979 Z" id="SoftEase---SaaS-HTML" fill="#4A4A4A"></path>
            </g>
        </g>
    </g>
</svg>